<svg width="328" height="100" viewBox="0 0 328 100" fill="none" xmlns="http://www.w3.org/2000/svg">
    <g filter="url(#rgdih0u5la)">
        <path d="M88.683 75.862a.359.359 0 0 0-.275-.267 7.246 7.246 0 0 1-4.264-2.698 9.772 9.772 0 0 1-1.476-2.823l.083-.04c.24-.113.587-.284 1.015-.511a32.735 32.735 0 0 0 3.35-2.055 25.729 25.729 0 0 0 7.838-8.352 21.402 21.402 0 0 0-.614-20.81c-5.476-9.418-16.255-13.138-25.574-14.52a74.048 74.048 0 0 0-12.158-.74 69.432 69.432 0 0 0-4.002.191l.005-.001.008-.003a33.647 33.647 0 0 0 4.194-1.757 13.493 13.493 0 0 0 3.889-2.793 9.467 9.467 0 0 0 2.307-5.065c.082-.596.11-1.197.084-1.798a7.695 7.695 0 0 0-.059-.665l-.006-.04-.002-.01V11.1a.36.36 0 0 0-.657-.133l-.005.007-.019.028a7.563 7.563 0 0 1-.458.575 13.241 13.241 0 0 1-1.658 1.567 23.067 23.067 0 0 1-7.833 3.944c-2.102.64-4.97 1.216-7.566 1.724l-.53.104a181.69 181.69 0 0 0-3.008.603 18.34 18.34 0 0 0-2.346.611c-1.988.76-2.79 2.692-3.107 4.326a11.963 11.963 0 0 0-.193 2.85l-.345.132a95.3 95.3 0 0 1-1.527.565c-1.248.449-2.867 1.002-4.358 1.422a73.564 73.564 0 0 1-6.931 1.584l-.113.02-.028.004-.007.002h-.002a.36.36 0 0 0-.3.32v.006l-.001.015-.004.054a12.924 12.924 0 0 0-.03.922c.001.767.07 1.533.203 2.289.315 1.718 1.111 3.755 3.105 4.575 1.48.61 2.744.321 4.345-.224.303-.104.62-.217.956-.337a37.646 37.646 0 0 1 5.688-1.644.942.942 0 0 1 .56.027.618.618 0 0 1 .272.231.897.897 0 0 1 .066.116 37.04 37.04 0 0 0-3.433.808c-2.06.592-4.529 1.521-5.922 2.86a2.882 2.882 0 0 0-.93 2.289c.067.78.316 1.535.727 2.203.344.585.745 1.134 1.198 1.64a11.191 11.191 0 0 0 .587.614l.038.035.01.01.003.002v.001h.001a.36.36 0 0 0 .575-.401v-.003l-.005-.011-.02-.05a5.915 5.915 0 0 1-.242-.859 2.892 2.892 0 0 1 .061-1.63c.23-.4.584-.715 1.008-.895a4.902 4.902 0 0 1 .734-.3l.046-.014.01-.003h.002a.345.345 0 0 0 .054-.02l.003-.001.008-.004.032-.014.128-.058c.114-.05.282-.125.502-.22.44-.189 1.083-.46 1.896-.784a98.045 98.045 0 0 1 6.66-2.378c5.45-1.727 12.532-3.434 19.117-3.386 3.91-.067 7.8.61 11.458 1.995 4.443 1.868 8.148 4.849 9.64 8.604 1.48 3.722.824 8.31-3.67 13.511a23.005 23.005 0 0 1-8.187 5.1c-3.797 1.397-7.93 1.691-10.834-1.08-3.706-3.534-3.44-8.268-2.187-12.211a26.735 26.735 0 0 1 2.197-4.961 27.035 27.035 0 0 1 1.16-1.868l.07-.101.018-.025.004-.006.001-.001a.36.36 0 0 0-.485-.514l-.002.001-.004.003-.015.01-.057.038a20.592 20.592 0 0 0-.988.719 27.1 27.1 0 0 0-2.498 2.194 21.649 21.649 0 0 0-5.329 8.157 19.78 19.78 0 0 0-.875 10.725c.842 3.781 3.123 7.607 7.709 11.143 4.547 3.513 12.671 5.195 19.633 3.709a28.289 28.289 0 0 0 8.254-3.367 35.462 35.462 0 0 0 2.551-1.653 26.448 26.448 0 0 0 .887-.66l.048-.039.013-.01.003-.002.001-.001-.009-.012a.145.145 0 0 1 .01.011.359.359 0 0 0 .123-.363z" fill="url(#ev74kqn9sb)" stroke="url(#sbvd93wpfc)" stroke-width=".8" stroke-linejoin="round"/>
        <path d="m56.16 84.15-.095-.025a7.46 7.46 0 0 1-.31-.092 11.71 11.71 0 0 1-1.137-.433 14.942 14.942 0 0 1-3.56-2.218c-2.642-2.207-5.467-6.076-6.103-12.736a27.102 27.102 0 0 1 4.107-17.701 25.247 25.247 0 0 1 3.565-4.358c.495-.48.911-.84 1.202-1.076a11.806 11.806 0 0 1 .422-.329l.117-.1a.319.319 0 0 0 .078-.24v-.002s-.004-.098-.01-.134a1.26 1.26 0 0 0-.069-.274 1.148 1.148 0 0 0-.596-.644 2.057 2.057 0 0 0-1.341-.057 8.517 8.517 0 0 0-2.233.961 14.716 14.716 0 0 0-2.963 2.514 32.014 32.014 0 0 0-2.59 3.083 40.343 40.343 0 0 0-3.729 6.529 56.32 56.32 0 0 0-1.346 3.14l-.073.19-.015.04-.019.033a3.333 3.333 0 0 1-.439.592c-.31.323-.606.464-.875.374a8.666 8.666 0 0 0-.548-.16l-.027-.008a14.036 14.036 0 0 1-.67-.195 2.444 2.444 0 0 1-1.02-.532 1.412 1.412 0 0 1-.317-.894 2.235 2.235 0 0 1 .034-.479l.003-.012.002-.012.001-.004a.375.375 0 0 0 .008-.045v-.002l.002-.007.004-.03.019-.126a12.704 12.704 0 0 1 .543-2.076 8.586 8.586 0 0 1 2.494-3.8 113.073 113.073 0 0 1 1.905-1.518l.085-.065.004-.003.048-.027a6.782 6.782 0 0 0 .793-.53c.527-.367.93-.886 1.153-1.488a1.79 1.79 0 0 0-.466-1.659 3.909 3.909 0 0 0-1.765-1.076 6.573 6.573 0 0 0-5.468.882c-4.005 2.536-9.216 9.017-9.52 17.857-.124 3.647.749 7.743 4.332 12.937 1.617 2.348 4.344 4.02 6.623 5.097a29.745 29.745 0 0 0 3.857 1.498c.108.033.192.058.25.074l.066.019.017.005h.005l.001.001h.001a.399.399 0 0 0 .409-.642l-.002-.002-.006-.008-.026-.03-.1-.123a38.7 38.7 0 0 1-1.636-2.198 31.373 31.373 0 0 1-3.08-5.48 21.88 21.88 0 0 1-1.594-8.299v-.002l.004-.043a2.698 2.698 0 0 1 .154-.67.98.98 0 0 1 .721-.718c.443-.015.883.073 1.286.257.205.076.406.16.601.24l.127.054c.214.092.433.173.655.244h.002a1.471 1.471 0 0 1 .976 1.009 2.87 2.87 0 0 1 .152.768l.002.046v.011l.001.02.001.015v.006l.002.015.006.057.024.218c.021.19.055.465.105.81.1.69.264 1.662.518 2.794a28.807 28.807 0 0 0 2.845 7.75 19.895 19.895 0 0 0 4.925 6.034 6.556 6.556 0 0 0 4.598 1.62 4.542 4.542 0 0 0 3.606-2.167 4.603 4.603 0 0 0 .584-1.664c.007-.05.012-.09.014-.12a.415.415 0 0 0-.31-.462zm-.084.389.399.022z" fill="url(#gj7rerlugd)"/>
        <path d="m56.076 84.539.399.022m-.314-.412-.096-.024a7.46 7.46 0 0 1-.31-.092 11.71 11.71 0 0 1-1.137-.433 14.942 14.942 0 0 1-3.56-2.218c-2.642-2.207-5.467-6.076-6.103-12.736a27.102 27.102 0 0 1 4.107-17.701 25.247 25.247 0 0 1 3.565-4.358c.495-.48.911-.84 1.202-1.076a11.806 11.806 0 0 1 .422-.329l.117-.1a.319.319 0 0 0 .078-.24v-.002s-.004-.098-.01-.134a1.26 1.26 0 0 0-.069-.274 1.148 1.148 0 0 0-.596-.644 2.057 2.057 0 0 0-1.341-.057 8.517 8.517 0 0 0-2.233.961 14.716 14.716 0 0 0-2.963 2.514 32.014 32.014 0 0 0-2.59 3.083 40.343 40.343 0 0 0-3.729 6.529 56.32 56.32 0 0 0-1.346 3.14l-.073.19-.015.04-.019.033a3.333 3.333 0 0 1-.439.592c-.31.323-.606.464-.875.374a8.666 8.666 0 0 0-.548-.16l-.027-.008a14.036 14.036 0 0 1-.67-.195 2.444 2.444 0 0 1-1.02-.532 1.412 1.412 0 0 1-.317-.894 2.235 2.235 0 0 1 .034-.479l.003-.012.002-.012.001-.004a.375.375 0 0 0 .008-.045v-.002l.002-.007.004-.03.019-.126a12.704 12.704 0 0 1 .543-2.076 8.586 8.586 0 0 1 2.494-3.8 113.073 113.073 0 0 1 1.905-1.518l.085-.065.004-.003.048-.027a6.782 6.782 0 0 0 .793-.53c.527-.367.93-.886 1.153-1.488a1.79 1.79 0 0 0-.466-1.659 3.909 3.909 0 0 0-1.765-1.076 6.573 6.573 0 0 0-5.468.882c-4.005 2.536-9.216 9.017-9.52 17.857-.124 3.647.749 7.743 4.332 12.937 1.617 2.348 4.344 4.02 6.623 5.097a29.745 29.745 0 0 0 3.857 1.498c.108.033.192.058.25.074l.066.019.017.005h.005l.001.001h.001a.399.399 0 0 0 .409-.642l-.002-.002-.006-.008-.026-.03-.1-.123a38.7 38.7 0 0 1-1.636-2.198 31.373 31.373 0 0 1-3.08-5.48 21.88 21.88 0 0 1-1.594-8.299v-.002l.004-.043a2.698 2.698 0 0 1 .154-.67.98.98 0 0 1 .721-.718c.443-.015.883.073 1.286.257.205.076.406.16.601.24l.127.054c.214.092.433.173.655.244h.002a1.471 1.471 0 0 1 .976 1.009 2.87 2.87 0 0 1 .152.768l.002.046v.011l.001.02.001.015v.006l.002.015.006.057.024.218c.021.19.055.465.105.81.1.69.264 1.662.518 2.794a28.807 28.807 0 0 0 2.845 7.75 19.895 19.895 0 0 0 4.925 6.034 6.556 6.556 0 0 0 4.598 1.62 4.542 4.542 0 0 0 3.606-2.167 4.603 4.603 0 0 0 .584-1.664c.007-.05.012-.09.014-.12a.415.415 0 0 0-.31-.462z" stroke="url(#gxmrgxni1e)" stroke-width=".8" stroke-linejoin="round"/>
    </g>
    <path d="M302.356 63.973c-1.019-.736-1.528-2.145-1.528-4.224v-36.09c0-2.224.557-3.702 1.67-4.433a7.298 7.298 0 0 1 3.478-.806v-1.85h-36.705v1.85a7.211 7.211 0 0 1 3.409.89c1.077.742 1.615 2.2 1.614 4.374v36.089c0 2.077-.487 3.46-1.46 4.151a8.606 8.606 0 0 1-3.55 1.036v1.854H306V64.96a8.463 8.463 0 0 1-3.644-.987zm-10.155-4.224c0 1.98-.441 3.34-1.323 4.079a6.37 6.37 0 0 1-3.41 1.108 7.126 7.126 0 0 1-3.272-1.108c-.832-.694-1.249-2.053-1.251-4.08V23.66c0-2.122.441-3.556 1.323-4.3a5.662 5.662 0 0 1 3.059-.963 6.962 6.962 0 0 1 3.409.963c.976.693 1.465 2.127 1.465 4.3v36.09zm-183.432 26.5h9.147v-.878h-9.147v.878zm20.517-2.233h-3.579V80.51h-1.319v8.605h1.319v-3.917h3.579v3.917h1.316V80.51h-1.316v3.506zm9.539 1.496c0 1.942-.771 2.571-1.828 2.571-1.058 0-1.795-.629-1.795-2.571V80.51h-1.316v4.91c0 2.82 1.259 3.844 3.111 3.844 1.852 0 3.103-1.04 3.103-3.845v-4.91h-1.275v5.003zm6.238-5.002-2.772 8.605h1.339l.718-2.454h2.906l.706 2.454h1.395l-2.771-8.605h-1.521zm1.872 5.087h-2.28l.339-1.157c.275-.935.532-1.882.775-2.866h.036c.262.971.509 1.93.807 2.866l.323 1.157zM157.353 83c0-1.858-1.296-2.491-3.022-2.491h-2.736v8.605h1.315v-3.474h1.368l1.897 3.474h1.489l-2.042-3.627A2.387 2.387 0 0 0 157.353 83zm-3.179 1.564h-1.264v-2.959h1.264c1.21 0 1.871.363 1.871 1.403s-.657 1.556-1.871 1.556zm10.893.955c0 1.943-.774 2.571-1.832 2.571-1.057 0-1.791-.628-1.791-2.571v-5.01h-1.319v4.91c0 2.82 1.263 3.844 3.11 3.844 1.848 0 3.103-1.04 3.103-3.845v-4.91h-1.271v5.01zm9.45-.992c0 .935.101 1.975.17 2.862h-.057l-.876-1.822-2.771-5.05h-1.353v8.605h1.251v-4.067c0-.935-.1-1.926-.169-2.82h.057l.859 1.805 2.772 5.074h1.352V80.51h-1.251l.016 4.018zm9.619.657h3.066v-1.144h-3.066v-2.394h3.632V80.51h-4.971v8.605h5.067v-1.148h-3.728v-2.782zm11.519-.665c0 .935.101 1.975.17 2.862h-.056l-.876-1.822-2.772-5.05h-1.352v8.605h1.251v-4.059c0-.935-.105-1.926-.174-2.82h.057l.875 1.8 2.772 5.075h1.352V80.51h-1.266l.019 4.01zm3.837-2.873h2.454v7.468h1.319v-7.468h2.465V80.51h-6.262l.024 1.137zm10.132 3.538h3.066v-1.144h-3.066v-2.394h3.631V80.51h-4.966v8.605h5.063v-1.148h-3.749l.021-2.782zm12.395-2.184c0-1.858-1.296-2.491-3.022-2.491h-2.74v8.605h1.32v-3.474h1.351l1.897 3.474h1.488l-2.045-3.627A2.387 2.387 0 0 0 221.999 83h.02zm-3.183 1.564h-1.259v-2.959h1.259c1.21 0 1.876.363 1.876 1.403s-.666 1.556-1.876 1.556zm5.245-2.91h2.42v7.468h1.32v-7.476h2.465V80.51h-6.205v1.145zm10.491-1.137-2.772 8.605h1.339l.714-2.454h2.909l.707 2.454h1.395l-2.772-8.605h-1.52zm1.871 5.087h-2.283l.342-1.157c.271-.935.533-1.882.771-2.866h.045c.262.971.513 1.93.806 2.866l.319 1.157zm4.657 3.518h1.319V80.51H241.1v8.613zm9.53-4.595c0 .935.105 1.975.174 2.862h-.094l-.875-1.822-2.756-5.058h-1.351v8.605h1.251v-4.059c0-.935-.106-1.926-.174-2.82h.057l.875 1.8 2.772 5.075h1.352V80.51h-1.251l.02 4.018zm8.792.339c-.19.572-.351 1.157-.545 1.741h-.056c-.194-.584-.364-1.169-.557-1.741l-1.533-4.349h-1.51v8.605h1.183V84.86c0-.77-.105-1.882-.162-2.664h.045l.662 1.987 1.464 4.103h.807l1.452-4.103.671-1.987h.044c-.069.782-.169 1.894-.169 2.664v4.256h1.21V80.51h-1.521l-1.485 4.357zm7.666.326h3.066v-1.152h-3.066v-2.394h3.631V80.51h-4.942v8.605h5.067v-1.148h-3.748l-.008-2.774zm11.516-.665c0 .935.105 1.975.169 2.862h-.056l-.872-1.822-2.772-5.05h-1.364v8.605h1.247v-4.067c0-.935-.101-1.926-.17-2.82h.057l.875 1.8 2.772 5.075h1.352V80.51h-1.251l.013 4.018zm3.84-2.873h2.453v7.468h1.32v-7.476h2.465V80.51h-6.233l-.005 1.145zm11.94 4.602h9.143v-.886h-9.143v.886zM135.229 28.242c0 .294.284.62.844.971.73.404 1.55.618 2.384.621a5.947 5.947 0 0 0 1.614-.266 9.596 9.596 0 0 1 2.151-.266 5.658 5.658 0 0 1 1.844.266c.625.839.926 1.875.848 2.918.014.385-.012.77-.078 1.149a4.783 4.783 0 0 0 1.844 3.712 16.66 16.66 0 0 0 6.149 2.822c2.638.664 5.35.99 8.071.97 1.761.006 3.52-.11 5.264-.35a14.941 14.941 0 0 0 3.882-.975 6.965 6.965 0 0 0 2.958-4.067 20.138 20.138 0 0 0 1.045-6.622 19.465 19.465 0 0 0-.154-2.74.303.303 0 0 0-.306-.263c-.255 0-.642.294-1.154.883a26.665 26.665 0 0 1-3.147 2.74 19.775 19.775 0 0 1-5.112 2.21 21.162 21.162 0 0 1-5.956.886c-3.026 0-5.177-.738-6.455-2.213a4.736 4.736 0 0 1-.614-1.942c-.011-.324.098-.64.307-.887 1.076-.468 3.304-1.352 6.686-2.652l2.38-.883c2.867-1.061 4.302-2.918 4.305-5.57a9.923 9.923 0 0 0-.153-1.677c-.807-1.824-1.704-2.738-2.691-2.74a2.025 2.025 0 0 0-1.155.439 43.22 43.22 0 0 1-3.227 4.244c-2.51 1.88-4.456 3.236-5.839 4.067-.052.06-.205.088-.46.088-.359 0-.541-.266-.541-.806l.154-1.326 1.001-4.51a4.71 4.71 0 0 0-1.537-3.845 5.452 5.452 0 0 0-3.765-1.46 1.927 1.927 0 0 0-1.461.489c-.306.322-.46 1.164-.46 2.519v10.076c-.152 1.18-1.029 1.947-2.614 2.297-1.971.43-3.979.667-5.996.71-.572.306-.856.628-.856.983zm41.729 19.181h-23.515c-1.743.121-2.824.178-3.228.178-3.497 0-5.392-.707-5.685-2.12-.772-5.065-2.335-7.6-4.689-7.602l-1.154.177a2.336 2.336 0 0 0-1.884 1.327 7.659 7.659 0 0 0-.572 3.357l.152 2.74c-.31.944-.449 1.102-.942 1.102l-.885.136c-4.304.177-7.915.472-10.834.883a32.69 32.69 0 0 1-4.842.354 14.16 14.16 0 0 1-2.017-.177 13.021 13.021 0 0 0-3.999-.617c-3.894 0-6.148 2.386-6.762 7.159-.256 1.36.18 2.031 1.308 2.015l.689-.089c2.089-.59 4.142-1.3 6.149-2.124a66.755 66.755 0 0 1 10.088-2.209 82.667 82.667 0 0 1 10.684-.616c1.025-.121 1.69.588 1.997 2.12v14.34c.048 1.828.945 2.741 2.691 2.741a6.491 6.491 0 0 0 3.878-1.237c1.154-.825 1.731-2.303 1.731-4.434a27.888 27.888 0 0 0-.307-3.627 23.484 23.484 0 0 1-.77-6.01 4.506 4.506 0 0 1 .617-2.821 8.188 8.188 0 0 1 3.074-.62 9.628 9.628 0 0 1 2.151.265c3.394.51 6.719 1.4 9.914 2.652a33.686 33.686 0 0 0 8.808 2.491 5.81 5.81 0 0 0 4.995-1.858 22.08 22.08 0 0 0 3.921-6.803v-.267c.008-.596-.249-.862-.762-.806zm-61.939-16.618a11.24 11.24 0 0 0 6.145-2.297 5.257 5.257 0 0 1 2.078-.971c.46 0 .69.322.69.971-.051 1.881-.153 4.326-.306 7.336l-.154 2.918c-.026.95.077 1.899.307 2.821a1.955 1.955 0 0 0 1.92.883 6.242 6.242 0 0 0 3.459-1.105 4.298 4.298 0 0 0 2.017-2.608v-16.61a38.169 38.169 0 0 1 4.305-7.073 2.31 2.31 0 0 0 .459-1.148 1.066 1.066 0 0 0-.459-.883 1.826 1.826 0 0 0-1.155-.355 1.993 1.993 0 0 0-.689.089 23.602 23.602 0 0 0-3.995 2.652 49.88 49.88 0 0 1-16.91 6.364l-3.074.444c-1.279.233-2.049.56-2.304.97-.054 1.648 1.022 3.71 3.228 6.188a8 8 0 0 0 4.438 1.415zm83.38 11.492a28.189 28.189 0 0 0 6.839-.883 1.13 1.13 0 0 0 .771-1.06 1.304 1.304 0 0 0-.307-.883l-8.917-4.865c-3.585-1.88-5.839-3.148-6.762-3.8a5.162 5.162 0 0 0-1.537-.267 3.742 3.742 0 0 0-2.881 1.327 4.49 4.49 0 0 0-1.191 3.095 4.278 4.278 0 0 0 .69 2.386c3.33 3.302 7.762 4.952 13.295 4.95zm21.748-18.738a4.138 4.138 0 0 0 2.921 1.148 4.673 4.673 0 0 0 1.537-.266 2.72 2.72 0 0 0 .307-1.612 13.446 13.446 0 0 0-1.073-4.639 14.35 14.35 0 0 0-2.309-4.16 3.938 3.938 0 0 0-2.226-.882 3.17 3.17 0 0 0-2.228 1.06 7.483 7.483 0 0 0-.847 3.18 6.743 6.743 0 0 0 1.077 3.716 6.488 6.488 0 0 0 2.841 2.455zm-21.671 4.578a21.88 21.88 0 0 0 8.473 1.06c.666-.177 1.001-.471 1.001-.882 0-.295-.23-.65-.69-1.06l-1.691-2.036a43.79 43.79 0 0 0-4.918-5.24 5.945 5.945 0 0 0-3.845-1.543c-.993-.01-1.962.299-2.764.883a3.093 3.093 0 0 0-1.078 2.386 5.434 5.434 0 0 0 1.614 3.579 11.731 11.731 0 0 0 3.898 2.853zm51.427-11.209c-.234-.02-.471.01-.693.09a43.632 43.632 0 0 1-5.072 2.297 69.799 69.799 0 0 0-8.913-.71 4.298 4.298 0 0 0-6.609 2.83l.306 1.237a3.434 3.434 0 0 0 3.152 1.858c1.305-.08 2.583-.41 3.765-.971a18.08 18.08 0 0 1 3.458-.444 13.54 13.54 0 0 1 5.765 1.326 2.792 2.792 0 0 1 .843 2.12c.016.24-.01.48-.077.71-.357 10.138-.561 21.394-.612 33.767-.113.702-.164 1.41-.154 2.12a8.284 8.284 0 0 0 1.38 4.777 4.15 4.15 0 0 0 2.921 1.237 4.078 4.078 0 0 0 2.804-1.148 6.318 6.318 0 0 0 1.808-3.096l-.46-14.852-.154-3.18c-.152-2.242-.23-4.452-.233-6.63.023-5.301.46-10.592 1.307-15.825a8.578 8.578 0 0 0-1.15-5.26c-.931-1.502-2.058-2.253-3.382-2.253zm-46.663 50.83c3.587-.825 6.559-3.095 8.918-6.808a36.964 36.964 0 0 0 4.918-13.87c.379-2.724.584-5.47.614-8.221a57.561 57.561 0 0 0-1.844-14.41c-.772-1.88-1.746-2.82-2.921-2.82l-.921.176a4.326 4.326 0 0 0-1.383 3.535c.001 1.03.136 2.056.403 3.051.254.972.384 1.488.384 1.548a63.84 63.84 0 0 1 .536 7.779 50.42 50.42 0 0 1-1.921 13.966c-2.733 5.943-6.837 9.246-12.314 9.907-.513.117-.718.35-.618.705-.062.32-.087.646-.076.971a4.18 4.18 0 0 0 1.461 3.362 5.501 5.501 0 0 0 3.692 1.237c.36.015.722-.022 1.072-.109zm-1.23-12.024a13.316 13.316 0 0 0 4.305-6.896v-.173c0-.355-.153-.532-.46-.532a78.345 78.345 0 0 1-10.297 2.821 9.128 9.128 0 0 0-4.268 2.173 4.953 4.953 0 0 0-1.804 3.756c.019.898.256 1.777.69 2.563a5.064 5.064 0 0 0 3.611 1.681c2.356 0 5.097-1.797 8.223-5.393zm41.192-1.77h-7.989a5.638 5.638 0 0 1-1.001-3.356 7.788 7.788 0 0 1 .384-2.475 2.943 2.943 0 0 1 2.538-.972l1.997.09c1.845 0 2.768-.709 2.768-2.125a3.651 3.651 0 0 0-.065-.866 18.308 18.308 0 0 0-6.609-1.238 1.952 1.952 0 0 1-.924-1.858c0-.234.052-.766.153-1.592l.154-1.677a.62.62 0 0 1 .617-.532 55.6 55.6 0 0 0 6.916.355c.273-.52.43-1.094.46-1.68a3.323 3.323 0 0 0-.46-1.681 138.452 138.452 0 0 0-15.063-1.589 9.353 9.353 0 0 0-2.384-.443 5.833 5.833 0 0 0-4.535 2.386c0 2.182.795 3.273 2.384 3.273.284.014.569-.016.844-.089a8.124 8.124 0 0 1 3.074-.532c.556.97.848 2.067.847 3.184a9.14 9.14 0 0 1-.23 1.943.557.557 0 0 1-.617.532 5.815 5.815 0 0 0-2.304-.532c-1.794 0-3.177 1.18-4.151 3.539v.173c0 .403.31.71.923.887h5.532c.516 1.234.803 2.552.847 3.89a8.31 8.31 0 0 1-.23 1.942 4.034 4.034 0 0 1-2.824 1.149 4.632 4.632 0 0 1-2.844-1.149c-3.075.177-4.509 1.945-4.302 5.304a2.59 2.59 0 0 0 1.921.887l.92-.177a16.1 16.1 0 0 1 3.458-.71h18.754a4.12 4.12 0 0 0 1.997-3.535.953.953 0 0 0-.956-.725z" stroke="#fff" stroke-width="2"/>
    <path d="M302.356 63.973c-1.019-.736-1.528-2.145-1.528-4.224v-36.09c0-2.224.557-3.702 1.67-4.433a7.298 7.298 0 0 1 3.478-.806v-1.85h-36.705v1.85a7.211 7.211 0 0 1 3.409.89c1.077.742 1.615 2.2 1.614 4.374v36.089c0 2.077-.487 3.46-1.46 4.151a8.606 8.606 0 0 1-3.55 1.036v1.854H306V64.96a8.463 8.463 0 0 1-3.644-.987zm-10.155-4.224c0 1.98-.441 3.34-1.323 4.079a6.37 6.37 0 0 1-3.41 1.108 7.126 7.126 0 0 1-3.272-1.108c-.832-.694-1.249-2.053-1.251-4.08V23.66c0-2.122.441-3.556 1.323-4.3a5.662 5.662 0 0 1 3.059-.963 6.962 6.962 0 0 1 3.409.963c.976.693 1.465 2.127 1.465 4.3v36.09zm-183.432 26.5h9.147v-.878h-9.147v.878zm20.517-2.233h-3.579V80.51h-1.319v8.605h1.319v-3.917h3.579v3.917h1.316V80.51h-1.316v3.506zm9.539 1.496c0 1.942-.771 2.571-1.828 2.571-1.058 0-1.795-.629-1.795-2.571V80.51h-1.316v4.91c0 2.82 1.259 3.844 3.111 3.844 1.852 0 3.103-1.04 3.103-3.845v-4.91h-1.275v5.003zm6.238-5.002-2.772 8.605h1.339l.718-2.454h2.906l.706 2.454h1.395l-2.771-8.605h-1.521zm1.872 5.087h-2.28l.339-1.157c.275-.935.532-1.882.775-2.866h.036c.262.971.509 1.93.807 2.866l.323 1.157zM157.353 83c0-1.858-1.296-2.491-3.022-2.491h-2.736v8.605h1.315v-3.474h1.368l1.897 3.474h1.489l-2.042-3.627A2.387 2.387 0 0 0 157.353 83zm-3.179 1.564h-1.264v-2.959h1.264c1.21 0 1.871.363 1.871 1.403s-.657 1.556-1.871 1.556zm10.893.955c0 1.943-.774 2.571-1.832 2.571-1.057 0-1.791-.628-1.791-2.571v-5.01h-1.319v4.91c0 2.82 1.263 3.844 3.11 3.844 1.848 0 3.103-1.04 3.103-3.845v-4.91h-1.271v5.01zm9.45-.992c0 .935.101 1.975.17 2.862h-.057l-.876-1.822-2.771-5.05h-1.353v8.605h1.251v-4.067c0-.935-.1-1.926-.169-2.82h.057l.859 1.805 2.772 5.074h1.352V80.51h-1.251l.016 4.018zm9.619.657h3.066v-1.144h-3.066v-2.394h3.632V80.51h-4.971v8.605h5.067v-1.148h-3.728v-2.782zm11.519-.665c0 .935.101 1.975.17 2.862h-.056l-.876-1.822-2.772-5.05h-1.352v8.605h1.251v-4.059c0-.935-.105-1.926-.174-2.82h.057l.875 1.8 2.772 5.075h1.352V80.51h-1.266l.019 4.01zm3.837-2.873h2.454v7.468h1.319v-7.468h2.465V80.51h-6.262l.024 1.137zm10.132 3.538h3.066v-1.144h-3.066v-2.394h3.631V80.51h-4.966v8.605h5.063v-1.148h-3.749l.021-2.782zm12.395-2.184c0-1.858-1.296-2.491-3.022-2.491h-2.74v8.605h1.32v-3.474h1.351l1.897 3.474h1.488l-2.045-3.627A2.387 2.387 0 0 0 221.999 83h.02zm-3.183 1.564h-1.259v-2.959h1.259c1.21 0 1.876.363 1.876 1.403s-.666 1.556-1.876 1.556zm5.245-2.91h2.42v7.468h1.32v-7.476h2.465V80.51h-6.205v1.145zm10.491-1.137-2.772 8.605h1.339l.714-2.454h2.909l.707 2.454h1.395l-2.772-8.605h-1.52zm1.871 5.087h-2.283l.342-1.157c.271-.935.533-1.882.771-2.866h.045c.262.971.513 1.93.806 2.866l.319 1.157zm4.657 3.518h1.319V80.51H241.1v8.613zm9.53-4.595c0 .935.105 1.975.174 2.862h-.094l-.875-1.822-2.756-5.058h-1.351v8.605h1.251v-4.059c0-.935-.106-1.926-.174-2.82h.057l.875 1.8 2.772 5.075h1.352V80.51h-1.251l.02 4.018zm8.792.339c-.19.572-.351 1.157-.545 1.741h-.056c-.194-.584-.364-1.169-.557-1.741l-1.533-4.349h-1.51v8.605h1.183V84.86c0-.77-.105-1.882-.162-2.664h.045l.662 1.987 1.464 4.103h.807l1.452-4.103.671-1.987h.044c-.069.782-.169 1.894-.169 2.664v4.256h1.21V80.51h-1.521l-1.485 4.357zm7.666.326h3.066v-1.152h-3.066v-2.394h3.631V80.51h-4.942v8.605h5.067v-1.148h-3.748l-.008-2.774zm11.516-.665c0 .935.105 1.975.169 2.862h-.056l-.872-1.822-2.772-5.05h-1.364v8.605h1.247v-4.067c0-.935-.101-1.926-.17-2.82h.057l.875 1.8 2.772 5.075h1.352V80.51h-1.251l.013 4.018zm3.84-2.873h2.453v7.468h1.32v-7.476h2.465V80.51h-6.233l-.005 1.145zm11.94 4.602h9.143v-.886h-9.143v.886zM135.229 28.242c0 .294.284.62.844.971.73.404 1.55.618 2.384.621a5.947 5.947 0 0 0 1.614-.266 9.596 9.596 0 0 1 2.151-.266 5.658 5.658 0 0 1 1.844.266c.625.839.926 1.875.848 2.918.014.385-.012.77-.078 1.149a4.783 4.783 0 0 0 1.844 3.712 16.66 16.66 0 0 0 6.149 2.822c2.638.664 5.35.99 8.071.97 1.761.006 3.52-.11 5.264-.35a14.941 14.941 0 0 0 3.882-.975 6.965 6.965 0 0 0 2.958-4.067 20.138 20.138 0 0 0 1.045-6.622 19.465 19.465 0 0 0-.154-2.74.303.303 0 0 0-.306-.263c-.255 0-.642.294-1.154.883a26.665 26.665 0 0 1-3.147 2.74 19.775 19.775 0 0 1-5.112 2.21 21.162 21.162 0 0 1-5.956.886c-3.026 0-5.177-.738-6.455-2.213a4.736 4.736 0 0 1-.614-1.942c-.011-.324.098-.64.307-.887 1.076-.468 3.304-1.352 6.686-2.652l2.38-.883c2.867-1.061 4.302-2.918 4.305-5.57a9.923 9.923 0 0 0-.153-1.677c-.807-1.824-1.704-2.738-2.691-2.74a2.025 2.025 0 0 0-1.155.439 43.22 43.22 0 0 1-3.227 4.244c-2.51 1.88-4.456 3.236-5.839 4.067-.052.06-.205.088-.46.088-.359 0-.541-.266-.541-.806l.154-1.326 1.001-4.51a4.71 4.71 0 0 0-1.537-3.845 5.452 5.452 0 0 0-3.765-1.46 1.927 1.927 0 0 0-1.461.489c-.306.322-.46 1.164-.46 2.519v10.076c-.152 1.18-1.029 1.947-2.614 2.297-1.971.43-3.979.667-5.996.71-.572.306-.856.628-.856.983zm41.729 19.181h-23.515c-1.743.121-2.824.178-3.228.178-3.497 0-5.392-.707-5.685-2.12-.772-5.065-2.335-7.6-4.689-7.602l-1.154.177a2.336 2.336 0 0 0-1.884 1.327 7.659 7.659 0 0 0-.572 3.357l.152 2.74c-.31.944-1.827 1.238-1.827 1.238-4.304.177-7.915.472-10.834.883a32.69 32.69 0 0 1-4.842.354 14.16 14.16 0 0 1-2.017-.177 13.021 13.021 0 0 0-3.999-.617c-3.894 0-6.148 2.386-6.762 7.159-.256 1.36.18 2.031 1.308 2.015l.689-.089c2.089-.59 4.142-1.3 6.149-2.124a66.755 66.755 0 0 1 10.088-2.209 82.667 82.667 0 0 1 10.684-.616c1.025-.121 1.69.588 1.997 2.12v14.34c.048 1.828.945 2.741 2.691 2.741a6.491 6.491 0 0 0 3.878-1.237c1.154-.825 1.731-2.303 1.731-4.434a27.888 27.888 0 0 0-.307-3.627 23.484 23.484 0 0 1-.77-6.01 4.506 4.506 0 0 1 .617-2.821 8.188 8.188 0 0 1 3.074-.62 9.628 9.628 0 0 1 2.151.265c3.394.51 6.719 1.4 9.914 2.652a33.686 33.686 0 0 0 8.808 2.491 5.81 5.81 0 0 0 4.995-1.858 22.08 22.08 0 0 0 3.921-6.803v-.267c.008-.596-.249-.862-.762-.806zm-61.939-16.618a11.24 11.24 0 0 0 6.145-2.297 5.257 5.257 0 0 1 2.078-.971c.46 0 .69.322.69.971-.051 1.881-.153 4.326-.306 7.336l-.154 2.918c-.026.95.077 1.899.307 2.821a1.955 1.955 0 0 0 1.92.883 6.242 6.242 0 0 0 3.459-1.105 4.298 4.298 0 0 0 2.017-2.608v-16.61a38.169 38.169 0 0 1 4.305-7.073 2.31 2.31 0 0 0 .459-1.148 1.066 1.066 0 0 0-.459-.883 1.826 1.826 0 0 0-1.155-.355 1.993 1.993 0 0 0-.689.089 23.602 23.602 0 0 0-3.995 2.652 49.88 49.88 0 0 1-16.91 6.364l-3.074.444c-1.279.233-2.049.56-2.304.97-.054 1.648 1.022 3.71 3.228 6.188a8 8 0 0 0 4.438 1.415zm83.38 11.492a28.189 28.189 0 0 0 6.839-.883 1.13 1.13 0 0 0 .771-1.06 1.304 1.304 0 0 0-.307-.883l-8.917-4.865c-3.585-1.88-5.839-3.148-6.762-3.8a5.162 5.162 0 0 0-1.537-.267 3.742 3.742 0 0 0-2.881 1.327 4.49 4.49 0 0 0-1.191 3.095 4.278 4.278 0 0 0 .69 2.386c3.33 3.302 7.762 4.952 13.295 4.95zm21.748-18.738a4.138 4.138 0 0 0 2.921 1.148 4.673 4.673 0 0 0 1.537-.266 2.72 2.72 0 0 0 .307-1.612 13.446 13.446 0 0 0-1.073-4.639 14.35 14.35 0 0 0-2.309-4.16 3.938 3.938 0 0 0-2.226-.882 3.17 3.17 0 0 0-2.228 1.06 7.483 7.483 0 0 0-.847 3.18 6.743 6.743 0 0 0 1.077 3.716 6.488 6.488 0 0 0 2.841 2.455zm-21.671 4.578a21.88 21.88 0 0 0 8.473 1.06c.666-.177 1.001-.471 1.001-.882 0-.295-.23-.65-.69-1.06l-1.691-2.036a43.79 43.79 0 0 0-4.918-5.24 5.945 5.945 0 0 0-3.845-1.543c-.993-.01-1.962.299-2.764.883a3.093 3.093 0 0 0-1.078 2.386 5.434 5.434 0 0 0 1.614 3.579 11.731 11.731 0 0 0 3.898 2.853zm51.427-11.209c-.234-.02-.471.01-.693.09a43.632 43.632 0 0 1-5.072 2.297 69.799 69.799 0 0 0-8.913-.71 4.298 4.298 0 0 0-6.609 2.83l.306 1.237a3.434 3.434 0 0 0 3.152 1.858c1.305-.08 2.583-.41 3.765-.971a18.08 18.08 0 0 1 3.458-.444 13.54 13.54 0 0 1 5.765 1.326 2.792 2.792 0 0 1 .843 2.12c.016.24-.01.48-.077.71-.357 10.138-.561 21.394-.612 33.767-.113.702-.164 1.41-.154 2.12a8.284 8.284 0 0 0 1.38 4.777 4.15 4.15 0 0 0 2.921 1.237 4.078 4.078 0 0 0 2.804-1.148 6.318 6.318 0 0 0 1.808-3.096l-.46-14.852-.154-3.18c-.152-2.242-.23-4.452-.233-6.63.023-5.301.46-10.592 1.307-15.825a8.578 8.578 0 0 0-1.15-5.26c-.931-1.502-2.058-2.253-3.382-2.253zm-46.663 50.83c3.587-.825 6.559-3.095 8.918-6.808a36.964 36.964 0 0 0 4.918-13.87c.379-2.724.584-5.47.614-8.221a57.561 57.561 0 0 0-1.844-14.41c-.772-1.88-1.746-2.82-2.921-2.82l-.921.176a4.326 4.326 0 0 0-1.383 3.535c.001 1.03.136 2.056.403 3.051.254.972.384 1.488.384 1.548a63.84 63.84 0 0 1 .536 7.779 50.42 50.42 0 0 1-1.921 13.966c-2.733 5.943-6.837 9.246-12.314 9.907-.513.117-.718.35-.618.705-.062.32-.087.646-.076.971a4.18 4.18 0 0 0 1.461 3.362 5.501 5.501 0 0 0 3.692 1.237c.36.015.722-.022 1.072-.109zm-1.23-12.024a13.316 13.316 0 0 0 4.305-6.896v-.173c0-.355-.153-.532-.46-.532a78.345 78.345 0 0 1-10.297 2.821 9.128 9.128 0 0 0-4.268 2.173 4.953 4.953 0 0 0-1.804 3.756c.019.898.256 1.777.69 2.563a5.064 5.064 0 0 0 3.611 1.681c2.356 0 5.097-1.797 8.223-5.393zm41.192-1.77h-7.989a5.638 5.638 0 0 1-1.001-3.356 7.788 7.788 0 0 1 .384-2.475 2.943 2.943 0 0 1 2.538-.972l1.997.09c1.845 0 2.768-.709 2.768-2.125a3.651 3.651 0 0 0-.065-.866 18.308 18.308 0 0 0-6.609-1.238 1.952 1.952 0 0 1-.924-1.858c0-.234.052-.766.153-1.592l.154-1.677a.62.62 0 0 1 .617-.532 55.6 55.6 0 0 0 6.916.355c.273-.52.43-1.094.46-1.68a3.323 3.323 0 0 0-.46-1.681 138.452 138.452 0 0 0-15.063-1.589 9.353 9.353 0 0 0-2.384-.443 5.833 5.833 0 0 0-4.535 2.386c0 2.182.795 3.273 2.384 3.273.284.014.569-.016.844-.089a8.124 8.124 0 0 1 3.074-.532c.556.97.848 2.067.847 3.184a9.14 9.14 0 0 1-.23 1.943.557.557 0 0 1-.617.532 5.815 5.815 0 0 0-2.304-.532c-1.794 0-3.177 1.18-4.151 3.539v.173c0 .403.31.71.923.887h5.532c.516 1.234.803 2.552.847 3.89a8.31 8.31 0 0 1-.23 1.942 4.034 4.034 0 0 1-2.824 1.149 4.632 4.632 0 0 1-2.844-1.149c-3.075.177-4.509 1.945-4.302 5.304a2.59 2.59 0 0 0 1.921.887l.92-.177a16.1 16.1 0 0 1 3.458-.71h18.754a4.12 4.12 0 0 0 1.997-3.535.953.953 0 0 0-.956-.725z" fill="url(#w7p0xvyhkf)"/>
    <mask id="n8ke71l1bi" style="mask-type:alpha" maskUnits="userSpaceOnUse" x="21" y="10" width="77" height="73">
        <path d="M88.683 75.862a.359.359 0 0 0-.275-.267 7.246 7.246 0 0 1-4.264-2.698 9.772 9.772 0 0 1-1.476-2.823l.083-.04c.24-.113.587-.284 1.015-.511a32.735 32.735 0 0 0 3.35-2.055 25.729 25.729 0 0 0 7.838-8.352 21.402 21.402 0 0 0-.614-20.81c-5.476-9.418-16.255-13.138-25.574-14.52a74.048 74.048 0 0 0-12.158-.74 69.432 69.432 0 0 0-4.002.191l.005-.001.008-.003a33.647 33.647 0 0 0 4.194-1.757 13.493 13.493 0 0 0 3.889-2.793 9.467 9.467 0 0 0 2.307-5.065c.082-.596.11-1.197.084-1.798a7.695 7.695 0 0 0-.059-.665l-.006-.04-.002-.01V11.1a.36.36 0 0 0-.657-.133l-.005.007-.019.028a7.563 7.563 0 0 1-.458.575 13.241 13.241 0 0 1-1.658 1.567 23.067 23.067 0 0 1-7.833 3.944c-2.102.64-4.97 1.216-7.566 1.724l-.53.104a181.69 181.69 0 0 0-3.008.603 18.34 18.34 0 0 0-2.346.611c-1.988.76-2.79 2.692-3.107 4.326a11.963 11.963 0 0 0-.193 2.85l-.345.132a95.3 95.3 0 0 1-1.527.565c-1.248.449-2.867 1.002-4.358 1.422a73.564 73.564 0 0 1-6.931 1.584l-.113.02-.028.004-.007.002h-.002a.36.36 0 0 0-.3.32v.006l-.001.015-.004.054a12.924 12.924 0 0 0-.03.922c.001.767.07 1.533.203 2.289.315 1.718 1.111 3.755 3.105 4.575 1.48.61 2.744.321 4.345-.224.303-.104.62-.217.956-.337a37.646 37.646 0 0 1 5.688-1.644.942.942 0 0 1 .56.027.618.618 0 0 1 .272.231.897.897 0 0 1 .066.116 37.04 37.04 0 0 0-3.433.808c-2.06.592-4.529 1.521-5.922 2.86a2.882 2.882 0 0 0-.93 2.289c.067.78.316 1.535.727 2.203.344.585.745 1.134 1.198 1.64a11.191 11.191 0 0 0 .587.614l.038.035.01.01.003.002v.001h.001a.36.36 0 0 0 .575-.401v-.003l-.005-.011-.02-.05a5.915 5.915 0 0 1-.242-.859 2.892 2.892 0 0 1 .061-1.63c.23-.4.584-.715 1.008-.895a4.902 4.902 0 0 1 .734-.3l.046-.014.01-.003h.002a.345.345 0 0 0 .054-.02l.003-.001.008-.004.032-.014.128-.058c.114-.05.282-.125.502-.22.44-.189 1.083-.46 1.896-.784a98.045 98.045 0 0 1 6.66-2.378c5.45-1.727 12.532-3.434 19.117-3.386 3.91-.067 7.8.61 11.458 1.995 4.443 1.868 8.148 4.849 9.64 8.604 1.48 3.722.824 8.31-3.67 13.511a23.005 23.005 0 0 1-8.187 5.1c-3.797 1.397-7.93 1.691-10.834-1.08-3.706-3.534-3.44-8.268-2.187-12.211a26.735 26.735 0 0 1 2.197-4.961 27.035 27.035 0 0 1 1.16-1.868l.07-.101.018-.025.004-.006.001-.001a.36.36 0 0 0-.485-.514l-.002.001-.004.003-.015.01-.057.038a20.592 20.592 0 0 0-.988.719 27.1 27.1 0 0 0-2.498 2.194 21.649 21.649 0 0 0-5.329 8.157 19.78 19.78 0 0 0-.875 10.725c.842 3.781 3.123 7.607 7.709 11.143 4.547 3.513 12.671 5.195 19.633 3.709a28.289 28.289 0 0 0 8.254-3.367 35.462 35.462 0 0 0 2.551-1.653 26.448 26.448 0 0 0 .887-.66l.048-.039.013-.01.003-.002.001-.001-.009-.012a.145.145 0 0 1 .01.011.359.359 0 0 0 .123-.363z" fill="url(#4bykvhtspg)" stroke="url(#f62yqimtch)" stroke-width=".8" stroke-linejoin="round"/>
    </mask>
    <g mask="url(#n8ke71l1bi)">
        <path d="M86.66 124.02c14.932 0 27.037-12.118 27.037-27.067 0-14.95-12.105-27.068-27.038-27.068-14.932 0-27.037 12.118-27.037 27.068 0 14.949 12.105 27.067 27.037 27.067z" fill="url(#1t0olazlgj)" fill-opacity=".4" style="mix-blend-mode:overlay"/>
        <path d="M52.036 30.43c21.006 0 38.035-17.048 38.035-38.078 0-21.03-17.029-38.079-38.035-38.079C31.029-45.727 14-28.678 14-7.648S31.03 30.43 52.036 30.43z" fill="url(#y60umqmx0k)" fill-opacity=".6" style="mix-blend-mode:overlay" opacity=".8"/>
        <path d="M114.155 70.803c14.932 0 27.037-12.12 27.037-27.068 0-14.95-12.105-27.068-27.037-27.068-14.933 0-27.038 12.119-27.038 27.068 0 14.949 12.105 27.068 27.038 27.068z" fill="url(#crvgxu9ykl)" fill-opacity=".6" style="mix-blend-mode:overlay"/>
        <circle cx="74.042" cy="83.125" r="40.792" fill="url(#0wjnb4rucm)" fill-opacity=".4"/>
        <path d="M104.99 131.36c22.525 0 40.785-18.28 40.785-40.83 0-22.551-18.26-40.832-40.785-40.832-22.525 0-40.785 18.28-40.785 40.831 0 22.551 18.26 40.831 40.785 40.831z" fill="url(#z7epc541zn)" fill-opacity=".5" style="mix-blend-mode:overlay"/>
    </g>
    <mask id="wb3j3mwj3q" style="mask-type:alpha" maskUnits="userSpaceOnUse" x="25" y="43" width="32" height="46">
        <path d="m56.16 84.15-.095-.025a7.46 7.46 0 0 1-.31-.092 11.71 11.71 0 0 1-1.137-.433 14.942 14.942 0 0 1-3.56-2.218c-2.642-2.207-5.467-6.076-6.103-12.736a27.102 27.102 0 0 1 4.107-17.701 25.247 25.247 0 0 1 3.565-4.358c.495-.48.911-.84 1.202-1.076a11.806 11.806 0 0 1 .422-.329l.117-.1a.319.319 0 0 0 .078-.24v-.002s-.004-.098-.01-.134a1.26 1.26 0 0 0-.069-.274 1.148 1.148 0 0 0-.596-.644 2.057 2.057 0 0 0-1.341-.057 8.517 8.517 0 0 0-2.233.961 14.716 14.716 0 0 0-2.963 2.514 32.014 32.014 0 0 0-2.59 3.083 40.343 40.343 0 0 0-3.729 6.529 56.32 56.32 0 0 0-1.346 3.14l-.073.19-.015.04-.019.033a3.333 3.333 0 0 1-.439.592c-.31.323-.606.464-.875.374a8.666 8.666 0 0 0-.548-.16l-.027-.008a14.036 14.036 0 0 1-.67-.195 2.444 2.444 0 0 1-1.02-.532 1.412 1.412 0 0 1-.317-.894 2.235 2.235 0 0 1 .034-.479l.003-.012.002-.012.001-.004a.375.375 0 0 0 .008-.045v-.002l.002-.007.004-.03.019-.126a12.704 12.704 0 0 1 .543-2.076 8.586 8.586 0 0 1 2.494-3.8 113.073 113.073 0 0 1 1.905-1.518l.085-.065.004-.003.048-.027a6.782 6.782 0 0 0 .793-.53c.527-.367.93-.886 1.153-1.488a1.79 1.79 0 0 0-.466-1.659 3.909 3.909 0 0 0-1.765-1.076 6.573 6.573 0 0 0-5.468.882c-4.005 2.536-9.216 9.017-9.52 17.857-.124 3.647.749 7.743 4.332 12.937 1.617 2.348 4.344 4.02 6.623 5.097a29.745 29.745 0 0 0 3.857 1.498c.108.033.192.058.25.074l.066.019.017.005h.005l.001.001h.001a.399.399 0 0 0 .409-.642l-.002-.002-.006-.008-.026-.03-.1-.123a38.7 38.7 0 0 1-1.636-2.198 31.373 31.373 0 0 1-3.08-5.48 21.88 21.88 0 0 1-1.594-8.299v-.002l.004-.043a2.698 2.698 0 0 1 .154-.67.98.98 0 0 1 .721-.718c.443-.015.883.073 1.286.257.205.076.406.16.601.24l.127.054c.214.092.433.173.655.244h.002a1.471 1.471 0 0 1 .976 1.009 2.87 2.87 0 0 1 .152.768l.002.046v.011l.001.02.001.015v.006l.002.015.006.057.024.218c.021.19.055.465.105.81.1.69.264 1.662.518 2.794a28.807 28.807 0 0 0 2.845 7.75 19.895 19.895 0 0 0 4.925 6.034 6.556 6.556 0 0 0 4.598 1.62 4.542 4.542 0 0 0 3.606-2.167 4.603 4.603 0 0 0 .584-1.664c.007-.05.012-.09.014-.12a.415.415 0 0 0-.31-.462zm-.084.389.399.022z" fill="url(#9eqwpeu6uo)"/>
        <path d="m56.076 84.539.399.022m-.314-.412-.096-.024a7.46 7.46 0 0 1-.31-.092 11.71 11.71 0 0 1-1.137-.433 14.942 14.942 0 0 1-3.56-2.218c-2.642-2.207-5.467-6.076-6.103-12.736a27.102 27.102 0 0 1 4.107-17.701 25.247 25.247 0 0 1 3.565-4.358c.495-.48.911-.84 1.202-1.076a11.806 11.806 0 0 1 .422-.329l.117-.1a.319.319 0 0 0 .078-.24v-.002s-.004-.098-.01-.134a1.26 1.26 0 0 0-.069-.274 1.148 1.148 0 0 0-.596-.644 2.057 2.057 0 0 0-1.341-.057 8.517 8.517 0 0 0-2.233.961 14.716 14.716 0 0 0-2.963 2.514 32.014 32.014 0 0 0-2.59 3.083 40.343 40.343 0 0 0-3.729 6.529 56.32 56.32 0 0 0-1.346 3.14l-.073.19-.015.04-.019.033a3.333 3.333 0 0 1-.439.592c-.31.323-.606.464-.875.374a8.666 8.666 0 0 0-.548-.16l-.027-.008a14.036 14.036 0 0 1-.67-.195 2.444 2.444 0 0 1-1.02-.532 1.412 1.412 0 0 1-.317-.894 2.235 2.235 0 0 1 .034-.479l.003-.012.002-.012.001-.004a.375.375 0 0 0 .008-.045v-.002l.002-.007.004-.03.019-.126a12.704 12.704 0 0 1 .543-2.076 8.586 8.586 0 0 1 2.494-3.8 113.073 113.073 0 0 1 1.905-1.518l.085-.065.004-.003.048-.027a6.782 6.782 0 0 0 .793-.53c.527-.367.93-.886 1.153-1.488a1.79 1.79 0 0 0-.466-1.659 3.909 3.909 0 0 0-1.765-1.076 6.573 6.573 0 0 0-5.468.882c-4.005 2.536-9.216 9.017-9.52 17.857-.124 3.647.749 7.743 4.332 12.937 1.617 2.348 4.344 4.02 6.623 5.097a29.745 29.745 0 0 0 3.857 1.498c.108.033.192.058.25.074l.066.019.017.005h.005l.001.001h.001a.399.399 0 0 0 .409-.642l-.002-.002-.006-.008-.026-.03-.1-.123a38.7 38.7 0 0 1-1.636-2.198 31.373 31.373 0 0 1-3.08-5.48 21.88 21.88 0 0 1-1.594-8.299v-.002l.004-.043a2.698 2.698 0 0 1 .154-.67.98.98 0 0 1 .721-.718c.443-.015.883.073 1.286.257.205.076.406.16.601.24l.127.054c.214.092.433.173.655.244h.002a1.471 1.471 0 0 1 .976 1.009 2.87 2.87 0 0 1 .152.768l.002.046v.011l.001.02.001.015v.006l.002.015.006.057.024.218c.021.19.055.465.105.81.1.69.264 1.662.518 2.794a28.807 28.807 0 0 0 2.845 7.75 19.895 19.895 0 0 0 4.925 6.034 6.556 6.556 0 0 0 4.598 1.62 4.542 4.542 0 0 0 3.606-2.167 4.603 4.603 0 0 0 .584-1.664c.007-.05.012-.09.014-.12a.415.415 0 0 0-.31-.462z" stroke="url(#fx72exjnlp)" stroke-width=".8" stroke-linejoin="round"/>
    </mask>
    <g mask="url(#wb3j3mwj3q)">
        <path d="M33.5 126.771c14.933 0 27.038-12.118 27.038-27.067 0-14.95-12.105-27.068-27.037-27.068-14.932 0-27.037 12.118-27.037 27.068 0 14.949 12.105 27.067 27.037 27.067z" fill="url(#fwp8igiofr)" style="mix-blend-mode:overlay"/>
    </g>
    <path d="M58.162 46.03a27.13 27.13 0 0 0-2.498 2.194 21.65 21.65 0 0 0-5.329 8.157 19.78 19.78 0 0 0-.875 10.725c.842 3.781 3.123 7.607 7.709 11.143 4.547 3.513 12.671 5.195 19.633 3.709a28.286 28.286 0 0 0 8.254-3.367 35.458 35.458 0 0 0 2.551-1.653 26.284 26.284 0 0 0 .887-.66l.048-.039.013-.01.003-.003h.001a.145.145 0 0 1 0 0 .358.358 0 0 0-.151-.632c-.106-.022-.21-.054-.314-.08-15.452 4.775-27.557 3.43-34.43-5.17-5.685-7.116-1.21-16.817 5.331-24.927l-.06.04c-.184.13-.449.322-.773.572zM31.21 54.286c1.99-3.7 6.215-6.529 9.012-7.9a6.608 6.608 0 0 0-5.258.936c-4.004 2.535-9.215 9.016-9.518 17.856-.125 3.647.748 7.743 4.33 12.937 1.618 2.348 4.345 4.02 6.624 5.097a29.735 29.735 0 0 0 3.857 1.499l.25.073.066.019.017.005.005.001h.002a.387.387 0 0 0 .381-.122l-.145-.122c-15.58-10.552-13.818-22.48-9.623-30.279zM51.831 23.09h1.185a32.349 32.349 0 0 0 3.797-1.614 13.49 13.49 0 0 0 3.89-2.793 9.468 9.468 0 0 0 2.306-5.066c.082-.595.11-1.196.084-1.797a7.631 7.631 0 0 0-.04-.522l-.002-.014c-1.453 4.83-7.942 9.808-11.22 11.805z" fill="#fff"/>
    <path d="M39.224 68.983c.01.077.014.14.017.183l.002.046v.031l.001.015v.006l.002.015.006.057.024.218c.021.19.055.465.105.81.1.69.264 1.662.518 2.794a28.804 28.804 0 0 0 2.845 7.75 19.894 19.894 0 0 0 4.925 6.034 6.555 6.555 0 0 0 4.598 1.621 4.543 4.543 0 0 0 3.606-2.168 4.603 4.603 0 0 0 .584-1.664l.004-.033a6.511 6.511 0 0 1-6.004.784C44.957 83.28 40.527 72.636 39 67.59c0 .205.01.43.02.656.023.05.05.1.068.152.066.19.111.385.136.585zM68.787 36.393c-12.373-3.211-30.245 1.855-34.37 3.67-4.124 1.816-5.44 2.753-4.705 5.91a2.335 2.335 0 0 1 .131-1.08c.23-.4.584-.715 1.008-.895a4.904 4.904 0 0 1 .734-.3l.045-.014.011-.003h.002a.35.35 0 0 0 .054-.02l.003-.002.008-.003.032-.015.128-.057c.113-.05.282-.125.502-.22.44-.189 1.082-.46 1.896-.785a97.998 97.998 0 0 1 6.66-2.378c5.45-1.727 12.532-3.434 19.116-3.385 3.912-.067 7.8.61 11.459 1.994 4.443 1.869 8.148 4.85 9.64 8.604.183.46.332.934.446 1.416.02-.169.031-.339.031-.509-.152-2.905-2.933-9.359-12.831-11.928z" fill="#fff"/>
    <path d="M88.683 75.862a.359.359 0 0 0-.275-.267 7.246 7.246 0 0 1-4.264-2.698 9.772 9.772 0 0 1-1.476-2.823l.083-.04c.24-.113.587-.284 1.015-.511a32.735 32.735 0 0 0 3.35-2.055 25.729 25.729 0 0 0 7.838-8.352 21.402 21.402 0 0 0-.614-20.81c-5.476-9.418-16.255-13.138-25.574-14.52a74.048 74.048 0 0 0-12.158-.74 69.432 69.432 0 0 0-4.002.191l.005-.001.008-.003a33.647 33.647 0 0 0 4.194-1.757 13.493 13.493 0 0 0 3.889-2.793 9.467 9.467 0 0 0 2.307-5.065c.082-.596.11-1.197.084-1.798a7.695 7.695 0 0 0-.059-.665l-.006-.04-.002-.01V11.1a.36.36 0 0 0-.657-.133l-.005.007-.019.028a7.563 7.563 0 0 1-.458.575 13.241 13.241 0 0 1-1.658 1.567 23.067 23.067 0 0 1-7.833 3.944c-2.102.64-4.97 1.216-7.566 1.724l-.53.104a181.69 181.69 0 0 0-3.008.603 18.34 18.34 0 0 0-2.346.611c-1.988.76-2.79 2.692-3.107 4.326a11.963 11.963 0 0 0-.193 2.85l-.345.132a95.3 95.3 0 0 1-1.527.565c-1.248.449-2.867 1.002-4.358 1.422a73.564 73.564 0 0 1-6.931 1.584l-.113.02-.028.004-.007.002h-.002a.36.36 0 0 0-.3.32v.006l-.001.015-.004.054a12.924 12.924 0 0 0-.03.922c.001.767.07 1.533.203 2.289.315 1.718 1.111 3.755 3.105 4.575 1.48.61 2.744.321 4.345-.224.303-.104.62-.217.956-.337a37.646 37.646 0 0 1 5.688-1.644.942.942 0 0 1 .56.027.618.618 0 0 1 .272.231.897.897 0 0 1 .066.116 37.04 37.04 0 0 0-3.433.808c-2.06.592-4.529 1.521-5.922 2.86a2.882 2.882 0 0 0-.93 2.289c.067.78.316 1.535.727 2.203.344.585.745 1.134 1.198 1.64a11.191 11.191 0 0 0 .587.614l.038.035.01.01.003.002v.001h.001a.36.36 0 0 0 .575-.401v-.003l-.005-.011-.02-.05a5.915 5.915 0 0 1-.242-.859 2.892 2.892 0 0 1 .061-1.63c.23-.4.584-.715 1.008-.895a4.902 4.902 0 0 1 .734-.3l.046-.014.01-.003h.002a.345.345 0 0 0 .054-.02l.003-.001.008-.004.032-.014.128-.058c.114-.05.282-.125.502-.22.44-.189 1.083-.46 1.896-.784a98.045 98.045 0 0 1 6.66-2.378c5.45-1.727 12.532-3.434 19.117-3.386 3.91-.067 7.8.61 11.458 1.995 4.443 1.868 8.148 4.849 9.64 8.604 1.48 3.722.824 8.31-3.67 13.511a23.005 23.005 0 0 1-8.187 5.1c-3.797 1.397-7.93 1.691-10.834-1.08-3.706-3.534-3.44-8.268-2.187-12.211a26.735 26.735 0 0 1 2.197-4.961 27.035 27.035 0 0 1 1.16-1.868l.07-.101.018-.025.004-.006.001-.001a.36.36 0 0 0-.485-.514l-.002.001-.004.003-.015.01-.057.038a20.592 20.592 0 0 0-.988.719 27.1 27.1 0 0 0-2.498 2.194 21.649 21.649 0 0 0-5.329 8.157 19.78 19.78 0 0 0-.875 10.725c.842 3.781 3.123 7.607 7.709 11.143 4.547 3.513 12.671 5.195 19.633 3.709a28.289 28.289 0 0 0 8.254-3.367 35.462 35.462 0 0 0 2.551-1.653 26.448 26.448 0 0 0 .887-.66l.048-.039.013-.01.003-.002.001-.001-.009-.012a.145.145 0 0 1 .01.011.359.359 0 0 0 .123-.363z" stroke="url(#0jkawyck3s)" stroke-width=".8" stroke-linejoin="round"/>
    <path d="m56.076 84.539.399.022m-.314-.412-.096-.024a7.46 7.46 0 0 1-.31-.092 11.71 11.71 0 0 1-1.137-.433 14.942 14.942 0 0 1-3.56-2.218c-2.642-2.207-5.467-6.076-6.103-12.736a27.102 27.102 0 0 1 4.107-17.701 25.247 25.247 0 0 1 3.565-4.358c.495-.48.911-.84 1.202-1.076a11.806 11.806 0 0 1 .422-.329l.117-.1a.319.319 0 0 0 .078-.24v-.002s-.004-.098-.01-.134a1.26 1.26 0 0 0-.069-.274 1.148 1.148 0 0 0-.596-.644 2.057 2.057 0 0 0-1.341-.057 8.517 8.517 0 0 0-2.233.961 14.716 14.716 0 0 0-2.963 2.514 32.014 32.014 0 0 0-2.59 3.083 40.343 40.343 0 0 0-3.729 6.529 56.32 56.32 0 0 0-1.346 3.14l-.073.19-.015.04-.019.033a3.333 3.333 0 0 1-.439.592c-.31.323-.606.464-.875.374a8.666 8.666 0 0 0-.548-.16l-.027-.008a14.036 14.036 0 0 1-.67-.195 2.444 2.444 0 0 1-1.02-.532 1.412 1.412 0 0 1-.317-.894 2.235 2.235 0 0 1 .034-.479l.003-.012.002-.012.001-.004a.379.379 0 0 0 .008-.045v-.002l.002-.007.004-.03.019-.126a12.704 12.704 0 0 1 .543-2.076 8.586 8.586 0 0 1 2.494-3.8 113.073 113.073 0 0 1 1.905-1.518l.085-.065.004-.003.048-.027a6.782 6.782 0 0 0 .793-.53c.527-.367.93-.886 1.153-1.488a1.79 1.79 0 0 0-.466-1.659 3.909 3.909 0 0 0-1.765-1.076 6.573 6.573 0 0 0-5.468.882c-4.005 2.536-9.216 9.017-9.52 17.857-.124 3.647.749 7.743 4.332 12.937 1.617 2.348 4.344 4.02 6.623 5.097a29.745 29.745 0 0 0 3.857 1.498c.108.033.192.058.25.074l.066.019.017.005h.005l.001.001h.001a.399.399 0 0 0 .409-.642l-.002-.002-.006-.008-.026-.03-.1-.123a38.7 38.7 0 0 1-1.636-2.198 31.373 31.373 0 0 1-3.08-5.48 21.88 21.88 0 0 1-1.594-8.299v-.002l.004-.043a2.698 2.698 0 0 1 .154-.67.98.98 0 0 1 .721-.718c.443-.015.883.073 1.286.257.205.076.406.16.601.24l.127.054c.214.092.433.173.655.244h.002a1.471 1.471 0 0 1 .976 1.009 2.87 2.87 0 0 1 .152.768l.002.046v.011l.001.02.001.015v.006l.002.015.006.057.024.218c.021.19.055.465.105.81.1.69.264 1.662.518 2.794a28.807 28.807 0 0 0 2.845 7.75 19.895 19.895 0 0 0 4.925 6.034 6.556 6.556 0 0 0 4.598 1.62 4.542 4.542 0 0 0 3.606-2.167 4.606 4.606 0 0 0 .584-1.664c.007-.05.012-.09.014-.12a.415.415 0 0 0-.31-.462z" stroke="url(#ga83i3ay8t)" stroke-width=".8" stroke-linejoin="round"/>
    <defs>
        <linearGradient id="ev74kqn9sb" x1="44.585" y1="72.554" x2="94.999" y2="-15.786" gradientUnits="userSpaceOnUse">
            <stop stop-color="#1B1155"/>
            <stop offset="1" stop-color="#0064FB"/>
        </linearGradient>
        <linearGradient id="sbvd93wpfc" x1="59.678" y1="11.172" x2="59.678" y2="82.129" gradientUnits="userSpaceOnUse">
            <stop stop-color="#E6F9FF"/>
            <stop offset="1" stop-color="#D3CCFF"/>
        </linearGradient>
        <linearGradient id="gj7rerlugd" x1="29.997" y1="80.485" x2="84.087" y2="32.757" gradientUnits="userSpaceOnUse">
            <stop stop-color="#23176A"/>
            <stop offset="1" stop-color="#026CE8"/>
        </linearGradient>
        <linearGradient id="gxmrgxni1e" x1="40.953" y1="44.098" x2="40.953" y2="88.142" gradientUnits="userSpaceOnUse">
            <stop stop-color="#E6F9FF"/>
            <stop offset="1" stop-color="#D3CCFF"/>
        </linearGradient>
        <linearGradient id="w7p0xvyhkf" x1="124.292" y1="15.714" x2="306.828" y2="94.141" gradientUnits="userSpaceOnUse">
            <stop stop-color="#0E3CAA"/>
            <stop offset="1" stop-color="#191963"/>
        </linearGradient>
        <linearGradient id="4bykvhtspg" x1="44.585" y1="72.554" x2="94.999" y2="-15.786" gradientUnits="userSpaceOnUse">
            <stop stop-color="#1B1155"/>
            <stop offset="1" stop-color="#0064FB"/>
        </linearGradient>
        <linearGradient id="f62yqimtch" x1="59.678" y1="11.172" x2="59.678" y2="82.129" gradientUnits="userSpaceOnUse">
            <stop stop-color="#E6F9FF"/>
            <stop offset="1" stop-color="#D3CCFF"/>
        </linearGradient>
        <linearGradient id="9eqwpeu6uo" x1="29.997" y1="80.485" x2="84.087" y2="32.757" gradientUnits="userSpaceOnUse">
            <stop stop-color="#23176A"/>
            <stop offset="1" stop-color="#026CE8"/>
        </linearGradient>
        <linearGradient id="fx72exjnlp" x1="40.953" y1="44.098" x2="40.953" y2="88.142" gradientUnits="userSpaceOnUse">
            <stop stop-color="#E6F9FF"/>
            <stop offset="1" stop-color="#D3CCFF"/>
        </linearGradient>
        <linearGradient id="0jkawyck3s" x1="59.678" y1="11.172" x2="59.678" y2="82.129" gradientUnits="userSpaceOnUse">
            <stop stop-color="#E6F9FF"/>
            <stop offset="1" stop-color="#D3CCFF"/>
        </linearGradient>
        <linearGradient id="ga83i3ay8t" x1="40.953" y1="44.098" x2="40.953" y2="88.142" gradientUnits="userSpaceOnUse">
            <stop stop-color="#E6F9FF"/>
            <stop offset="1" stop-color="#D3CCFF"/>
        </linearGradient>
        <radialGradient id="1t0olazlgj" cx="0" cy="0" r="1" gradientUnits="userSpaceOnUse" gradientTransform="matrix(0 27.0677 -27.0373 0 86.66 96.953)">
            <stop offset=".688" stop-color="#fff" stop-opacity="0"/>
            <stop offset="1" stop-color="#828FFB"/>
        </radialGradient>
        <radialGradient id="y60umqmx0k" cx="0" cy="0" r="1" gradientUnits="userSpaceOnUse" gradientTransform="matrix(0 17.9299 -17.9098 0 52.036 12.5)">
            <stop stop-color="#fff" stop-opacity="0"/>
            <stop offset=".979" stop-color="#1854D2"/>
        </radialGradient>
        <radialGradient id="crvgxu9ykl" cx="0" cy="0" r="1" gradientUnits="userSpaceOnUse" gradientTransform="matrix(0 27.0677 -27.0373 0 114.155 43.735)">
            <stop offset=".583" stop-color="#1247BB"/>
            <stop offset="1" stop-color="#1758D6"/>
        </radialGradient>
        <radialGradient id="0wjnb4rucm" cx="0" cy="0" r="1" gradientUnits="userSpaceOnUse" gradientTransform="rotate(90 -4.542 78.583) scale(40.7917)">
            <stop offset=".542" stop-color="#fff" stop-opacity="0"/>
            <stop offset="1" stop-color="#4A79E9"/>
        </radialGradient>
        <radialGradient id="z7epc541zn" cx="0" cy="0" r="1" gradientUnits="userSpaceOnUse" gradientTransform="matrix(10.98965 57.85988 -91.8898 17.45313 94 73.5)">
            <stop stop-color="#2048CB"/>
            <stop offset=".214" stop-color="#2C3FEF"/>
            <stop offset=".385" stop-color="#72AAFF"/>
        </radialGradient>
        <radialGradient id="fwp8igiofr" cx="0" cy="0" r="1" gradientUnits="userSpaceOnUse" gradientTransform="matrix(0 27.0677 -27.0373 0 33.5 99.703)">
            <stop stop-color="#fff" stop-opacity="0"/>
            <stop offset=".745" stop-color="#181387" stop-opacity="0"/>
            <stop offset="1" stop-color="#5A53FF"/>
        </radialGradient>
        <filter id="rgdih0u5la" x="15.6" y="4.401" width="88.157" height="90.567" filterUnits="userSpaceOnUse" color-interpolation-filters="sRGB">
            <feFlood flood-opacity="0" result="BackgroundImageFix"/>
            <feColorMatrix in="SourceAlpha" values="0 0 0 0 0 0 0 0 0 0 0 0 0 0 0 0 0 0 127 0" result="hardAlpha"/>
            <feOffset/>
            <feGaussianBlur stdDeviation="3"/>
            <feComposite in2="hardAlpha" operator="out"/>
            <feColorMatrix values="0 0 0 0 0.760784 0 0 0 0 0.843137 0 0 0 0 1 0 0 0 0.8 0"/>
            <feBlend in2="BackgroundImageFix" result="effect1_dropShadow_201_16246"/>
            <feColorMatrix in="SourceAlpha" values="0 0 0 0 0 0 0 0 0 0 0 0 0 0 0 0 0 0 127 0" result="hardAlpha"/>
            <feOffset/>
            <feGaussianBlur stdDeviation="1"/>
            <feComposite in2="hardAlpha" operator="out"/>
            <feColorMatrix values="0 0 0 0 0.839216 0 0 0 0 0.760784 0 0 0 0 1 0 0 0 1 0"/>
            <feBlend in2="effect1_dropShadow_201_16246" result="effect2_dropShadow_201_16246"/>
            <feBlend in="SourceGraphic" in2="effect2_dropShadow_201_16246" result="shape"/>
        </filter>
    </defs>
</svg>
