<?xml version="1.0" encoding="UTF-8"?>
<svg width="185px" height="185px" viewBox="0 0 185 185" version="1.1" xmlns="http://www.w3.org/2000/svg" xmlns:xlink="http://www.w3.org/1999/xlink">
    <title>加拿大西部5分彩</title>
    <g id="加拿大西部5分彩" stroke="none" stroke-width="1" fill="none" fill-rule="evenodd">
        <g id="Group" transform="translate(5.000000, 5.000000)">
            <circle id="Oval" fill="#BF590A" cx="7.5" cy="21.5" r="7.5"></circle>
            <polygon id="Path-3" fill="#F37E00" transform="translate(70.931150, 147.830355) rotate(-7.000000) translate(-70.931150, -147.830355) " points="43.9460451 156.604022 99.8258059 156.039828 114.3932 139.056689 27.4690991 140.490846"></polygon>
            <circle id="Oval" fill="#BF590A" cx="161.5" cy="161.5" r="4.5"></circle>
            <polygon id="Path-4" fill="#FCA446" transform="translate(73.100456, 120.093416) rotate(-7.000000) translate(-73.100456, -120.093416) " points="21.578187 132.019728 11.3378598 108.167105 134.863053 112.803887 119.338668 131.59943"></polygon>
            <polygon id="Path-5" fill="#F8CA44" transform="translate(80.628953, 90.865805) rotate(-7.000000) translate(-80.628953, -90.865805) " points="5.54178765 77.2476689 156.317854 78.12922 135.75124 104.483941 4.94005269 99.8123092"></polygon>
            <path d="M88.5,0 C136.272631,0 175,38.7273691 175,86.5 C175,134.272631 136.272631,173 88.5,173 C40.7273691,173 2,134.272631 2,86.5 C2,38.7273691 40.7273691,0 88.5,0 Z M88.5,6 C44.0410776,6 8,42.0410776 8,86.5 C8,130.958922 44.0410776,167 88.5,167 C132.958922,167 169,130.958922 169,86.5 C169,42.0410776 132.958922,6 88.5,6 Z" id="Oval" fill="#FA8200" fill-rule="nonzero"></path>
            <path d="M137,68.0007441 C137,42.5952346 114.112874,22 85.8801722,22 C73.4190507,22 58.7185882,25.4596253 50.335946,34.5206707 C39.7263465,45.9889003 37,64.807769 37,79" id="Path" fill="#F46227"></path>
        </g>
        <path d="M21.2,102.44 C22.68,102.36 23.84,102.22 24.68,102.02 C25.8,101.78 26.7,101.42 27.38,100.94 C28.18,100.38 28.94,99.56 29.66,98.48 C30.54,97.16 31.16,93.96 31.52,88.88 C31.88,84.32 32.2,75.74 32.48,63.14 C32.52,60.9 32.28,59.3 31.76,58.34 C31.32,57.54 30.6,57.14 29.6,57.14 L29.6,57.14 L19.88,57.14 C19.915,56.16 19.9346875,54.7053125 19.9390625,52.7759375 L19.94,51.92 C19.94,49.04 18.52,47.6 15.68,47.6 C12.84,47.6 11.42,49.02 11.42,51.86 L11.42,51.86 L11.42,57.14 L9.44,57.14 C6.6,57.14 5.18,58.56 5.18,61.4 C5.18,64.24 6.6,65.66 9.44,65.66 L9.44,65.66 L11.3,65.66 C11.18,71.98 10.74,77.18 9.98,81.26 C9.1,86.14 7.68,90.26 5.72,93.62 C4.8,94.94 4.36,96.08 4.4,97.04 C4.44,98 5.02,99.06 6.14,100.22 C7.38,101.5 8.52,102.04 9.56,101.84 C10.52,101.68 11.52,100.82 12.56,99.26 C13.68,97.34 14.54,95.58 15.14,93.98 C15.94,95.54 16.54,97.28 16.94,99.2 C17.1,100.2 17.55,100.99 18.29,101.57 C19.03,102.15 20,102.44 21.2,102.44 Z M53.6,98.24 C54.76,98.24 55.7,97.88 56.42,97.16 C57.14,96.44 57.5,95.5 57.5,94.34 L57.5,94.34 L57.5,57.14 C57.5,55.98 57.14,55.04 56.42,54.32 C55.7,53.6 54.76,53.24 53.6,53.24 L53.6,53.24 L38.96,53.24 C37.8,53.24 36.86,53.6 36.14,54.32 C35.42,55.04 35.06,55.98 35.06,57.14 L35.06,57.14 L35.06,94.34 C35.06,95.5 35.42,96.44 36.14,97.16 C36.86,97.88 37.8,98.24 38.96,98.24 L38.96,98.24 L53.6,98.24 Z M47.36,89.84 L44.78,89.84 C43.82,89.84 43.34,89.36 43.34,88.4 L43.34,88.4 L43.34,63.08 C43.34,62.12 43.82,61.64 44.78,61.64 L44.78,61.64 L47.36,61.64 C48.32,61.64 48.8,62.12 48.8,63.08 L48.8,63.08 L48.8,88.4 C48.8,89.36 48.32,89.84 47.36,89.84 L47.36,89.84 Z M20.12,93.92 C18.64,93.92 17,93.84 15.2,93.68 C16.6,90.04 17.68,85.76 18.44,80.84 C19.08,76.16 19.5,71.1 19.7,65.66 L19.7,65.66 L22.64,65.66 C23.16,65.66 23.52,65.84 23.72,66.2 C23.96,66.6 24.06,67.36 24.02,68.48 C23.82,76.84 23.58,82.74 23.3,86.18 C23.02,89.82 22.64,92 22.16,92.72 C21.64,93.52 20.96,93.92 20.12,93.92 Z M68.06,62.72 C68.82,62.96 69.78,62.92 70.94,62.6 C73.54,61.8 76.06,60.9 78.5,59.9 L78.5,59.9 L78.5,60.08 C78.5,61.36 79.14,62 80.42,62 L80.42,62 L105.14,62 C105.62,62 105.86,61.76 105.86,61.28 L105.86,61.28 L105.86,60.2 C108.14,61.12 110.32,61.88 112.4,62.48 C113.56,62.8 114.53,62.83 115.31,62.57 C116.09,62.31 116.8,61.68 117.44,60.68 C118.48,59.12 118.74,57.88 118.22,56.96 C117.74,56.12 116.52,55.5 114.56,55.1 C107.52,53.38 101.54,50.9 96.62,47.66 C95.74,47.02 94.7,46.7 93.5,46.7 L93.5,46.7 L89.3,46.7 C88.06,46.7 87.04,47.02 86.24,47.66 C82.12,50.7 76.4,53.28 69.08,55.4 C65.36,56.32 64.32,58.14 65.96,60.86 C66.56,61.86 67.26,62.48 68.06,62.72 Z M98.78,57.08 L84.62,57.08 C87.34,55.68 89.68,54.22 91.64,52.7 C93.72,54.3 96.1,55.76 98.78,57.08 L98.78,57.08 Z M85.6668047,103.705217 L85.94,103.7 C88.82,103.62 91.1,103.3 92.78,102.74 C94.1,102.22 95.02,101.5 95.54,100.58 C96.06,99.66 96.32,98.26 96.32,96.38 L96.32,96.38 L96.32,95.6 L116.42,95.6 C118.34,95.6 119.3,94.64 119.3,92.72 C119.3,90.8 118.34,89.84 116.42,89.84 L116.42,89.84 L96.32,89.84 L96.32,88.4 L112.46,88.4 C114.34,88.4 115.28,87.44 115.28,85.52 C115.28,83.64 114.34,82.7 112.46,82.7 L112.46,82.7 L96.32,82.7 L96.32,80.84 C101.48,80.52 105.96,80.08 109.76,79.52 C110.56,79.4 111.01,79.12 111.11,78.68 C111.21,78.24 110.9,77.72 110.18,77.12 L110.18,77.12 L107.54,74.84 L107.72,74.84 C108.52,74.84 109.16,74.6 109.64,74.12 C110.12,73.64 110.36,73 110.36,72.2 L110.36,72.2 L110.36,67.22 C110.36,66.06 110,65.12 109.28,64.4 C108.56,63.68 107.62,63.32 106.46,63.32 L106.46,63.32 L77.48,63.32 C76.32,63.32 75.38,63.68 74.66,64.4 C73.94,65.12 73.58,66.06 73.58,67.22 L73.58,67.22 L73.58,70.94 C73.58,72.1 73.94,73.04 74.66,73.76 C75.38,74.48 76.32,74.84 77.48,74.84 L77.48,74.84 L105.2,74.84 C97.2,75.88 86.84,76.36 74.12,76.28 C71.8,76.2 70.88,77.16 71.36,79.16 C71.72,80.6 72.7,81.34 74.3,81.38 C78.22,81.42 82.72,81.38 87.8,81.26 L87.8,81.26 L87.8,82.7 L72.08,82.7 C70.2,82.7 69.26,83.64 69.26,85.52 C69.26,87.44 70.2,88.4 72.08,88.4 L72.08,88.4 L87.8,88.4 L87.8,89.84 L67.64,89.84 C65.72,89.84 64.76,90.8 64.76,92.72 C64.76,94.64 65.72,95.6 67.64,95.6 L67.64,95.6 L87.8,95.6 L87.8,96.14 C87.8,96.82 87.36,97.18 86.48,97.22 L86.48,97.22 L85.16,97.22 C81.44,97.14 80.14,98.46 81.26,101.18 C81.98,102.94 83.54,103.78 85.94,103.7 L85.6668047,103.705217 Z M100.94,69.92 L82.28,69.92 C81.84,69.92 81.62,69.7 81.62,69.26 L81.62,69.26 L81.62,69.08 C81.62,68.52 81.9,68.24 82.46,68.24 L82.46,68.24 L101.12,68.24 C101.56,68.24 101.78,68.46 101.78,68.9 L101.78,68.9 L101.78,69.08 C101.78,69.64 101.5,69.92 100.94,69.92 L100.94,69.92 Z M169.1,100.94 C172.18,102.62 174.64,102.28 176.48,99.92 C177.8,98.24 178.2,96.72 177.68,95.36 C177.2,94.16 175.92,93.02 173.84,91.94 C166.92,87.5 161.8,80.62 158.48,71.3 L158.48,71.3 L174.2,71.3 C177.2,71.3 178.7,69.78 178.7,66.74 C178.7,63.74 177.2,62.24 174.2,62.24 L174.2,62.24 L155.84,62.24 C156.12,59.32 156.3,55.7 156.38,51.38 C156.42,48.26 154.84,46.7 151.64,46.7 C148.52,46.7 146.94,48.22 146.9,51.26 C146.9,55.66 146.78,59.32 146.54,62.24 L146.54,62.24 L129.92,62.24 C126.92,62.24 125.42,63.74 125.42,66.74 C125.42,69.78 126.92,71.3 129.92,71.3 L129.92,71.3 L145.1,71.3 C142.98,80.22 138.34,87.16 131.18,92.12 C126.62,94.68 125.58,97.4 128.06,100.28 C129.9,102.36 132.46,102.48 135.74,100.64 C143.5,95.6 148.98,88.72 152.18,80 C156.22,89.4 161.86,96.38 169.1,100.94 Z" id="加拿大" stroke="#FFFFFF" stroke-width="8" fill="#FFFFFF" fill-rule="nonzero"></path>
        <path d="M32.672,139.332 C33.368,139.332 33.932,139.116 34.364,138.684 C34.796,138.252 35.012,137.688 35.012,136.992 L35.012,136.992 L35.012,119.532 C35.012,118.836 34.796,118.272 34.364,117.84 C33.932,117.408 33.368,117.192 32.672,117.192 L32.672,117.192 L26.228,117.192 L26.228,114.024 L33.608,114.024 C35.288,114.024 36.128,113.184 36.128,111.504 C36.128,109.824 35.288,108.984 33.608,108.984 L33.608,108.984 L6.248,108.984 C4.568,108.984 3.728,109.824 3.728,111.504 C3.728,113.184 4.568,114.024 6.248,114.024 L6.248,114.024 L13.268,114.024 L13.268,117.192 L7.436,117.192 C6.74,117.192 6.176,117.408 5.744,117.84 C5.312,118.272 5.096,118.836 5.096,119.532 L5.096,119.532 L5.096,136.992 C5.096,137.688 5.312,138.252 5.744,138.684 C6.176,139.116 6.74,139.332 7.436,139.332 L7.436,139.332 L32.672,139.332 Z M21.044,117.192 L18.344,117.192 L18.344,114.024 L21.044,114.024 L21.044,117.192 Z M29.72,134.544 L11,134.544 C10.424,134.544 10.136,134.256 10.136,133.68 L10.136,133.68 L10.136,129.864 C10.592,130.224 10.964,130.536 11.252,130.8 C11.66,131.232 12.164,131.448 12.764,131.448 C13.388,131.472 14.06,131.232 14.78,130.728 C17.06,128.736 18.248,125.82 18.344,121.98 L18.344,121.98 L21.008,121.98 L21.008,124.968 C21.008,127.128 21.296,128.58 21.872,129.324 C22.52,130.14 23.792,130.548 25.688,130.548 L25.688,130.548 L28.388,130.548 C28.892,130.548 29.336,130.512 29.72,130.44 L29.72,130.44 L29.72,134.544 Z M10.136,128.208 L10.136,122.844 C10.136,122.268 10.424,121.98 11,121.98 L11,121.98 L13.556,121.98 C13.508,123.228 13.28,124.296 12.872,125.184 C12.344,126.36 11.432,127.368 10.136,128.208 L10.136,128.208 Z M27.776,126.012 L26.588,126.012 C26.3,126.012 26.12,125.958 26.048,125.85 C25.976,125.742 25.94,125.436 25.94,124.932 L25.94,124.932 L25.94,121.98 L29.72,121.98 L29.72,125.328 C29.336,125.136 29.072,124.992 28.928,124.896 C28.664,124.728 28.52,124.836 28.496,125.22 C28.472,125.46 28.424,125.64 28.352,125.76 C28.208,125.928 28.016,126.012 27.776,126.012 L27.776,126.012 Z M55.388,125.22 C56.948,125.22 57.728,124.428 57.728,122.844 C57.728,121.284 56.948,120.504 55.388,120.504 L55.388,120.504 L54.056,120.504 C54.488,119.424 54.824,118.56 55.064,117.912 C55.328,117.24 55.346,116.676 55.118,116.22 C54.89,115.764 54.464,115.476 53.84,115.356 L53.84,115.356 L51.572,114.888 L55.064,114.888 C56.552,114.888 57.296,114.132 57.296,112.62 C57.296,111.132 56.552,110.388 55.064,110.388 L55.064,110.388 L51.14,110.388 L51.14,110.028 C51.14,108.372 50.312,107.544 48.656,107.544 C46.976,107.544 46.136,108.372 46.136,110.028 L46.136,110.028 L46.136,110.388 L42.176,110.388 C40.688,110.388 39.944,111.132 39.944,112.62 C39.944,114.132 40.688,114.888 42.176,114.888 L42.176,114.888 L45.956,114.888 L44.12,115.284 C43.424,115.428 42.938,115.746 42.662,116.238 C42.386,116.73 42.356,117.324 42.572,118.02 C42.764,119.004 42.896,119.832 42.968,120.504 L42.968,120.504 L41.6,120.504 C40.04,120.504 39.26,121.284 39.26,122.844 C39.26,124.428 40.04,125.22 41.6,125.22 L41.6,125.22 L55.388,125.22 Z M61.112,141.42 C62.792,141.42 63.632,140.58 63.632,138.9 L63.632,138.9 L63.632,114.996 C63.632,114.42 63.92,114.132 64.496,114.132 L64.496,114.132 L66.656,114.132 C65.96,116.82 65.288,119.208 64.64,121.296 C64.328,122.256 64.628,123.288 65.54,124.392 C66.668,126.072 67.232,127.824 67.232,129.648 C67.232,130.8 66.98,131.532 66.476,131.844 C66.188,132.036 65.792,132.132 65.288,132.132 L65.288,132.132 L65.216,132.132 C64.76,132.108 64.442,132.222 64.262,132.474 C64.082,132.726 64.088,133.056 64.28,133.464 C64.592,134.4 64.784,135.276 64.856,136.092 C64.904,136.836 65.372,137.208 66.26,137.208 C66.356,137.208 66.512,137.196 66.728,137.172 C67.136,137.148 67.436,137.124 67.628,137.1 C68.612,136.956 69.452,136.62 70.148,136.092 C71.516,135.132 72.2,133.224 72.2,130.368 C72.2,128.928 72.032,127.656 71.696,126.552 C71.216,124.992 70.376,123.504 69.176,122.088 C70.448,119.112 71.504,115.884 72.344,112.404 C72.8,110.292 72.164,109.236 70.436,109.236 L70.436,109.236 L60.896,109.236 C60.2,109.236 59.636,109.452 59.204,109.884 C58.772,110.316 58.556,110.88 58.556,111.576 L58.556,111.576 L58.556,138.9 C58.556,140.58 59.408,141.42 61.112,141.42 Z M52.544,120.504 L44.516,120.504 L45.308,120.324 C45.956,120.156 46.442,119.838 46.766,119.37 C47.09,118.902 47.192,118.368 47.072,117.768 C46.832,116.688 46.52,115.728 46.136,114.888 L46.136,114.888 L51.068,114.888 C50.9,115.968 50.624,117.252 50.24,118.74 C50.144,119.052 50.174,119.34 50.33,119.604 C50.486,119.868 50.744,120.048 51.104,120.144 L51.104,120.144 L52.544,120.504 Z M53.984,139.836 C54.68,139.836 55.244,139.62 55.676,139.188 C56.108,138.756 56.324,138.192 56.324,137.496 L56.324,137.496 L56.324,129.504 C56.324,128.808 56.108,128.244 55.676,127.812 C55.244,127.38 54.68,127.164 53.984,127.164 L53.984,127.164 L43.436,127.164 C42.74,127.164 42.176,127.38 41.744,127.812 C41.312,128.244 41.096,128.808 41.096,129.504 L41.096,129.504 L41.096,137.496 C41.096,138.192 41.312,138.756 41.744,139.188 C42.176,139.62 42.74,139.836 43.436,139.836 L43.436,139.836 L53.984,139.836 Z M50.42,135.336 L46.748,135.336 C46.172,135.336 45.884,135.048 45.884,134.472 L45.884,134.472 L45.884,132.528 C45.884,131.952 46.172,131.664 46.748,131.664 L46.748,131.664 L50.42,131.664 C50.996,131.664 51.284,131.952 51.284,132.528 L51.284,132.528 L51.284,134.472 C51.284,135.048 50.996,135.336 50.42,135.336 L50.42,135.336 Z M105.536,139.836 C107.264,139.836 108.128,138.972 108.128,137.244 C108.128,135.516 107.264,134.652 105.536,134.652 L105.536,134.652 L102.728,134.652 L102.728,123.24 C102.728,122.544 102.512,121.98 102.08,121.548 C101.648,121.116 101.084,120.9 100.388,120.9 L100.388,120.9 L92.072,120.9 C92.096,120.708 92.144,120.432 92.216,120.072 C92.576,118.08 92.84,116.58 93.008,115.572 L93.008,115.572 L103.34,115.572 C105.068,115.572 105.932,114.708 105.932,112.98 C105.932,111.252 105.068,110.388 103.34,110.388 L103.34,110.388 L80.588,110.388 C78.86,110.388 77.996,111.252 77.996,112.98 C77.996,114.708 78.86,115.572 80.588,115.572 L80.588,115.572 L87.14,115.572 C86.972,116.724 86.696,118.5 86.312,120.9 L86.312,120.9 L81.632,120.9 C79.928,120.9 79.076,121.752 79.076,123.456 C79.076,125.184 79.928,126.048 81.632,126.048 L81.632,126.048 L85.34,126.048 C84.764,128.928 84.14,131.796 83.468,134.652 L83.468,134.652 L78.608,134.652 C76.88,134.652 76.016,135.516 76.016,137.244 C76.016,138.972 76.88,139.836 78.608,139.836 L78.608,139.836 L105.536,139.836 Z M97.364,134.652 L89.3,134.652 C89.612,133.212 90.104,130.86 90.776,127.596 C90.896,126.9 90.992,126.384 91.064,126.048 L91.064,126.048 L97.364,126.048 L97.364,134.652 Z M129.836,141.384 C131.084,141.384 132.044,141.336 132.716,141.24 C133.532,141.12 134.204,140.94 134.732,140.7 C135.332,140.388 135.884,139.92 136.388,139.296 C136.988,138.552 137.456,137.016 137.792,134.688 C138.128,132.408 138.416,128.796 138.656,123.852 C138.704,123.876 138.77,123.924 138.854,123.996 C138.938,124.068 139.004,124.128 139.052,124.176 C139.94,124.848 140.708,125.172 141.356,125.148 C142.052,125.124 142.712,124.692 143.336,123.852 C144.056,122.892 144.284,122.004 144.02,121.188 C143.78,120.468 143.096,119.748 141.968,119.028 C139.088,116.628 136.976,113.496 135.632,109.632 C135.44,109.08 135.116,108.63 134.66,108.282 C134.204,107.934 133.676,107.76 133.076,107.76 L133.076,107.76 L124.832,107.76 C123.224,107.76 122.42,108.564 122.42,110.172 C122.42,111.78 123.224,112.584 124.832,112.584 L124.832,112.584 L131.096,112.584 C132.32,115.752 133.928,118.56 135.92,121.008 L135.92,121.008 L120.332,121.008 C119.756,121.008 119.612,120.768 119.9,120.288 C120.788,118.848 121.556,117.336 122.204,115.752 C122.9,113.904 122.3,112.752 120.404,112.296 C118.652,111.864 117.452,112.548 116.804,114.348 C115.82,116.58 114.572,118.572 113.06,120.324 C112.196,121.14 111.752,121.872 111.728,122.52 C111.704,123.216 112.112,123.948 112.952,124.716 C113.648,125.364 114.332,125.652 115.004,125.58 C115.628,125.508 116.288,125.112 116.984,124.392 C117.08,124.296 117.224,124.128 117.416,123.888 L117.416,123.888 L117.416,123.996 C117.416,124.572 117.584,125.028 117.92,125.364 C118.256,125.7 118.712,125.868 119.288,125.868 L119.288,125.868 L121.952,125.868 C120.92,130.164 118.952,133.404 116.048,135.588 C114.896,136.236 114.224,136.896 114.032,137.568 C113.816,138.312 114.14,139.104 115.004,139.944 C115.604,140.52 116.216,140.832 116.84,140.88 C117.44,140.904 118.112,140.688 118.856,140.232 C123.152,137.184 126.044,132.396 127.532,125.868 L127.532,125.868 L133.328,125.868 C133.016,131.868 132.5,135.228 131.78,135.948 C131.42,136.284 130.916,136.452 130.268,136.452 C129.644,136.452 129.104,136.44 128.648,136.416 C127.664,136.368 127.016,136.542 126.704,136.938 C126.392,137.334 126.416,137.916 126.776,138.684 C126.872,138.9 126.932,139.092 126.956,139.26 C127.076,139.908 127.388,140.424 127.892,140.808 C128.396,141.192 129.044,141.384 129.836,141.384 Z M169.22,116.688 C169.772,116.736 170.384,116.556 171.056,116.148 C172.136,115.476 173.18,114.744 174.188,113.952 C175.244,113.088 176.012,112.416 176.492,111.936 C177.932,110.4 177.692,109.224 175.772,108.408 C174.38,107.832 173.216,108.072 172.28,109.128 C171.248,110.112 169.94,111.084 168.356,112.044 C167.348,112.596 166.772,113.16 166.628,113.736 C166.508,114.336 166.832,115.02 167.6,115.788 C168.128,116.34 168.668,116.64 169.22,116.688 Z M148.664,121.152 C149.336,121.608 149.888,121.788 150.32,121.692 C150.776,121.596 151.208,121.212 151.616,120.54 C152.432,118.884 153.188,116.868 153.884,114.492 C156.188,114.156 158.264,113.784 160.112,113.376 C161.456,113.088 162.44,112.848 163.064,112.656 C165.056,112.08 165.38,111 164.036,109.416 C163.58,108.864 163.136,108.516 162.704,108.372 C162.224,108.228 161.672,108.264 161.048,108.48 C159.176,109.128 156.824,109.74 153.992,110.316 L153.992,110.316 L152.444,110.028 C151.748,109.908 151.148,110.016 150.644,110.352 C150.14,110.688 149.828,111.18 149.708,111.828 C149.252,114.132 148.64,116.148 147.872,117.876 C147.488,118.572 147.356,119.178 147.476,119.694 C147.596,120.21 147.992,120.696 148.664,121.152 Z M162.2,119.136 C162.728,120.6 163.712,120.996 165.152,120.324 C165.8,120.036 166.22,119.694 166.412,119.298 C166.604,118.902 166.58,118.392 166.34,117.768 C165.692,116.4 165.128,115.284 164.648,114.42 C164.048,113.388 163.172,113.112 162.02,113.592 C160.604,114.192 160.244,115.128 160.94,116.4 C161.108,116.736 161.36,117.264 161.696,117.984 C161.744,118.104 161.816,118.272 161.912,118.488 C162.032,118.776 162.128,118.992 162.2,119.136 Z M155.144,118.236 C155.456,119.796 156.368,120.336 157.88,119.856 C159.104,119.472 159.56,118.692 159.248,117.516 C159.056,116.844 158.9,116.34 158.78,116.004 C158.372,114.828 157.544,114.42 156.296,114.78 C154.928,115.212 154.472,116.076 154.928,117.372 C154.952,117.516 155,117.708 155.072,117.948 C155.096,118.02 155.108,118.068 155.108,118.092 C155.132,118.164 155.144,118.212 155.144,118.236 Z M157.448,141.384 C159.08,141.384 159.896,140.568 159.896,138.936 L159.896,138.936 L159.896,134.256 C160.064,134.4 160.304,134.628 160.616,134.94 L160.766,135.089 C161.006,135.325667 161.196,135.504 161.336,135.624 C161.984,136.296 162.578,136.62 163.118,136.596 C163.658,136.572 164.204,136.176 164.756,135.408 C165.26,134.736 165.512,134.196 165.512,133.788 C165.488,133.332 165.164,132.876 164.54,132.42 C162.548,131.052 161,130.044 159.896,129.396 L159.896,129.396 L159.896,128.964 L163.712,128.964 C164.336,128.964 164.828,128.778 165.188,128.406 C165.548,128.034 165.728,127.548 165.728,126.948 L165.728,126.948 L165.728,124.716 C166.352,125.292 166.952,125.928 167.528,126.624 C167.888,127.104 168.356,127.404 168.932,127.524 C169.508,127.644 170.084,127.548 170.66,127.236 C173.372,125.724 175.712,123.936 177.68,121.872 C179.048,120.288 178.784,119.124 176.888,118.38 C175.496,117.804 174.344,118.068 173.432,119.172 C171.272,121.356 168.56,123.084 165.296,124.356 L165.296,124.356 L165.332,124.392 L159.896,124.392 L159.896,123.096 C159.896,121.464 159.08,120.648 157.448,120.648 C155.816,120.648 155,121.464 155,123.096 L155,123.096 L155,124.392 L150.608,124.392 C149.096,124.392 148.34,125.148 148.34,126.66 C148.34,128.196 149.096,128.964 150.608,128.964 L150.608,128.964 L153.164,128.964 C152.012,130.812 150.608,132.504 148.952,134.04 C148.136,134.688 147.674,135.3 147.566,135.876 C147.458,136.452 147.692,137.148 148.268,137.964 C148.844,138.78 149.42,139.188 149.996,139.188 C150.524,139.212 151.16,138.864 151.904,138.144 C153.08,136.872 154.112,135.636 155,134.436 L155,134.436 L155,138.936 C155,140.568 155.816,141.384 157.448,141.384 Z M167.888,140.772 C168.488,140.844 169.196,140.664 170.012,140.232 C172.1,139.008 173.876,137.748 175.34,136.452 C176.924,135.06 178.316,133.512 179.516,131.808 C180.62,130.08 180.224,128.868 178.328,128.172 C176.744,127.596 175.508,128.016 174.62,129.432 C172.844,131.832 170.456,133.86 167.456,135.516 C166.304,136.068 165.608,136.644 165.368,137.244 C165.104,137.94 165.344,138.744 166.088,139.656 C166.616,140.328 167.216,140.7 167.888,140.772 Z" id="西部五分彩" stroke="#FFFFFF" stroke-width="8" fill="#FFFFFF" fill-rule="nonzero"></path>
        <path d="M21.2,102.44 C22.68,102.36 23.84,102.22 24.68,102.02 C25.8,101.78 26.7,101.42 27.38,100.94 C28.18,100.38 28.94,99.56 29.66,98.48 C30.54,97.16 31.16,93.96 31.52,88.88 C31.88,84.32 32.2,75.74 32.48,63.14 C32.52,60.9 32.28,59.3 31.76,58.34 C31.32,57.54 30.6,57.14 29.6,57.14 L29.6,57.14 L19.88,57.14 C19.915,56.16 19.9346875,54.7053125 19.9390625,52.7759375 L19.94,51.92 C19.94,49.04 18.52,47.6 15.68,47.6 C12.84,47.6 11.42,49.02 11.42,51.86 L11.42,51.86 L11.42,57.14 L9.44,57.14 C6.6,57.14 5.18,58.56 5.18,61.4 C5.18,64.24 6.6,65.66 9.44,65.66 L9.44,65.66 L11.3,65.66 C11.18,71.98 10.74,77.18 9.98,81.26 C9.1,86.14 7.68,90.26 5.72,93.62 C4.8,94.94 4.36,96.08 4.4,97.04 C4.44,98 5.02,99.06 6.14,100.22 C7.38,101.5 8.52,102.04 9.56,101.84 C10.52,101.68 11.52,100.82 12.56,99.26 C13.68,97.34 14.54,95.58 15.14,93.98 C15.94,95.54 16.54,97.28 16.94,99.2 C17.1,100.2 17.55,100.99 18.29,101.57 C19.03,102.15 20,102.44 21.2,102.44 Z M53.6,98.24 C54.76,98.24 55.7,97.88 56.42,97.16 C57.14,96.44 57.5,95.5 57.5,94.34 L57.5,94.34 L57.5,57.14 C57.5,55.98 57.14,55.04 56.42,54.32 C55.7,53.6 54.76,53.24 53.6,53.24 L53.6,53.24 L38.96,53.24 C37.8,53.24 36.86,53.6 36.14,54.32 C35.42,55.04 35.06,55.98 35.06,57.14 L35.06,57.14 L35.06,94.34 C35.06,95.5 35.42,96.44 36.14,97.16 C36.86,97.88 37.8,98.24 38.96,98.24 L38.96,98.24 L53.6,98.24 Z M47.36,89.84 L44.78,89.84 C43.82,89.84 43.34,89.36 43.34,88.4 L43.34,88.4 L43.34,63.08 C43.34,62.12 43.82,61.64 44.78,61.64 L44.78,61.64 L47.36,61.64 C48.32,61.64 48.8,62.12 48.8,63.08 L48.8,63.08 L48.8,88.4 C48.8,89.36 48.32,89.84 47.36,89.84 L47.36,89.84 Z M20.12,93.92 C18.64,93.92 17,93.84 15.2,93.68 C16.6,90.04 17.68,85.76 18.44,80.84 C19.08,76.16 19.5,71.1 19.7,65.66 L19.7,65.66 L22.64,65.66 C23.16,65.66 23.52,65.84 23.72,66.2 C23.96,66.6 24.06,67.36 24.02,68.48 C23.82,76.84 23.58,82.74 23.3,86.18 C23.02,89.82 22.64,92 22.16,92.72 C21.64,93.52 20.96,93.92 20.12,93.92 Z M68.06,62.72 C68.82,62.96 69.78,62.92 70.94,62.6 C73.54,61.8 76.06,60.9 78.5,59.9 L78.5,59.9 L78.5,60.08 C78.5,61.36 79.14,62 80.42,62 L80.42,62 L105.14,62 C105.62,62 105.86,61.76 105.86,61.28 L105.86,61.28 L105.86,60.2 C108.14,61.12 110.32,61.88 112.4,62.48 C113.56,62.8 114.53,62.83 115.31,62.57 C116.09,62.31 116.8,61.68 117.44,60.68 C118.48,59.12 118.74,57.88 118.22,56.96 C117.74,56.12 116.52,55.5 114.56,55.1 C107.52,53.38 101.54,50.9 96.62,47.66 C95.74,47.02 94.7,46.7 93.5,46.7 L93.5,46.7 L89.3,46.7 C88.06,46.7 87.04,47.02 86.24,47.66 C82.12,50.7 76.4,53.28 69.08,55.4 C65.36,56.32 64.32,58.14 65.96,60.86 C66.56,61.86 67.26,62.48 68.06,62.72 Z M98.78,57.08 L84.62,57.08 C87.34,55.68 89.68,54.22 91.64,52.7 C93.72,54.3 96.1,55.76 98.78,57.08 L98.78,57.08 Z M85.6668047,103.705217 L85.94,103.7 C88.82,103.62 91.1,103.3 92.78,102.74 C94.1,102.22 95.02,101.5 95.54,100.58 C96.06,99.66 96.32,98.26 96.32,96.38 L96.32,96.38 L96.32,95.6 L116.42,95.6 C118.34,95.6 119.3,94.64 119.3,92.72 C119.3,90.8 118.34,89.84 116.42,89.84 L116.42,89.84 L96.32,89.84 L96.32,88.4 L112.46,88.4 C114.34,88.4 115.28,87.44 115.28,85.52 C115.28,83.64 114.34,82.7 112.46,82.7 L112.46,82.7 L96.32,82.7 L96.32,80.84 C101.48,80.52 105.96,80.08 109.76,79.52 C110.56,79.4 111.01,79.12 111.11,78.68 C111.21,78.24 110.9,77.72 110.18,77.12 L110.18,77.12 L107.54,74.84 L107.72,74.84 C108.52,74.84 109.16,74.6 109.64,74.12 C110.12,73.64 110.36,73 110.36,72.2 L110.36,72.2 L110.36,67.22 C110.36,66.06 110,65.12 109.28,64.4 C108.56,63.68 107.62,63.32 106.46,63.32 L106.46,63.32 L77.48,63.32 C76.32,63.32 75.38,63.68 74.66,64.4 C73.94,65.12 73.58,66.06 73.58,67.22 L73.58,67.22 L73.58,70.94 C73.58,72.1 73.94,73.04 74.66,73.76 C75.38,74.48 76.32,74.84 77.48,74.84 L77.48,74.84 L105.2,74.84 C97.2,75.88 86.84,76.36 74.12,76.28 C71.8,76.2 70.88,77.16 71.36,79.16 C71.72,80.6 72.7,81.34 74.3,81.38 C78.22,81.42 82.72,81.38 87.8,81.26 L87.8,81.26 L87.8,82.7 L72.08,82.7 C70.2,82.7 69.26,83.64 69.26,85.52 C69.26,87.44 70.2,88.4 72.08,88.4 L72.08,88.4 L87.8,88.4 L87.8,89.84 L67.64,89.84 C65.72,89.84 64.76,90.8 64.76,92.72 C64.76,94.64 65.72,95.6 67.64,95.6 L67.64,95.6 L87.8,95.6 L87.8,96.14 C87.8,96.82 87.36,97.18 86.48,97.22 L86.48,97.22 L85.16,97.22 C81.44,97.14 80.14,98.46 81.26,101.18 C81.98,102.94 83.54,103.78 85.94,103.7 L85.6668047,103.705217 Z M100.94,69.92 L82.28,69.92 C81.84,69.92 81.62,69.7 81.62,69.26 L81.62,69.26 L81.62,69.08 C81.62,68.52 81.9,68.24 82.46,68.24 L82.46,68.24 L101.12,68.24 C101.56,68.24 101.78,68.46 101.78,68.9 L101.78,68.9 L101.78,69.08 C101.78,69.64 101.5,69.92 100.94,69.92 L100.94,69.92 Z M169.1,100.94 C172.18,102.62 174.64,102.28 176.48,99.92 C177.8,98.24 178.2,96.72 177.68,95.36 C177.2,94.16 175.92,93.02 173.84,91.94 C166.92,87.5 161.8,80.62 158.48,71.3 L158.48,71.3 L174.2,71.3 C177.2,71.3 178.7,69.78 178.7,66.74 C178.7,63.74 177.2,62.24 174.2,62.24 L174.2,62.24 L155.84,62.24 C156.12,59.32 156.3,55.7 156.38,51.38 C156.42,48.26 154.84,46.7 151.64,46.7 C148.52,46.7 146.94,48.22 146.9,51.26 C146.9,55.66 146.78,59.32 146.54,62.24 L146.54,62.24 L129.92,62.24 C126.92,62.24 125.42,63.74 125.42,66.74 C125.42,69.78 126.92,71.3 129.92,71.3 L129.92,71.3 L145.1,71.3 C142.98,80.22 138.34,87.16 131.18,92.12 C126.62,94.68 125.58,97.4 128.06,100.28 C129.9,102.36 132.46,102.48 135.74,100.64 C143.5,95.6 148.98,88.72 152.18,80 C156.22,89.4 161.86,96.38 169.1,100.94 Z" id="加拿大" fill="#BF590A" fill-rule="nonzero"></path>
        <path d="M32.672,139.332 C33.368,139.332 33.932,139.116 34.364,138.684 C34.796,138.252 35.012,137.688 35.012,136.992 L35.012,136.992 L35.012,119.532 C35.012,118.836 34.796,118.272 34.364,117.84 C33.932,117.408 33.368,117.192 32.672,117.192 L32.672,117.192 L26.228,117.192 L26.228,114.024 L33.608,114.024 C35.288,114.024 36.128,113.184 36.128,111.504 C36.128,109.824 35.288,108.984 33.608,108.984 L33.608,108.984 L6.248,108.984 C4.568,108.984 3.728,109.824 3.728,111.504 C3.728,113.184 4.568,114.024 6.248,114.024 L6.248,114.024 L13.268,114.024 L13.268,117.192 L7.436,117.192 C6.74,117.192 6.176,117.408 5.744,117.84 C5.312,118.272 5.096,118.836 5.096,119.532 L5.096,119.532 L5.096,136.992 C5.096,137.688 5.312,138.252 5.744,138.684 C6.176,139.116 6.74,139.332 7.436,139.332 L7.436,139.332 L32.672,139.332 Z M21.044,117.192 L18.344,117.192 L18.344,114.024 L21.044,114.024 L21.044,117.192 Z M29.72,134.544 L11,134.544 C10.424,134.544 10.136,134.256 10.136,133.68 L10.136,133.68 L10.136,129.864 C10.592,130.224 10.964,130.536 11.252,130.8 C11.66,131.232 12.164,131.448 12.764,131.448 C13.388,131.472 14.06,131.232 14.78,130.728 C17.06,128.736 18.248,125.82 18.344,121.98 L18.344,121.98 L21.008,121.98 L21.008,124.968 C21.008,127.128 21.296,128.58 21.872,129.324 C22.52,130.14 23.792,130.548 25.688,130.548 L25.688,130.548 L28.388,130.548 C28.892,130.548 29.336,130.512 29.72,130.44 L29.72,130.44 L29.72,134.544 Z M10.136,128.208 L10.136,122.844 C10.136,122.268 10.424,121.98 11,121.98 L11,121.98 L13.556,121.98 C13.508,123.228 13.28,124.296 12.872,125.184 C12.344,126.36 11.432,127.368 10.136,128.208 L10.136,128.208 Z M27.776,126.012 L26.588,126.012 C26.3,126.012 26.12,125.958 26.048,125.85 C25.976,125.742 25.94,125.436 25.94,124.932 L25.94,124.932 L25.94,121.98 L29.72,121.98 L29.72,125.328 C29.336,125.136 29.072,124.992 28.928,124.896 C28.664,124.728 28.52,124.836 28.496,125.22 C28.472,125.46 28.424,125.64 28.352,125.76 C28.208,125.928 28.016,126.012 27.776,126.012 L27.776,126.012 Z M55.388,125.22 C56.948,125.22 57.728,124.428 57.728,122.844 C57.728,121.284 56.948,120.504 55.388,120.504 L55.388,120.504 L54.056,120.504 C54.488,119.424 54.824,118.56 55.064,117.912 C55.328,117.24 55.346,116.676 55.118,116.22 C54.89,115.764 54.464,115.476 53.84,115.356 L53.84,115.356 L51.572,114.888 L55.064,114.888 C56.552,114.888 57.296,114.132 57.296,112.62 C57.296,111.132 56.552,110.388 55.064,110.388 L55.064,110.388 L51.14,110.388 L51.14,110.028 C51.14,108.372 50.312,107.544 48.656,107.544 C46.976,107.544 46.136,108.372 46.136,110.028 L46.136,110.028 L46.136,110.388 L42.176,110.388 C40.688,110.388 39.944,111.132 39.944,112.62 C39.944,114.132 40.688,114.888 42.176,114.888 L42.176,114.888 L45.956,114.888 L44.12,115.284 C43.424,115.428 42.938,115.746 42.662,116.238 C42.386,116.73 42.356,117.324 42.572,118.02 C42.764,119.004 42.896,119.832 42.968,120.504 L42.968,120.504 L41.6,120.504 C40.04,120.504 39.26,121.284 39.26,122.844 C39.26,124.428 40.04,125.22 41.6,125.22 L41.6,125.22 L55.388,125.22 Z M61.112,141.42 C62.792,141.42 63.632,140.58 63.632,138.9 L63.632,138.9 L63.632,114.996 C63.632,114.42 63.92,114.132 64.496,114.132 L64.496,114.132 L66.656,114.132 C65.96,116.82 65.288,119.208 64.64,121.296 C64.328,122.256 64.628,123.288 65.54,124.392 C66.668,126.072 67.232,127.824 67.232,129.648 C67.232,130.8 66.98,131.532 66.476,131.844 C66.188,132.036 65.792,132.132 65.288,132.132 L65.288,132.132 L65.216,132.132 C64.76,132.108 64.442,132.222 64.262,132.474 C64.082,132.726 64.088,133.056 64.28,133.464 C64.592,134.4 64.784,135.276 64.856,136.092 C64.904,136.836 65.372,137.208 66.26,137.208 C66.356,137.208 66.512,137.196 66.728,137.172 C67.136,137.148 67.436,137.124 67.628,137.1 C68.612,136.956 69.452,136.62 70.148,136.092 C71.516,135.132 72.2,133.224 72.2,130.368 C72.2,128.928 72.032,127.656 71.696,126.552 C71.216,124.992 70.376,123.504 69.176,122.088 C70.448,119.112 71.504,115.884 72.344,112.404 C72.8,110.292 72.164,109.236 70.436,109.236 L70.436,109.236 L60.896,109.236 C60.2,109.236 59.636,109.452 59.204,109.884 C58.772,110.316 58.556,110.88 58.556,111.576 L58.556,111.576 L58.556,138.9 C58.556,140.58 59.408,141.42 61.112,141.42 Z M52.544,120.504 L44.516,120.504 L45.308,120.324 C45.956,120.156 46.442,119.838 46.766,119.37 C47.09,118.902 47.192,118.368 47.072,117.768 C46.832,116.688 46.52,115.728 46.136,114.888 L46.136,114.888 L51.068,114.888 C50.9,115.968 50.624,117.252 50.24,118.74 C50.144,119.052 50.174,119.34 50.33,119.604 C50.486,119.868 50.744,120.048 51.104,120.144 L51.104,120.144 L52.544,120.504 Z M53.984,139.836 C54.68,139.836 55.244,139.62 55.676,139.188 C56.108,138.756 56.324,138.192 56.324,137.496 L56.324,137.496 L56.324,129.504 C56.324,128.808 56.108,128.244 55.676,127.812 C55.244,127.38 54.68,127.164 53.984,127.164 L53.984,127.164 L43.436,127.164 C42.74,127.164 42.176,127.38 41.744,127.812 C41.312,128.244 41.096,128.808 41.096,129.504 L41.096,129.504 L41.096,137.496 C41.096,138.192 41.312,138.756 41.744,139.188 C42.176,139.62 42.74,139.836 43.436,139.836 L43.436,139.836 L53.984,139.836 Z M50.42,135.336 L46.748,135.336 C46.172,135.336 45.884,135.048 45.884,134.472 L45.884,134.472 L45.884,132.528 C45.884,131.952 46.172,131.664 46.748,131.664 L46.748,131.664 L50.42,131.664 C50.996,131.664 51.284,131.952 51.284,132.528 L51.284,132.528 L51.284,134.472 C51.284,135.048 50.996,135.336 50.42,135.336 L50.42,135.336 Z M105.536,139.836 C107.264,139.836 108.128,138.972 108.128,137.244 C108.128,135.516 107.264,134.652 105.536,134.652 L105.536,134.652 L102.728,134.652 L102.728,123.24 C102.728,122.544 102.512,121.98 102.08,121.548 C101.648,121.116 101.084,120.9 100.388,120.9 L100.388,120.9 L92.072,120.9 C92.096,120.708 92.144,120.432 92.216,120.072 C92.576,118.08 92.84,116.58 93.008,115.572 L93.008,115.572 L103.34,115.572 C105.068,115.572 105.932,114.708 105.932,112.98 C105.932,111.252 105.068,110.388 103.34,110.388 L103.34,110.388 L80.588,110.388 C78.86,110.388 77.996,111.252 77.996,112.98 C77.996,114.708 78.86,115.572 80.588,115.572 L80.588,115.572 L87.14,115.572 C86.972,116.724 86.696,118.5 86.312,120.9 L86.312,120.9 L81.632,120.9 C79.928,120.9 79.076,121.752 79.076,123.456 C79.076,125.184 79.928,126.048 81.632,126.048 L81.632,126.048 L85.34,126.048 C84.764,128.928 84.14,131.796 83.468,134.652 L83.468,134.652 L78.608,134.652 C76.88,134.652 76.016,135.516 76.016,137.244 C76.016,138.972 76.88,139.836 78.608,139.836 L78.608,139.836 L105.536,139.836 Z M97.364,134.652 L89.3,134.652 C89.612,133.212 90.104,130.86 90.776,127.596 C90.896,126.9 90.992,126.384 91.064,126.048 L91.064,126.048 L97.364,126.048 L97.364,134.652 Z M129.836,141.384 C131.084,141.384 132.044,141.336 132.716,141.24 C133.532,141.12 134.204,140.94 134.732,140.7 C135.332,140.388 135.884,139.92 136.388,139.296 C136.988,138.552 137.456,137.016 137.792,134.688 C138.128,132.408 138.416,128.796 138.656,123.852 C138.704,123.876 138.77,123.924 138.854,123.996 C138.938,124.068 139.004,124.128 139.052,124.176 C139.94,124.848 140.708,125.172 141.356,125.148 C142.052,125.124 142.712,124.692 143.336,123.852 C144.056,122.892 144.284,122.004 144.02,121.188 C143.78,120.468 143.096,119.748 141.968,119.028 C139.088,116.628 136.976,113.496 135.632,109.632 C135.44,109.08 135.116,108.63 134.66,108.282 C134.204,107.934 133.676,107.76 133.076,107.76 L133.076,107.76 L124.832,107.76 C123.224,107.76 122.42,108.564 122.42,110.172 C122.42,111.78 123.224,112.584 124.832,112.584 L124.832,112.584 L131.096,112.584 C132.32,115.752 133.928,118.56 135.92,121.008 L135.92,121.008 L120.332,121.008 C119.756,121.008 119.612,120.768 119.9,120.288 C120.788,118.848 121.556,117.336 122.204,115.752 C122.9,113.904 122.3,112.752 120.404,112.296 C118.652,111.864 117.452,112.548 116.804,114.348 C115.82,116.58 114.572,118.572 113.06,120.324 C112.196,121.14 111.752,121.872 111.728,122.52 C111.704,123.216 112.112,123.948 112.952,124.716 C113.648,125.364 114.332,125.652 115.004,125.58 C115.628,125.508 116.288,125.112 116.984,124.392 C117.08,124.296 117.224,124.128 117.416,123.888 L117.416,123.888 L117.416,123.996 C117.416,124.572 117.584,125.028 117.92,125.364 C118.256,125.7 118.712,125.868 119.288,125.868 L119.288,125.868 L121.952,125.868 C120.92,130.164 118.952,133.404 116.048,135.588 C114.896,136.236 114.224,136.896 114.032,137.568 C113.816,138.312 114.14,139.104 115.004,139.944 C115.604,140.52 116.216,140.832 116.84,140.88 C117.44,140.904 118.112,140.688 118.856,140.232 C123.152,137.184 126.044,132.396 127.532,125.868 L127.532,125.868 L133.328,125.868 C133.016,131.868 132.5,135.228 131.78,135.948 C131.42,136.284 130.916,136.452 130.268,136.452 C129.644,136.452 129.104,136.44 128.648,136.416 C127.664,136.368 127.016,136.542 126.704,136.938 C126.392,137.334 126.416,137.916 126.776,138.684 C126.872,138.9 126.932,139.092 126.956,139.26 C127.076,139.908 127.388,140.424 127.892,140.808 C128.396,141.192 129.044,141.384 129.836,141.384 Z M169.22,116.688 C169.772,116.736 170.384,116.556 171.056,116.148 C172.136,115.476 173.18,114.744 174.188,113.952 C175.244,113.088 176.012,112.416 176.492,111.936 C177.932,110.4 177.692,109.224 175.772,108.408 C174.38,107.832 173.216,108.072 172.28,109.128 C171.248,110.112 169.94,111.084 168.356,112.044 C167.348,112.596 166.772,113.16 166.628,113.736 C166.508,114.336 166.832,115.02 167.6,115.788 C168.128,116.34 168.668,116.64 169.22,116.688 Z M148.664,121.152 C149.336,121.608 149.888,121.788 150.32,121.692 C150.776,121.596 151.208,121.212 151.616,120.54 C152.432,118.884 153.188,116.868 153.884,114.492 C156.188,114.156 158.264,113.784 160.112,113.376 C161.456,113.088 162.44,112.848 163.064,112.656 C165.056,112.08 165.38,111 164.036,109.416 C163.58,108.864 163.136,108.516 162.704,108.372 C162.224,108.228 161.672,108.264 161.048,108.48 C159.176,109.128 156.824,109.74 153.992,110.316 L153.992,110.316 L152.444,110.028 C151.748,109.908 151.148,110.016 150.644,110.352 C150.14,110.688 149.828,111.18 149.708,111.828 C149.252,114.132 148.64,116.148 147.872,117.876 C147.488,118.572 147.356,119.178 147.476,119.694 C147.596,120.21 147.992,120.696 148.664,121.152 Z M162.2,119.136 C162.728,120.6 163.712,120.996 165.152,120.324 C165.8,120.036 166.22,119.694 166.412,119.298 C166.604,118.902 166.58,118.392 166.34,117.768 C165.692,116.4 165.128,115.284 164.648,114.42 C164.048,113.388 163.172,113.112 162.02,113.592 C160.604,114.192 160.244,115.128 160.94,116.4 C161.108,116.736 161.36,117.264 161.696,117.984 C161.744,118.104 161.816,118.272 161.912,118.488 C162.032,118.776 162.128,118.992 162.2,119.136 Z M155.144,118.236 C155.456,119.796 156.368,120.336 157.88,119.856 C159.104,119.472 159.56,118.692 159.248,117.516 C159.056,116.844 158.9,116.34 158.78,116.004 C158.372,114.828 157.544,114.42 156.296,114.78 C154.928,115.212 154.472,116.076 154.928,117.372 C154.952,117.516 155,117.708 155.072,117.948 C155.096,118.02 155.108,118.068 155.108,118.092 C155.132,118.164 155.144,118.212 155.144,118.236 Z M157.448,141.384 C159.08,141.384 159.896,140.568 159.896,138.936 L159.896,138.936 L159.896,134.256 C160.064,134.4 160.304,134.628 160.616,134.94 L160.766,135.089 C161.006,135.325667 161.196,135.504 161.336,135.624 C161.984,136.296 162.578,136.62 163.118,136.596 C163.658,136.572 164.204,136.176 164.756,135.408 C165.26,134.736 165.512,134.196 165.512,133.788 C165.488,133.332 165.164,132.876 164.54,132.42 C162.548,131.052 161,130.044 159.896,129.396 L159.896,129.396 L159.896,128.964 L163.712,128.964 C164.336,128.964 164.828,128.778 165.188,128.406 C165.548,128.034 165.728,127.548 165.728,126.948 L165.728,126.948 L165.728,124.716 C166.352,125.292 166.952,125.928 167.528,126.624 C167.888,127.104 168.356,127.404 168.932,127.524 C169.508,127.644 170.084,127.548 170.66,127.236 C173.372,125.724 175.712,123.936 177.68,121.872 C179.048,120.288 178.784,119.124 176.888,118.38 C175.496,117.804 174.344,118.068 173.432,119.172 C171.272,121.356 168.56,123.084 165.296,124.356 L165.296,124.356 L165.332,124.392 L159.896,124.392 L159.896,123.096 C159.896,121.464 159.08,120.648 157.448,120.648 C155.816,120.648 155,121.464 155,123.096 L155,123.096 L155,124.392 L150.608,124.392 C149.096,124.392 148.34,125.148 148.34,126.66 C148.34,128.196 149.096,128.964 150.608,128.964 L150.608,128.964 L153.164,128.964 C152.012,130.812 150.608,132.504 148.952,134.04 C148.136,134.688 147.674,135.3 147.566,135.876 C147.458,136.452 147.692,137.148 148.268,137.964 C148.844,138.78 149.42,139.188 149.996,139.188 C150.524,139.212 151.16,138.864 151.904,138.144 C153.08,136.872 154.112,135.636 155,134.436 L155,134.436 L155,138.936 C155,140.568 155.816,141.384 157.448,141.384 Z M167.888,140.772 C168.488,140.844 169.196,140.664 170.012,140.232 C172.1,139.008 173.876,137.748 175.34,136.452 C176.924,135.06 178.316,133.512 179.516,131.808 C180.62,130.08 180.224,128.868 178.328,128.172 C176.744,127.596 175.508,128.016 174.62,129.432 C172.844,131.832 170.456,133.86 167.456,135.516 C166.304,136.068 165.608,136.644 165.368,137.244 C165.104,137.94 165.344,138.744 166.088,139.656 C166.616,140.328 167.216,140.7 167.888,140.772 Z" id="西部五分彩" fill="#BF590A" fill-rule="nonzero"></path>
    </g>
</svg>