<svg id="圖層_1" data-name="圖層 1" xmlns="http://www.w3.org/2000/svg" xmlns:xlink="http://www.w3.org/1999/xlink" viewBox="0 0 100 100"><defs><style>.cls-1,.cls-4{fill:none;}.cls-2{clip-path:url(#clip-path);}.cls-3{fill:url(#未命名漸層_7);}.cls-4{stroke:#74c290;}.cls-4,.cls-8{stroke-linecap:round;stroke-linejoin:round;}.cls-5,.cls-6,.cls-7{stroke-miterlimit:10;}.cls-5{fill:url(#未命名漸層_7-2);stroke:url(#未命名漸層_7-3);}.cls-6{fill:url(#未命名漸層_7-4);stroke:url(#未命名漸層_7-5);}.cls-7{fill:url(#未命名漸層_7-6);stroke:url(#未命名漸層_7-7);}.cls-8,.cls-9{font-size:25.4px;font-family:YouSheBiaoTiHei;}.cls-8{fill:#034f44;stroke:#034f44;stroke-width:2px;}.cls-9{fill:#fff;}</style><clipPath id="clip-path"><rect class="cls-1" x="-93.9" y="-2081.25" width="69.99" height="1097.03"/></clipPath><linearGradient id="未命名漸層_7" x1="3.52" y1="57.65" x2="95.33" y2="57.65" gradientUnits="userSpaceOnUse"><stop offset="0.29" stop-color="#34cec3"/><stop offset="0.66" stop-color="#9ffdff"/></linearGradient><linearGradient id="未命名漸層_7-2" x1="80.55" y1="9.65" x2="87.51" y2="9.65" xlink:href="#未命名漸層_7"/><linearGradient id="未命名漸層_7-3" x1="80.05" y1="9.65" x2="88.01" y2="9.65" xlink:href="#未命名漸層_7"/><linearGradient id="未命名漸層_7-4" x1="9.41" y1="18.16" x2="19.48" y2="18.16" xlink:href="#未命名漸層_7"/><linearGradient id="未命名漸層_7-5" x1="8.91" y1="18.16" x2="19.98" y2="18.16" xlink:href="#未命名漸層_7"/><linearGradient id="未命名漸層_7-6" x1="61.62" y1="84.91" x2="71.68" y2="84.91" xlink:href="#未命名漸層_7"/><linearGradient id="未命名漸層_7-7" x1="61.12" y1="84.91" x2="72.18" y2="84.91" xlink:href="#未命名漸層_7"/></defs><title>20201019_彩種icon_2</title><polygon class="cls-3" points="36.58 95.33 96.97 19.96 1.81 33.59 36.58 95.33"/><line class="cls-4" x1="72.89" y1="61.23" x2="53.22" y2="81.11"/><line class="cls-4" x1="57.13" y1="6.63" x2="35.65" y2="31.03"/><polygon class="cls-4" points="28.93 93.13 96.3 28.15 3.15 29.48 28.93 93.13"/><line class="cls-4" x1="95.48" y1="40.74" x2="85.51" y2="50.71"/><line class="cls-4" x1="23.58" y1="79.92" x2="12.24" y2="92.8"/><circle class="cls-5" cx="84.03" cy="9.65" r="3.48"/><circle class="cls-6" cx="14.45" cy="18.16" r="5.03"/><circle class="cls-7" cx="66.65" cy="84.91" r="5.03"/><text class="cls-8" transform="matrix(0.96, -0.14, -0.27, 0.96, 3.87, 66.66)">加拿大彩</text><text class="cls-9" transform="matrix(0.96, -0.14, -0.27, 0.96, 1.88, 65.37)">加拿大彩</text></svg>