<?xml version="1.0" encoding="UTF-8"?>
<svg width="244px" height="179px" viewBox="0 0 244 179" version="1.1" xmlns="http://www.w3.org/2000/svg" xmlns:xlink="http://www.w3.org/1999/xlink">
    <title>加拿大西部5分彩</title>
    <g id="加拿大西部5分彩" stroke="none" stroke-width="1" fill="none" fill-rule="evenodd">
        <g id="Group" transform="translate(3.838213, 5.000000)">
            <circle id="Oval" fill="#BF590A" cx="8.66178732" cy="21.5" r="7.5"></circle>
            <polygon id="Path-3" fill="#F37E00" transform="translate(102.092937, 147.830355) rotate(-7.000000) translate(-102.092937, -147.830355) " points="75.1078324 156.604022 130.987593 156.039828 145.554988 139.056689 58.6308864 140.490846"></polygon>
            <circle id="Oval" fill="#BF590A" cx="196.661787" cy="20.5" r="4.5"></circle>
            <polygon id="Path-4" fill="#FCA446" transform="translate(104.262244, 120.093416) rotate(-7.000000) translate(-104.262244, -120.093416) " points="52.7399743 132.019728 42.4996472 108.167105 166.02484 112.803887 150.500455 131.59943"></polygon>
            <polygon id="Path-5" fill="#F8CA44" transform="translate(111.790740, 90.865805) rotate(-7.000000) translate(-111.790740, -90.865805) " points="36.703575 77.2476689 187.479641 78.12922 166.913027 104.483941 36.10184 99.8123092"></polygon>
            <path d="M119.661787,0 C167.434418,0 206.161787,38.7273691 206.161787,86.5 C206.161787,134.272631 167.434418,173 119.661787,173 C71.8891565,173 33.1617873,134.272631 33.1617873,86.5 C33.1617873,38.7273691 71.8891565,0 119.661787,0 Z M119.661787,6 C75.202865,6 39.1617873,42.0410776 39.1617873,86.5 C39.1617873,130.958922 75.202865,167 119.661787,167 C164.12071,167 200.161787,130.958922 200.161787,86.5 C200.161787,42.0410776 164.12071,6 119.661787,6 Z" id="Oval" fill="#FA8200" fill-rule="nonzero"></path>
            <path d="M168.161787,68.0007441 C168.161787,42.5952346 145.274661,22 117.04196,22 C104.580838,22 89.8803755,25.4596253 81.4977334,34.5206707 C70.8881338,45.9889003 68.1617873,64.807769 68.1617873,79" id="Path" fill="#F46227"></path>
            <path d="M117.079826,27 L120.672303,27 L121.081416,27.0092384 C122.552607,27.0761614 123.915839,27.5081412 125.101946,28.3011847 L125.228763,28.390144 L125.672341,28.6772868 C129.149627,30.8899683 133.325376,32.6543845 138.208212,33.9584832 L138.849114,34.1259716 L139.453263,34.276856 L139.661373,34.3215456 C141.865714,34.8104895 143.515802,35.6379249 144.537345,37.1124044 L144.672744,37.3175093 L144.79515,37.521756 C146.011029,39.6745561 145.524709,41.9956855 144.031179,44.2365999 C143.094324,45.7015451 141.904164,46.7584027 140.40947,47.2570116 C139.796683,47.4614288 139.161928,47.5664141 138.503168,47.5809245 L138.512169,47.7839476 L138.514942,47.98912 L138.514942,52.252 L138.51334,52.3567672 L138.502121,52.6669145 C138.464717,53.2658303 138.344653,53.8415126 138.142464,54.3811154 L138.034529,54.6478507 L138.013706,54.692456 L138.067988,54.7543954 C138.830957,55.6549839 139.269981,56.6881844 139.172443,57.9045497 L139.147815,58.134777 L139.139349,58.183224 L139.207003,58.2072935 C141.264268,58.9687944 142.563001,60.7889025 142.709419,63.1936427 L142.720205,63.436048 L142.723273,63.65392 C142.723273,63.8005282 142.719246,63.9451434 142.711274,64.0876774 L142.696366,64.2999062 L142.69077,64.350704 L142.790822,64.3900775 C144.764242,65.1938669 146.003944,66.9917811 146.147738,69.3507865 L146.158689,69.5968053 L146.161787,69.81712 C146.161787,73.2780267 143.905852,75.6077739 140.496163,75.7033446 L140.276967,75.7064 L126.277424,75.7064 L126.276026,75.7177166 C126.141023,76.433448 125.942809,77.0883875 125.67165,77.6862262 L125.529947,77.9804043 L125.395771,78.230084 C124.578401,79.6772961 123.275972,80.7421968 121.608504,81.4573743 L121.31048,81.5799583 L121.138394,81.6425316 C119.442656,82.2082061 117.336873,82.5232431 114.759893,82.6231547 L114.271173,82.6393758 L114.037495,82.6438419 L113.652178,82.6405668 C110.573968,82.5570833 108.1497,81.0794552 107.039097,78.3625673 C106.692958,77.5213081 106.49891,76.7282322 106.441298,75.9918216 L106.425564,75.705544 L98.4907086,75.7058342 L98.2534578,75.7009095 C95.8424226,75.6115442 94.0373613,74.3952556 93.1946939,72.4781775 C92.9657102,73.839286 92.3550514,75.0582583 91.3751587,76.0388936 C90.1568846,77.2580909 88.5795614,77.9002435 86.8226411,77.9614107 L86.5437663,77.96624 L73.9385528,77.9652357 L73.6277224,77.9566364 C72.0081987,77.8769273 70.5480397,77.2965851 69.3910263,76.2318189 L69.2434129,76.0907083 C69.1387403,76.288448 69.0288477,76.4737111 68.913427,76.6469735 C68.3506589,77.4917652 67.7434763,78.2251895 67.0870495,78.838691 L67.1255826,78.8352399 L67.3947738,78.8250564 L67.6319379,78.82224 C70.6877537,78.82224 72.9485018,80.2252265 73.9778803,82.5945668 L74.0680558,82.8126113 L74.0932654,82.87968 L76.8231763,82.88014 L77.0830522,82.8848942 C78.1415726,82.9202049 79.0928491,83.1416187 79.9159632,83.5245591 L80.0569432,83.3646614 L80.2497224,83.1635064 C81.4679965,81.9443091 83.0453197,81.3021565 84.80224,81.2409893 L85.0811148,81.23616 L98.7329975,81.2365523 L98.9638675,81.2404672 C103.711087,81.3865951 105.787119,85.0747935 104.727116,89.9832492 C103.796251,93.8426126 102.68342,97.4998436 101.387728,100.954407 L101.059995,101.813825 L100.802481,102.465816 L101.028995,102.789323 C102.047091,104.277133 102.851799,105.82585 103.437805,107.435275 L103.60704,107.919923 L103.750618,108.367383 C104.333953,110.285506 104.61735,112.432854 104.61735,114.80848 C104.61735,115.196492 104.609489,115.576803 104.593615,115.949275 C107.066247,112.947097 110.558687,112.444365 113.835418,114.574238 L114.044267,114.713764 L114.186171,114.813616 L114.250533,114.846755 C115.100959,115.269053 115.881627,115.504514 116.603008,115.573993 L116.841287,115.591033 L117.054165,115.596 C118.120927,115.596 118.754257,115.382274 119.088461,115.070066 C119.424642,114.744483 119.637328,114.147139 119.637328,113.06224 C119.637328,112.085706 119.450728,111.485279 119.131002,111.104657 L119.09589,111.065192 L119.048783,111.024028 C118.762533,110.785183 118.390816,110.639826 117.850683,110.594865 L117.664288,110.583606 L117.464734,110.57984 C117.044973,110.57984 116.658407,110.616929 116.301264,110.689245 L116.038865,110.750057 L115.829302,110.810104 L115.657931,110.899197 C113.358974,112.055243 110.929921,112.078577 108.729127,110.896195 L108.494217,110.764894 L108.261152,110.624346 L108.176639,110.56974 L107.961707,110.425386 L107.72034,110.255695 C105.751099,108.813766 104.712854,106.70845 104.750881,104.258102 L104.75908,103.994259 L105.477576,90.5379388 L105.48698,90.4081597 L105.51578,90.1037305 C105.706837,88.4420993 106.394408,86.9811504 107.571313,85.868787 C108.778232,84.7280551 110.306809,84.1261727 111.997965,84.0659766 L112.281302,84.06096 L126.752114,84.0613195 L127.017035,84.0655426 C131.277217,84.190937 133.921703,86.9931028 133.921703,91.2856 C133.921703,95.6299324 131.224777,98.4078899 126.942085,98.5074703 L126.699112,98.51024 L127.034295,98.6488315 C128.236592,99.1639896 129.34628,99.8345102 130.355508,100.661371 L130.688185,100.942783 L130.959686,101.186146 C134.07623,104.033842 135.6153,108.007205 135.6153,112.8568 C135.6153,117.936197 133.846141,122.19851 130.336711,125.407064 C127.091023,128.356039 123.051265,129.83984 118.388514,129.83984 C113.330181,129.83984 108.899376,128.470767 105.20876,125.721227 C105.139403,125.669555 105.072027,125.61527 105.006779,125.558489 C104.052582,124.728124 103.341349,123.780467 102.947366,122.722228 C102.320487,123.862368 101.506868,124.822333 100.493496,125.58965 L100.059901,125.906779 C98.6510269,126.903235 97.0030182,127.532742 95.1025354,127.810359 L94.8047396,127.843482 L94.4564184,127.874737 L94.0545333,127.904617 L93.6671362,127.929248 L93.5686347,127.94032 C93.3718764,127.960194 93.1969119,127.974421 93.0354256,127.982623 L92.878124,127.988802 L92.7279599,127.99088 L92.5177176,127.987829 L92.3516051,127.979752 L92.3499036,128.000556 C91.9657839,131.562219 89.5131244,133.809089 85.8663189,133.988398 L85.6267997,133.997153 L85.3890414,134 C82.4587642,134 80.2459912,132.741366 79.1303677,130.583502 C78.0826111,131.302866 76.8509908,131.686995 75.5152555,131.735015 L75.2274619,131.74016 L60.1075141,131.739156 L59.7966837,131.730556 C58.0818938,131.646159 56.5457691,131.000497 55.3589848,129.812814 C54.1407107,128.593616 53.4990444,127.015098 53.4379235,125.256846 L53.4330979,124.97776 L53.4341015,113.492914 L53.4426942,113.181848 C53.4959461,112.098239 53.7728145,111.08592 54.2684586,110.187895 C53.1003515,109.622706 52.1932191,108.732754 51.6025073,107.587309 L51.6016414,124.341646 L51.5930487,124.652712 C51.5087147,126.368801 50.8635423,127.90609 49.6767581,129.093774 C48.458484,130.312971 46.8811608,130.955123 45.1242405,131.016291 L44.8453657,131.02112 L8.78640564,131.020116 L8.47557524,131.011516 C6.76078539,130.927119 5.22466061,130.281457 4.03787636,129.093774 C2.81960229,127.874576 2.177936,126.296058 2.11681506,124.537806 L2.11198944,124.25872 L2.11299301,99.2661941 L2.12158579,98.9551282 C2.20123449,97.3343771 2.78113728,95.8731117 3.84509721,94.7152214 L4.03787636,94.5140664 L4.17253194,94.383464 L4.06981973,94.3435453 C1.74373082,93.3818684 0.324435923,91.2611977 0.174918512,88.4038046 L0.164632383,88.1337785 L0.161787315,87.89584 C0.161787315,83.6874211 2.79094651,80.9783359 6.93924766,80.8794426 L7.17567214,80.87664 L46.2323454,80.8770451 L46.5010084,80.881612 C46.7251937,80.8886231 46.9447911,80.9033402 47.1596364,80.9255723 C45.8454693,80.5985104 44.6208175,79.7862776 43.4874042,78.6154116 C42.0014986,77.0752717 41.1169547,75.4574664 41.0420163,73.657583 C40.9754554,72.058911 41.5381761,70.5014448 42.5916351,68.9107693 L42.6804703,68.779648 L42.8403726,68.4997514 C44.0583694,66.3051283 45.0011196,63.6391197 45.6560503,60.4839202 L45.768636,59.9220386 L45.8697702,59.3803415 C46.3070557,57.0310301 46.6163333,54.1767502 46.7933503,50.8257231 L46.82499,50.1915862 L46.8383354,49.875744 L46.6521969,49.8327789 C43.7075259,49.1026158 41.883984,46.7849694 41.7185397,43.5017161 L41.7090927,43.2472641 L41.7062246,43.0072 C41.7062246,39.4091189 43.6096067,36.9015856 46.7390056,36.1624785 L46.9593165,36.1137907 L47.0436199,36.096712 L47.0440009,34.7898612 L47.0483418,34.525901 C47.174364,30.3640142 49.923084,27.7704 54.1088258,27.7704 C58.4384102,27.7704 61.1740317,30.5466537 61.1740317,34.89232 L61.1714657,35.93664 L66.1082617,35.9379035 L66.3724614,35.946448 C66.9270654,35.9771973 67.4570721,36.0812582 67.9531199,36.2546356 C68.2622081,35.6219274 68.6751446,35.0408555 69.1900235,34.5255864 C70.4082976,33.3063891 71.9856208,32.6642365 73.7425411,32.6030693 L74.0214159,32.59824 L86.6266294,32.5992443 L86.9374598,32.6078436 C88.6522497,32.6922415 90.1883744,33.3379028 91.3751587,34.5255864 C92.5623686,35.7136959 93.2020011,37.243036 93.2904122,38.9474089 C93.9532422,36.9481697 95.8572215,35.3901311 98.6690964,34.6237796 L98.8676752,34.57132 L99.4184828,34.4101687 C104.648391,32.8504308 108.771218,31.019328 111.780624,28.9535128 L112.11042,28.7230138 L112.431051,28.4905941 L112.562079,28.3905445 C113.762367,27.5113966 115.192572,27.0584928 116.763739,27.005314 L117.079826,27 Z M170.387632,27 C174.996919,27 177.897286,29.8766504 177.838262,34.4970751 L177.810004,35.806893 L177.77442,37.0672733 L177.731485,38.2783111 L177.681177,39.4401011 L177.636794,40.3086281 L189.670391,40.3089878 L189.937322,40.3132549 C194.215689,40.4396603 196.867578,43.260286 196.867578,47.5881223 C196.867578,51.9919093 194.172893,54.8149848 189.862117,54.9161863 L189.620973,54.9190011 L181.356434,54.9190011 L181.396153,54.9991425 C183.704917,59.6265739 186.70576,63.2045443 190.402143,65.7812927 L190.800845,66.0535439 L191.050686,66.2176325 L191.185292,66.2890581 C193.251091,67.4122902 194.731453,68.7145826 195.551619,70.3772295 L195.669683,70.6293519 L195.773091,70.8751814 C196.702203,73.3161953 196.046708,75.8183797 194.254135,78.1101526 C191.594181,81.5373171 187.654379,82.0843139 183.640045,79.8847391 C183.577449,79.8504407 183.515938,79.8141787 183.455605,79.7760064 C178.709648,76.7732732 174.715853,72.6794603 171.476056,67.5275088 L171.143594,66.9907751 L170.968213,66.7006483 L170.890425,66.8365038 C168.078148,71.6006134 164.322539,75.614589 159.64394,78.852127 L159.19717,79.1554346 L167.997599,79.1566508 L168.320264,79.1665582 C169.757891,79.2444028 171.089231,79.7312326 172.226303,80.6029363 C173.40859,81.5093032 174.268003,82.7083497 174.759455,84.1276867 C176.413206,88.9037985 178.943816,92.7506953 182.36721,95.7279355 L182.582389,95.9119737 L182.659091,95.961842 C183.577198,96.5738095 184.361916,97.2164189 185.003594,97.9065921 C185.138138,97.1649819 185.402239,96.4226295 185.777145,95.6824144 L185.856149,95.5300144 L186.008108,95.1793904 C186.773946,93.3593244 187.420276,91.2747523 187.937958,88.9475135 L188.064693,88.3606609 L188.186036,87.763773 C188.520497,85.9494903 189.475849,84.4361353 190.977537,83.4304664 C192.3756,82.4941943 194.008492,82.1629671 195.757902,82.4048449 L196.050529,82.4504589 L197.593091,82.7386586 L198.156447,82.6191853 C201.109355,81.9854445 203.634123,81.3257948 205.723992,80.645014 L206.136165,80.5085775 L206.536729,80.371586 C207.962886,79.8756756 209.372771,79.7581544 210.71716,80.0991167 L210.98515,80.1734461 L211.083635,80.2047667 C212.388344,80.6416435 213.506299,81.5218559 214.498171,82.7284589 C215.358445,83.7469546 215.927602,84.7841714 216.220706,85.7917525 L216.310644,85.739523 L216.702376,85.4987185 C218.270763,84.5182132 219.599501,83.5428013 220.688389,82.5789685 L220.979411,82.3163969 L221.185477,82.1220426 L221.235197,82.0682448 C223.536492,79.6045198 226.667682,79.0064304 229.907459,80.3532765 C234.750718,82.4210039 235.714201,86.8233124 232.252679,90.7004231 L232.084498,90.8846391 L232.008006,90.9639963 L231.697589,91.2689485 L231.349964,91.5974775 L230.964184,91.9504607 L230.539301,92.3287752 L230.074366,92.733298 L229.568431,93.1649064 L229.020548,93.6244774 L228.688421,93.8993268 C229.577232,93.9535266 230.489511,94.1699136 231.405024,94.550641 C236.243092,96.4577399 237.292523,100.800759 234.024467,104.774024 L233.865579,104.962937 L233.752752,105.08782 C232.807911,106.083249 231.808891,107.036227 230.754951,107.947339 C231.602005,107.989234 232.482216,108.172199 233.380588,108.500366 C238.056939,110.224793 239.454941,114.315518 236.898328,118.539086 L236.767199,118.750365 L236.681636,118.878448 C234.821273,121.532153 232.662967,123.943232 230.220164,126.09965 C228.115034,127.971665 225.620731,129.774087 222.737565,131.51356 L222.113791,131.885343 L221.984779,131.957589 C220.262039,132.873767 218.597542,133.298865 217.00791,133.106966 C215.0723,132.898638 213.417947,131.868283 212.171162,130.273333 C211.35877,129.272979 210.773536,128.233063 210.469321,127.167747 C210.265818,127.166803 210.065256,127.15448 209.867393,127.131229 L209.572592,127.088212 L209.424665,127.058788 L209.420659,127.395756 C209.294283,131.458135 206.605754,134 202.53698,134 C199.278767,134 196.931936,132.377827 196.041911,129.681379 L195.97295,129.460404 L195.945128,129.360821 L195.776859,129.490241 C194.664783,130.316622 193.52681,130.802616 192.295468,130.861585 L192.030155,130.867654 L191.948412,130.865535 C189.807422,130.865535 188.100085,129.650683 186.707095,127.668324 C185.407713,125.819178 184.790416,123.974783 185.14386,122.081195 C185.461117,120.381479 186.497286,118.941826 188.099681,117.608453 L188.215132,117.51323 L188.598001,117.151394 C188.895995,116.86349 189.187218,116.571648 189.471689,116.275854 L189.893334,115.829198 L189.96199,115.752449 L189.786396,115.678833 C187.649838,114.735942 186.344048,112.726086 186.198787,110.061415 L186.188141,109.79278 L186.18523,109.558028 C186.18523,107.435626 186.899503,105.70793 188.159649,104.544103 L188.140956,104.530812 C187.710776,104.237579 187.316911,103.925528 186.963269,103.593219 C186.78253,104.963358 186.178544,106.312596 185.222689,107.592818 C183.771392,109.555354 181.956922,110.748398 179.798027,110.823169 C179.622476,110.829701 179.447463,110.828753 179.272898,110.820489 L179.011374,110.802627 L178.964202,110.797255 L178.868915,112.281619 L178.799698,113.283795 L178.728993,114.247914 L178.620124,115.622837 L178.545656,116.492018 L178.431095,117.724755 L178.313074,118.872389 L178.232455,119.590277 L178.150274,120.270459 L178.06652,120.912981 L177.982907,121.50616 C177.423362,125.400605 176.614991,128.065761 175.265675,129.746505 C174.342981,130.894073 173.297314,131.812466 172.127957,132.476611 L171.833041,132.637336 L171.670888,132.716639 C170.600248,133.205502 169.344878,133.543288 167.877481,133.760032 C167.343767,133.836623 166.730266,133.893989 166.032471,133.933393 L165.413613,133.962799 L164.752837,133.983584 C164.525522,133.989095 164.291116,133.993199 164.049513,133.995925 L163.30301,134 C161.470256,134 159.823467,133.509848 158.474067,132.477067 C157.150335,131.463932 156.276443,130.074513 155.913418,128.440935 L155.852648,128.141292 L155.76697,127.952497 C155.62146,127.61962 155.498422,127.287179 155.399984,126.956498 L155.309827,126.626452 L155.285708,126.524388 L155.060787,126.792508 C153.695075,128.385404 152.189383,129.815766 150.543366,131.080936 L150.045351,131.455529 L149.674788,131.723921 C149.612465,131.76834 149.548673,131.810642 149.483521,131.850755 C147.987933,132.771566 146.491971,133.280353 144.983623,133.28328 L144.700659,133.277877 L144.575409,133.270524 C142.832581,133.135852 141.2523,132.326563 139.851026,130.975139 C137.807553,128.979412 136.857263,126.645939 137.568105,124.186484 C138.09458,122.335456 139.452698,120.889008 141.492299,119.637822 L141.816402,119.443581 L141.955501,119.336585 C144.177353,117.578087 145.936599,115.252545 147.231281,112.319364 L147.451702,111.800968 L147.407662,111.796116 C146.535944,111.683679 145.721849,111.40464 144.999308,110.956939 L144.739767,110.785265 L144.67204,110.819745 C144.188275,111.048879 143.689746,111.219697 143.173773,111.328018 L142.862075,111.385477 L142.591475,111.422637 C140.544182,111.642986 138.645387,110.839865 137.011411,109.31148 C135.150683,107.602522 134.09095,105.692606 134.165471,103.522003 C134.236289,101.601234 135.22168,99.8941538 136.901426,98.2393933 L136.97567,98.1660477 L137.264749,97.8239581 C138.76904,95.9982851 140.061218,93.9711652 141.142403,91.7369603 L141.408304,91.1740915 L141.633105,90.6724508 L141.665858,90.5851996 C142.995413,87.1208247 145.679056,85.2590502 149.035259,85.4646647 L149.276123,85.4828736 L149.369921,85.4920202 L149.380872,85.3275193 C149.518258,83.4800967 150.207324,81.9659232 151.33389,80.8996956 C149.993782,80.5304106 148.764363,79.7556319 147.70058,78.547462 C144.050104,74.2889587 145.625733,69.7420488 150.795408,66.6168719 L151.110811,66.4300224 L151.360041,66.2550548 C155.243463,63.4616797 158.0984,59.888402 159.952927,55.4761745 L160.141207,55.016742 L160.179298,54.9190011 L151.82035,54.9186318 L151.552742,54.9142927 C147.264867,54.7859172 144.623822,51.9393697 144.623822,47.5881223 C144.623822,43.20807 147.328324,40.4116559 151.629818,40.3114161 L151.870426,40.3086281 L162.82644,40.3086281 L162.837507,40.0675705 C162.850804,39.7234025 162.86277,39.3702196 162.873401,39.007954 L162.901289,37.893842 L162.921149,36.7248289 C162.923789,36.5253957 162.926094,36.3236582 162.928063,36.1196077 L162.935845,34.8674827 L162.936713,34.2858085 C162.995622,29.7883548 165.880948,27 170.387632,27 Z M98.1617873,87 L85.1617873,87 L85.1622526,125.888537 L85.1652194,125.993164 L85.2602157,125.998044 L85.3848749,126 L85.5530486,125.994873 L85.5564807,125.829097 L85.5564807,91.7852761 C85.5564807,89.3149007 87.1979491,87.4108051 89.6669946,87.1639947 L89.8689849,87.1476364 L90.1202036,87.1382904 L93.3130645,87.1367222 C95.5577901,87.1367222 97.1982773,89.2473952 96.6356095,91.4115535 L96.4057158,92.2905565 L95.9491898,94.0045746 C95.7219746,94.8470417 95.4962913,95.6678162 95.271962,96.467441 L94.9596224,97.566915 L95.0918466,97.2205398 C96.0311752,94.705703 96.8663304,92.0726518 97.593017,89.3379052 L97.8604317,88.3076405 L98.0923689,87.3724107 L98.1269044,87.2045559 L98.1556632,87.0469258 L98.1617873,87 Z M149.698946,104 L149.720747,104.109534 L149.727032,104.153722 L152.806275,104.153722 C154.89657,104.153722 156.464877,106.079616 156.178373,108.176176 L156.151052,108.346507 L156.116462,108.512991 C154.476583,115.599104 151.266006,121.085846 146.477764,124.823885 C146.357613,124.917683 146.231608,125.003117 146.100578,125.079625 C145.782076,125.265596 145.514287,125.442215 145.297714,125.604735 L145.161787,125.710148 L145.207671,125.759893 L145.308283,125.864269 L145.399142,125.952707 L145.552801,126.091168 L145.670324,126.184497 C145.686985,126.196696 145.702205,126.20732 145.716014,126.216519 L145.771168,126.249942 L145.807354,126.241254 C145.926915,126.207828 146.116834,126.128732 146.374426,125.982304 L146.541404,125.88154 L146.771227,125.710511 C151.636827,121.991934 155.063642,116.290568 157.030755,108.480314 L157.159733,107.956504 L157.284385,107.426438 L157.405986,106.885096 C157.752475,105.342594 159.042221,104.235158 160.552706,104.158022 L160.721409,104.153722 L168.942936,104.153722 C170.89256,104.153722 172.443945,105.850029 172.342701,107.871074 L172.268231,109.289854 L172.190074,110.639123 L172.107591,111.920353 L172.020142,113.13502 L171.927087,114.284597 L171.861622,115.015549 L171.757806,116.059919 L171.684574,116.722097 L171.607904,117.357531 L171.527606,117.966657 C171.500215,118.165362 171.472187,118.359756 171.443492,118.549911 L171.355371,119.107731 L171.263055,119.640553 L171.166354,120.148813 L171.065078,120.63295 L170.959039,121.093399 C170.922878,121.242982 170.885891,121.388691 170.848047,121.530597 L170.731912,121.944981 C170.652732,122.21373 170.569998,122.46756 170.483457,122.707055 L170.350758,123.055618 C170.034317,123.844183 169.669692,124.460702 169.246056,124.930142 L169.154369,125.028494 L169.06998,125.113125 C167.875355,126.270515 166.328806,126.805639 164.602378,126.805639 L163.8246,126.800979 L163.457554,126.79515 L163.255954,126.789736 L163.259849,126.810446 C163.263789,126.83452 163.265652,126.84508 163.270024,126.852384 L163.279036,126.862181 L163.295252,126.87479 C163.37798,126.940218 163.57235,127 163.989594,127 L164.616967,126.996669 L165.200097,126.986819 L165.738156,126.97066 C165.824031,126.967453 165.907993,126.963992 165.990026,126.960282 L166.45893,126.935059 L166.880696,126.904058 L167.254499,126.867492 C167.371014,126.8544 167.479397,126.840415 167.57951,126.825573 C168.357048,126.70688 168.963902,126.547897 169.390312,126.369691 L169.439121,126.347123 L169.519996,126.300316 C169.78087,126.136641 170.045062,125.913236 170.31196,125.622577 L170.472418,125.440051 L170.633496,125.241022 C170.722688,125.126218 170.822126,124.92924 170.927302,124.653842 L171.018752,124.398669 L171.112382,124.105612 L171.20756,123.775194 C171.223517,123.71704 171.239512,123.657351 171.255532,123.596139 L171.351849,123.210666 C171.367917,123.143402 171.383984,123.074636 171.400037,123.004379 L171.496074,122.565032 L171.591135,122.090425 L171.684591,121.581084 L171.775808,121.037533 L171.864158,120.460299 L171.943966,119.894004 L172.053209,119.045731 L172.160215,118.118617 L172.264953,117.11283 L172.36739,116.028534 L172.467495,114.865897 L172.565236,113.625084 L172.660581,112.30626 L172.783926,110.426766 L172.873558,108.926563 L172.989169,106.805832 L173.100258,104.547793 C173.105441,104.436941 173.115323,104.327919 173.129664,104.220872 L173.161787,104.021203 L173.083405,104.034406 L172.931561,104.051496 L172.776947,104.061877 L172.619643,104.065376 L150.508333,104.065376 C150.34566,104.065376 150.186401,104.057879 150.030794,104.043259 L149.800153,104.016034 L149.698946,104 Z M202.494284,104 L202.362875,104 L202.362038,104.06928 L202.362038,105.939832 C202.362038,107.794966 200.952565,109.309493 199.181156,109.399579 L199.014058,109.403818 L197.89081,109.403818 L198.017531,109.469674 C199.551765,110.308012 200.294319,112.331191 199.456991,114.069852 L199.373839,114.231973 L199.294005,114.371201 C198.823203,115.152615 198.32514,115.916186 197.79994,116.661826 L197.400954,117.217692 L197.161787,117.537257 L197.242916,117.482392 C199.235599,116.176683 202.11768,117.45535 202.347393,120.095815 L202.358419,120.266194 L202.362038,120.436613 L202.362038,127 L202.494284,127 L202.495958,120.176814 C202.495958,118.48569 203.591491,117.239589 204.935744,116.841487 L205.086086,116.800764 L205.161787,116.78384 L204.564443,116.405245 L204.140581,116.144393 C203.174941,115.553951 202.562874,114.505186 202.501121,113.354845 L202.495958,113.162243 L202.495958,112.538725 C202.495958,111.091721 203.353481,109.851942 204.571418,109.333723 L204.725501,109.272742 L204.823641,109.238413 L204.725501,109.205816 C203.530704,108.767798 202.647706,107.647811 202.513652,106.298146 L202.500055,106.11272 L202.495958,105.939832 L202.494284,104 Z M231.161787,114.189613 L231.114957,114.171047 L230.886634,114.08852 C230.406997,113.924625 230.27592,113.969154 230.005165,114.385013 L229.879152,114.586448 C229.831849,114.663943 229.781662,114.739539 229.728701,114.813069 C226.852523,118.806282 223.016515,122.153252 218.255974,124.853067 L218.167881,124.901341 L218.078473,124.946992 C217.81397,125.077206 217.581538,125.203156 217.381794,125.322572 L217.238125,125.410873 L217.161787,125.459341 L217.233097,125.555093 L217.451856,125.83469 L217.53353,125.929839 L217.583237,125.979344 C217.589343,125.984603 217.59448,125.988569 217.598831,125.991548 L217.616955,126 L217.766911,125.964193 C217.956458,125.914683 218.194882,125.821097 218.476792,125.678305 L218.603002,125.610888 L219.080742,125.320028 C221.300594,123.95087 223.234089,122.561023 224.886268,121.150457 L225.293455,120.797384 L225.688938,120.443448 C227.614214,118.705185 229.321093,116.790507 230.812903,114.696301 L231.13836,114.228837 L231.161787,114.189613 Z M75.1617873,113 L72.1617873,113 C73.6079113,113.626333 74.6081292,114.91516 74.7841787,116.597004 L74.8009151,116.794355 L74.8104771,117.039804 L74.8120816,117.141372 L74.8120816,119.857538 C74.8120816,121.774482 73.7784953,123.299381 72.1620892,124 L75.1617873,123.998853 L75.1617873,113 Z M60.1617873,121 L60.1617873,124.998707 L63.1617873,125 C61.5140074,124.325766 60.3741695,122.936841 60.173646,121.124038 L60.1617873,121 Z M13.1448989,99 L8.16178732,99 L8.16178732,123.999163 L13.1617873,124 C10.6852853,123.822158 8.82037222,122.217582 8.56582054,119.872445 L8.54791287,119.668808 L8.53768182,119.415542 L8.53596502,113.809193 C8.53596502,113.380187 8.61538773,112.979254 8.75867975,112.613362 C8.63377651,112.294929 8.55745624,111.950339 8.53987724,111.585004 L8.53596502,111.421729 L8.53596502,103.688424 C8.53596502,101.187667 10.3255337,99.2601533 13.0173471,99.0103075 L13.1448989,99 Z M45.1617873,99 L41.3171523,99 C43.0184782,99.1700426 44.3586902,100.55616 44.443495,102.270143 L44.4477577,102.442838 L44.4477577,107.269733 C44.4477577,109.239932 42.8491132,110.682555 41.0600928,110.732972 L41.0099664,110.732467 L40.9409311,110.788715 C40.6965222,110.975378 40.4356349,111.134706 40.1617873,111.265925 L40.3799194,111.228803 C42.4506525,110.878467 44.345464,112.41242 44.4437569,114.471733 L44.4477577,114.639829 L44.4477577,120.556667 C44.4477577,122.351832 43.0716268,123.827701 41.310161,124 L45.1617873,123.999506 L45.1617873,99 Z M194.161787,120 L193.677642,120.475091 C193.142491,120.990265 192.590296,121.495054 192.021115,121.989421 L191.913217,122.079596 L191.801707,122.165832 C191.627031,122.295725 191.475828,122.417392 191.347907,122.529104 L191.227739,122.637434 L191.161787,122.699735 L191.290843,122.899168 L191.360781,123 L191.396619,122.968207 L191.840623,122.5157 C192.348843,121.991194 192.837201,121.472209 193.305124,120.959515 L193.766215,120.448947 L194.161787,120 Z M121.045357,104 L121.137198,104.02986 C122.223331,104.405457 123.209211,104.985439 124.070851,105.771833 L124.302746,105.991424 L124.383151,106.073078 C126.067667,107.841756 126.87715,110.199619 126.87715,112.952131 C126.87715,115.804162 126.032049,118.214064 124.211139,120.003904 C122.471897,121.65712 120.170578,122.445635 117.482857,122.445635 C115.393922,122.445635 113.300759,121.861336 111.226998,120.74052 C111.120041,120.682712 111.01623,120.619175 110.915999,120.550189 L110.768392,120.44266 C110.695367,120.386411 110.627194,120.337146 110.564167,120.294454 L110.473524,120.235297 L110.400481,120.190928 L110.295193,120.32049 L110.161787,120.501892 L110.304933,120.601683 C112.46273,122.067069 115.005317,122.86351 118.001711,122.98392 L118.41313,122.996149 L118.812721,123 C121.803834,123 124.188279,122.110774 126.128725,120.320725 C128.162975,118.432366 129.161787,115.989122 129.161787,112.744244 C129.161787,109.682602 128.342848,107.535978 126.734618,106.043936 C125.468264,104.860971 123.820482,104.1824 121.67392,104.02914 L121.34818,104.010093 L121.045357,104 Z M96.4440574,109 L96.5312199,109.356663 C96.7914311,110.490958 96.9228285,111.646751 96.9228285,112.82083 C96.9228285,115.402701 96.2456581,117.440494 94.4295896,118.663117 L94.1095237,118.865914 C93.8890012,118.996861 93.6604768,119.111145 93.4235151,119.209703 L93.1617873,119.310069 L93.2423057,119.677893 L93.3026023,120 L93.5780905,119.975612 C94.3408422,119.865026 94.9465226,119.644171 95.43503,119.319264 L95.6958577,119.133167 C96.5595801,118.532672 97.1617873,116.868422 97.1617873,113.835434 C97.1617873,112.123513 96.9666282,110.659595 96.5958679,109.452635 L96.5402387,109.278239 L96.4817755,109.104172 L96.4440574,109 Z M164.161787,111 L162.271052,111 L162.262605,111.032938 C161.518693,113.667522 160.596987,116.104072 159.496978,118.338705 L159.21826,118.893154 L159.161787,119 L159.25607,118.982181 C159.748892,118.896577 160.272858,118.857739 160.825572,118.858658 L161.16063,118.863924 L161.928324,118.895732 C162.018578,118.898772 162.111289,118.901514 162.206445,118.903955 L162.806624,118.914978 L163.140724,118.917035 L163.208528,118.656208 L163.29661,118.269581 L163.384269,117.835185 L163.471053,117.353832 L163.556513,116.826333 L163.600727,116.531103 L163.68703,115.907625 C163.701177,115.800048 163.715205,115.690641 163.729113,115.579406 L163.811123,114.890075 C163.824551,114.771537 163.837858,114.651175 163.851043,114.528992 L163.928694,113.774061 L164.003403,112.975535 L164.075138,112.133527 L164.161787,111 Z M216.740139,113 L216.615293,113.21447 L216.461903,113.453759 L216.298934,113.686161 L216.126396,113.911455 C215.901008,114.193209 215.66049,114.446149 215.406532,114.670528 L215.213569,114.833463 L215.161787,114.872332 L215.230372,114.937876 C216.129811,115.822424 216.801815,116.832683 217.165699,118 C219.081842,116.51326 220.745575,114.862134 222.161787,113.04772 C220.88848,113.728101 219.534887,113.924184 218.183881,113.583685 C217.839975,113.497009 217.507716,113.379362 217.188456,113.231922 L216.951469,113.115775 L216.740139,113 Z M63.1617873,113 L60.1617873,113.000302 L60.162087,117 C60.3236456,115.181241 61.4402489,113.705985 63.1617873,113 Z M25.4943377,112 L25.3751418,112.255852 C24.5650561,113.938512 23.5575341,115.454634 22.3510564,116.795097 L22.1617873,117 L29.1617873,117 L29.0159359,116.916023 C28.2177582,116.435239 27.522055,115.818954 26.935038,115.051572 L26.7621998,114.816808 C26.2805156,114.119593 25.8996336,113.309404 25.6063378,112.377427 L25.4943377,112 Z M20.1617873,104 L20.1105705,104.364804 C19.9056496,105.705228 19.5506645,106.93263 19.0402947,108.035387 C18.3712273,109.515058 17.4042774,110.837869 16.1617873,112 C16.2424072,111.963084 16.3334468,111.914743 16.4326688,111.855288 L16.5417995,111.786244 L16.6171817,111.720236 C18.5130802,109.979094 19.6871979,107.566385 20.1156599,104.372052 L20.1617873,104 Z M46.1567003,87.0029862 L45.9400518,87 L7.27075101,87.0008811 L7.16557548,87.0047057 L7.16315913,87.0540185 L7.16178732,87.2320898 L7.16557548,87.3408675 L7.33090347,87.3443065 L17.2505834,87.3443065 C19.0668135,87.3443065 20.5495797,88.7920969 20.6377766,90.6116623 L20.641927,90.7833029 L20.641927,95.3227781 C20.641927,97.1069739 19.3020369,98.5738243 17.5869597,98.7450709 L17.6575446,98.7445795 C19.4580413,98.7445795 20.921044,100.164405 21.0409936,101.944394 L21.0337422,102.071213 C21.0909908,100.295377 22.4686601,98.870264 24.1920807,98.7524563 C22.4825895,98.6370749 21.1205013,97.2360522 21.0360819,95.4944187 L21.0319315,95.3227781 L21.0319315,90.7833029 C21.0319315,88.9415524 22.4596604,87.4379514 24.2540128,87.3485153 L24.4232751,87.3443065 L28.2385366,87.3443065 C30.0547667,87.3443065 31.5375329,88.7920969 31.6257297,90.6116623 L31.6298801,90.7833029 L31.6298801,95.3227781 C31.6298801,97.1522581 30.2211122,98.6480793 28.443614,98.7555901 C30.1414151,98.8827538 31.4908459,100.278672 31.5748596,102.011935 L31.57901,102.183576 L31.57901,106.465126 C31.57901,107.804311 31.6637355,108.881841 31.8194265,109.677813 L31.8745903,109.937022 L31.9282886,110.153321 L31.9773176,110.325652 L32.0350972,110.499394 L32.064348,110.568254 C32.1747576,110.709242 32.7817864,110.930545 33.9952617,111 C33.4294284,110.728981 32.9223286,110.297643 32.4877195,109.636569 C31.9200188,108.773053 31.7980197,108.06783 31.7709171,106.85819 L31.7666579,106.609341 L31.7655339,102.183576 C31.7655339,100.341825 33.1932628,98.8382243 34.9876152,98.7487882 L35.2285701,98.7451813 C33.6255435,98.5856592 32.3500382,97.2943227 32.1895393,95.6697219 L32.1766455,95.4944187 L32.1724951,95.3227781 L32.1724951,90.7833029 C32.1724951,88.9415524 33.600224,87.4379514 35.3945764,87.3485153 L35.5638387,87.3443065 L46.0523726,87.3438324 L46.1567003,87.3391481 L46.1617873,87.1723567 L46.1567003,87.0029862 Z M229.122434,100.009594 C228.930785,99.974833 228.83907,100.033198 228.672838,100.206485 L228.596526,100.287851 C228.531294,100.358369 228.462563,100.426247 228.390539,100.491281 C226.244544,102.429021 223.768801,104.107741 220.964971,105.53018 L220.399831,105.811252 L220.161787,105.924835 L220.22792,106 L220.30709,105.962641 C223.694849,104.275923 226.625403,102.310924 229.108715,100.067115 L229.161787,100.017467 L229.122434,100.009594 Z M126.942775,90.0030982 L126.721806,90 L111.908026,90.000359 L111.903608,90.0473735 L111.162158,103.484689 L111.161787,103.592642 C111.165461,103.648577 111.1784,103.677092 111.209146,103.706062 L111.275203,103.757298 L111.398036,103.84125 L111.503356,103.908952 L111.534119,103.92661 C111.716423,104.026645 111.833026,104.031507 112.10851,103.896963 L112.219703,103.839888 L112.334687,103.776918 C112.507398,103.680377 112.688246,103.598154 112.875295,103.531131 L113.248188,103.404529 L113.625933,103.290169 L113.785589,103.24733 L113.767367,103.233004 C113.032184,102.62617 112.547445,101.730505 112.529926,100.703775 L112.532716,100.496729 L112.543443,100.336806 L113.126592,93.8744521 C113.280676,92.1669173 114.714275,90.8434104 116.465212,90.7570739 L116.647436,90.7525907 L126.773021,90.7525907 C126.870894,90.7525907 126.958232,90.7495377 127.03512,90.7441978 L127.142624,90.7345686 L127.153112,90.630045 L127.160765,90.4677685 C127.161437,90.4384677 127.161787,90.4080375 127.161787,90.3764749 C127.161787,90.2838237 127.158752,90.2008087 127.153402,90.1273707 L127.142349,90.0174552 L127.056482,90.0091179 L126.942775,90.0030982 Z M149.161787,92.1736111 L149.015869,92.1307745 L148.620695,92.0330238 L148.484334,92.007833 C148.217165,91.9709422 148.122426,92.0570658 147.978054,92.4228665 L147.824222,92.8445272 C147.798199,92.9179388 147.769665,92.9904074 147.738673,93.0618012 C146.251936,96.4866161 144.356976,99.5583155 142.055916,102.266101 C141.982448,102.352554 141.904687,102.435147 141.822936,102.513557 C141.625942,102.702501 141.461577,102.87614 141.329257,103.031346 L141.236017,103.144245 L141.161787,103.23996 L141.231144,103.324165 C141.284976,103.386894 141.347003,103.454642 141.417774,103.527334 L141.530557,103.640071 L141.656866,103.760167 C141.717128,103.817145 141.772962,103.866654 141.824043,103.909193 L141.940783,104 L142.009131,103.952262 C142.118715,103.870489 142.244389,103.762888 142.38916,103.623528 L142.501367,103.512962 L142.632466,103.377384 L142.870591,103.089615 L142.979952,102.951816 C143.644707,102.114197 144.536043,101.722936 145.423547,101.695473 L145.600929,101.694806 L145.643077,101.696365 L145.629181,101.650521 C145.366422,100.736269 145.446476,99.6810882 145.96319,98.6283106 L146.072383,98.4178295 L146.163496,98.2576635 C147.166607,96.6056926 148.049463,94.8798233 148.81248,93.0788183 L149.07413,92.4440342 L149.126503,92.2934791 L149.161787,92.1736111 Z M168.352817,86 L156.161787,86 L156.161787,86.0344745 L165.449556,86.0344745 C166.917045,86.0344745 168.233403,86.9106577 168.762285,88.2394662 C170.273026,92.0351806 172.199763,95.4251306 174.527899,98.4010771 L174.94291,98.9219449 L175.360138,99.4278054 C176.003648,100.208018 176.226905,101.118245 176.120526,101.975367 L176.092719,102.158157 L176.070872,102.260761 L176.097396,102.257303 C176.66819,102.170709 177.270238,102.218869 177.855754,102.42892 L178.074454,102.51533 L178.22466,102.584211 C178.61265,102.772528 178.914026,102.985296 179.240633,103.257052 L179.419732,103.408917 L179.499737,103.480297 L179.525667,103.499239 C179.776484,103.675443 180.00063,103.813204 180.194189,103.914106 L180.333562,103.982897 L180.373379,104 L180.408545,103.966288 C180.452945,103.920729 180.501308,103.86768 180.553388,103.806663 L180.634263,103.709103 L180.720527,103.599234 C180.922674,103.337593 181.051915,103.123251 181.122441,102.962335 L181.161787,102.856308 L181.136959,102.822176 L181.095769,102.772618 L180.984442,102.655044 L180.833407,102.514375 L180.64133,102.352427 C180.499301,102.237772 180.32902,102.110142 180.128707,101.971959 L179.805492,101.757073 L179.626574,101.644261 C179.50017,101.56594 179.379004,101.479925 179.263803,101.386734 C174.494924,97.5289761 171.003338,92.5026533 168.807406,86.3741195 C168.750987,86.2166641 168.687115,86.1305493 168.568836,86.0429251 C168.536823,86.0192096 168.519555,86.0100067 168.478377,86.0050799 L168.352817,86 Z M52.8444192,91 L52.7486183,91.1609887 C52.1932556,92.0503582 51.4448627,92.7604454 50.5326008,93.2604831 L50.2797611,93.391626 L50.1617873,93.4464802 L50.208507,93.490224 L50.4065637,93.6906385 C51.6069816,94.9571642 52.2392431,96.5969598 52.2994682,98.4234656 L52.3042231,98.7133857 L52.3039196,100 C53.0284512,98.5318184 54.2337902,97.4776919 55.804251,96.9596772 L56.0552359,96.8823585 L56.1617873,96.8522287 L56.1325511,96.7119092 C56.0291891,96.1855773 55.977543,95.6635625 55.9805284,95.1502348 L55.9888987,94.8433155 L55.9940671,94.7607612 L55.8393708,94.6864056 C54.3895061,93.9519626 53.3527304,92.6723632 52.8444192,91 Z M220.161787,98 L219.922656,98.01768 C219.594402,98.037562 219.265229,98.0428314 218.935205,98.0329059 L218.604898,98.0178939 C218.556805,98.0149669 218.508846,98.0117128 218.461022,98.0081341 C218.41738,98.3433393 218.318967,98.67489 218.161787,99 C218.680634,98.7602778 219.185559,98.5128403 219.676082,98.2577031 L220.161787,98 Z M156.986078,92 L156.979656,92.0619764 C156.908707,92.6571265 156.764084,93.2745455 156.542956,93.9086905 L156.426003,94.2271312 L156.391139,94.3137985 C156.194004,94.7842907 155.989523,95.2505937 155.77787,95.7124183 L155.455036,96.4017601 L155.161787,97 L166.161787,97 L166.056975,96.8267638 C165.368806,95.6744716 164.726475,94.4821864 164.129986,93.2501839 L163.777593,92.5062185 L163.547422,92.0008277 L156.986078,92 Z M227.138999,86.0105699 C226.926853,85.972654 226.811322,86.0359151 226.637624,86.2137867 L226.559169,86.2970735 C226.498071,86.3636708 226.434105,86.42776 226.367441,86.4891716 C224.882098,87.8574792 223.067513,89.1818417 220.923364,90.4721933 L220.42271,90.7693675 L220.297723,90.8389794 L220.161787,90.9117869 L220.214518,90.9588451 L220.26543,91 L220.357098,90.9596137 L220.49854,90.8890301 L220.680653,90.7876318 C222.059194,89.9589136 223.39214,89.0559614 224.62916,88.1177131 L225.124664,87.723519 L225.798814,87.1776083 L226.389074,86.6872145 L226.735442,86.3917172 L227.161787,86.0155624 L227.138999,86.0105699 Z M194.402349,88 L194.295825,88.46021 L194.161787,89 L194.197663,88.9526631 C194.396262,88.6985272 194.636926,88.4727969 194.910473,88.2824397 L195.078474,88.1725259 L195.161787,88.1234663 L194.402349,88 Z M68.3118216,84.0018861 L68.1891749,84 L68.0659561,84.00199 L68.0119191,84.0047153 L68.0101287,84.1320296 L68.0101287,84.6978708 C68.0101287,86.1191673 67.2639658,87.3568754 66.1617873,88 L70.1617873,87.9993805 C69.1676191,87.4188155 68.4633306,86.3543984 68.3354206,85.1079374 L68.3188897,84.8861454 L68.3145073,84.6978708 L68.3140369,84.0674537 L68.3118216,84.0018861 Z M53.3628153,78.2468736 L53.1441974,78 L53.1327263,78.0126765 C52.2136828,78.9092537 51.2102771,79.5220454 50.0763498,79.7931227 L49.8313508,79.8459592 L49.5979457,79.8858805 C49.1087146,79.9707224 48.629967,79.9957789 48.1617873,79.9657055 C50.5999913,80.449706 52.2998119,81.8976644 52.9659899,84 C54.0479353,82.5353165 55.8796438,81.6618189 58.2177707,81.5991246 L58.4897882,81.5955013 L61.2204363,81.5955013 L61.2924457,81.4336327 C61.5197467,80.9421918 61.8114109,80.4961126 62.1617873,80.0995333 C61.4078921,80.2294997 60.5265543,80.3204837 59.5026274,80.3799159 L59.1119414,80.4007384 L58.9268976,80.4052451 C57.1752232,80.4052451 55.5997853,79.980501 54.3179419,79.0744951 C53.9635676,78.8240236 53.6448424,78.5471766 53.3628153,78.2468736 Z M120.004774,59.0891346 L120.028454,59 L119.18502,59.0333333 L119.222945,59.1263767 C119.294535,59.3193844 119.345472,59.5198943 119.373607,59.7261737 L119.394062,59.934312 L119.399161,60.1033333 L119.399161,61.3033333 C119.399161,62.1272546 119.036822,62.8813573 118.436435,63.4631022 L118.281451,63.6048883 L118.19209,63.6783333 L118.281451,63.7517784 C118.876539,64.26597 119.274277,64.9369575 119.374372,65.6819993 L119.394216,65.8869664 L119.399161,66.0533333 L119.399161,67.2533333 C119.399161,68.0772546 119.036822,68.8313573 118.436435,69.4131022 L118.281451,69.5548883 L118.161787,69.6533333 L118.281451,69.7517784 C118.876539,70.26597 119.274277,70.9369575 119.374372,71.6819993 L119.394216,71.8869664 L119.399161,72.0533333 L119.399161,72.5033333 C119.399161,73.3754223 119.11777,74.1433107 118.628031,74.7772342 L118.489356,74.9467787 L118.440575,75 L118.636912,74.9587187 L118.881018,74.901205 L119.011282,74.8666667 L119.05685,74.851868 C119.381206,74.7383732 119.550077,74.6493958 119.621173,74.597853 L119.645825,74.5780929 L119.659513,74.5631425 L119.688362,74.5042703 C119.694495,74.4894639 119.701201,74.4721578 119.708345,74.4523484 L119.7554,74.3034231 C119.763762,74.2735859 119.772293,74.241238 119.78086,74.2063759 C119.84646,73.9394163 119.892199,73.6018862 119.912214,73.2167097 L119.92109,72.9800697 L119.924414,72.7033333 L119.924414,72.0533333 C119.924414,71.229412 120.286752,70.4753094 120.88714,69.8935645 L121.042124,69.7517784 L121.161787,69.6533333 L121.042124,69.5548883 C120.447036,69.0406966 120.049298,68.3697092 119.949202,67.6246674 L119.929358,67.4197003 L119.924414,67.2533333 L119.924414,66.0533333 C119.924414,65.229412 120.286752,64.4753094 120.88714,63.8935645 L121.042124,63.7517784 L121.131484,63.6783333 L121.042124,63.6048883 C120.447036,63.0906966 120.049298,62.4197092 119.949202,61.6746674 L119.929358,61.4697003 L119.924414,61.3033333 L119.924414,59.7533333 C119.924414,59.601864 119.936698,59.452642 119.960508,59.3063321 L120.004774,59.0891346 Z M54.4014294,34.0018943 L54.282651,34 L54.1638875,34.0018596 L54.0676901,34.0059781 L54.0644951,34.0621647 L54.0617426,34.2220419 L54.0617426,38.7312012 C54.0617426,40.5606519 52.6309622,42.0542114 50.8327748,42.1430503 L50.6631508,42.1472309 L48.9184649,42.1477241 L48.765887,42.1532089 L48.7618547,42.2475438 L48.7604128,42.4306957 L48.765887,42.5844827 L48.8217868,42.588548 L48.9808479,42.5913147 L50.5611931,42.5913147 C52.4634309,42.5913147 53.9952843,44.1605406 53.9591723,46.0721941 L53.9284637,47.3909833 C53.916409,47.824496 53.9025344,48.2519256 53.8868359,48.6732737 L53.8342643,49.9190747 C53.8052384,50.5328545 53.7720994,51.1329543 53.7348334,51.7193794 L53.6547946,52.8739985 C53.4551786,55.5255738 53.1654843,57.8794233 52.7843037,59.9360879 C51.969893,64.4755385 50.6349023,68.3687658 48.7557894,71.6066306 L48.6843992,71.7241353 L48.608356,71.8386529 C48.4340476,72.0900308 48.303115,72.3093563 48.2129456,72.4911968 L48.1617873,72.5994278 L48.1737712,72.6175408 C48.2342745,72.7045579 48.3116371,72.8036768 48.4061254,72.9130635 L48.5063321,73.0258049 L48.5891602,73.1143943 L48.7001789,72.9601255 L48.7480444,72.8889363 L48.9254783,72.5801961 C49.5230627,71.5219902 50.0083318,70.5435691 50.3821554,69.6487582 L50.5171169,69.3171309 L50.5470777,69.2374935 C50.5842276,69.0613408 50.6358543,68.8851952 50.7027594,68.7103494 C51.7992786,65.8447714 52.658267,62.4231657 53.2604275,58.5083357 C53.7128838,55.1827727 54.0328849,51.6158012 54.2192567,47.8165298 L54.263065,46.8618776 L54.3023396,45.8713161 C54.3727157,44.096327 55.7816061,42.6821749 57.5281908,42.5955238 L57.6982357,42.5913147 L60.1962006,42.5913147 C61.7257692,42.5913147 63.1393875,43.2683284 63.9744775,44.6209079 L64.1420802,44.9127259 C64.6482703,45.86115 64.7980319,46.9101712 64.7740631,48.2139976 L64.6731601,52.0840007 L64.5881664,54.8502263 L64.4829433,57.7188233 L64.4037389,59.5317688 L64.3211268,61.1483431 L64.2525617,62.3004162 L64.1637338,63.5642761 L64.0881919,64.5087018 L64.0283574,65.182606 L63.9653732,65.8167365 L63.8985662,66.4125425 C63.8870758,66.5087303 63.8753981,66.6033816 63.863519,66.6965266 L63.7897164,67.2375632 L63.710409,67.7438983 L63.6249237,68.2169814 C63.388128,69.4354883 63.0782589,70.314765 62.6378971,70.9784819 C61.690343,72.4437373 60.2677393,73.3702953 58.5884095,73.5321817 L58.6803622,73.9540399 L58.6870177,73.9917807 L58.8016737,73.9985409 L58.8902917,74 L59.0747005,73.9898579 C59.2605049,73.9780027 59.4373756,73.9648793 59.6055175,73.9505032 L60.0839626,73.9036325 C60.3857423,73.8699007 60.6534282,73.83122 60.8886619,73.7877143 L61.0590281,73.7541823 L61.2173786,73.7188525 C61.7501429,73.6041029 62.0954069,73.4652887 62.2745674,73.338206 C62.5797507,73.1234816 62.9414595,72.7312144 63.3329299,72.140996 C63.3770186,72.0745236 63.4244665,71.966764 63.4741755,71.8193423 L63.5348412,71.6235023 L63.5972559,71.3902107 C63.6077807,71.3482424 63.6183607,71.3047397 63.6289873,71.2597155 L63.725645,70.8137682 L63.8233913,70.2877665 L63.8884573,69.893664 L63.9529529,69.4655417 L64.0164562,69.0040236 L64.0785456,68.5097337 L64.1387994,67.9832961 L64.1967959,67.4253345 L64.2521134,66.8364732 L64.3043301,66.217336 L64.417857,64.682171 L64.4658684,63.9452013 L64.544706,62.5796164 L64.6373349,60.7147475 L64.7277722,58.6036562 L64.8592368,54.9765227 L64.9992713,50.3002295 L65.1066103,46.0710902 L65.1586863,43.7942549 C65.1673359,43.3073928 65.1577292,42.8768283 65.1318931,42.505676 L65.1144601,42.290139 L65.0986692,42.1472309 L57.8511723,42.1472309 C56.0432631,42.1472309 54.5742018,40.7310908 54.459717,38.9568639 L54.4529006,38.7840822 L54.454746,38.6092778 L54.4748807,37.8790285 L54.4926355,36.7139735 L54.502872,34.9495115 L54.5035595,34.2732824 L54.5000038,34.1056214 L54.4925141,34.0059781 L54.4014294,34.0018943 Z M170.300038,33 C170.134842,33 169.993473,33.0082162 169.875761,33.0221734 L169.765927,33.0379525 L169.703152,33.050265 C169.691471,33.1118715 169.681985,33.178377 169.675097,33.2506474 L169.666762,33.3634846 L169.662671,33.4853176 L169.658732,34.7613155 L169.646896,35.9902679 C169.644263,36.1911841 169.6413,36.3901484 169.638007,36.587165 L169.61427,37.7459267 C169.60965,37.9351695 169.604699,38.1224731 169.599415,38.3078416 L169.563711,39.3968652 L169.519994,40.4396484 L169.468234,41.4363924 L169.408401,42.3872983 L169.375449,42.8456249 L169.341953,43.2733271 C169.205282,45.0184804 167.800237,46.3773983 166.080371,46.4632545 L165.90737,46.4675637 L151.592441,46.4675637 C151.494162,46.4675637 151.406272,46.4707793 151.328689,46.4764339 L151.185043,46.4909629 L151.173611,46.5973305 L151.164088,46.7603818 L151.161787,46.900883 C151.161787,47.0018619 151.164996,47.0928551 151.170723,47.1739025 L151.181115,47.2880192 L151.191072,47.3628013 L151.31212,47.3770612 L151.424717,47.3833483 L151.592441,47.3862006 L164.667088,47.3862006 C166.891929,47.3862006 168.533395,49.476372 168.018951,51.6543169 C165.999218,60.2050396 161.515159,66.9533125 154.63957,71.7457711 C154.550552,71.8078189 154.458676,71.8656093 154.364248,71.9189496 C153.611971,72.3438946 153.044557,72.7472663 152.663952,73.1083439 C152.570792,73.1967237 152.496609,73.274375 152.439013,73.3402214 L152.376231,73.414824 L152.43994,73.5064659 L152.499896,73.5849403 L152.570874,73.6710929 L152.659779,73.7630234 C152.947518,74.0296995 153.308509,74.0577007 154.14905,73.6612031 L154.430898,73.5216659 C154.480688,73.4959856 154.531924,73.4690753 154.584666,73.4409078 L154.81976,73.311694 L155.148421,73.0942393 C160.698515,69.3553867 164.683977,64.4046284 167.161149,58.1689896 L167.353583,57.6740316 L167.530819,57.198256 C168.604205,54.2551749 172.700137,54.1434522 173.930415,57.0236974 C177.071722,64.3779185 181.354818,69.7914972 186.784754,73.3552707 L187.081752,73.5465531 L187.145742,73.5820531 C188.157153,74.1228973 188.461766,74.1247337 188.859455,73.6691005 L188.923138,73.5933686 L188.985867,73.5142394 C189.15046,73.3034617 189.270008,73.1229299 189.35092,72.9767205 L189.394882,72.8931461 L189.414172,72.8515089 L189.313869,72.760297 L189.151438,72.629274 C189.089512,72.5818721 189.019724,72.5308771 188.941839,72.476692 L188.683652,72.3049691 C188.542176,72.2147255 188.381948,72.118211 188.20217,72.0167858 L188.015846,71.913774 L187.833448,71.8167288 C187.740127,71.7679734 187.649072,71.7149446 187.560571,71.6578091 C181.204487,67.5543854 176.464474,61.3359693 173.342391,53.0979991 L173.14107,52.5578779 L172.95238,52.0341104 C172.156617,49.8252205 173.727648,47.4946643 176.029613,47.3898709 L176.191381,47.3862006 L189.731134,47.3862006 C189.827926,47.3862006 189.914318,47.3830158 189.990416,47.377435 L190.096855,47.3673652 L190.131642,47.3619347 L190.141791,47.2944367 L190.155264,47.1370499 L190.159375,47.0478508 L190.161787,46.900883 C190.161787,46.8041434 190.158715,46.7172868 190.153274,46.6402534 L190.143424,46.5320633 L190.136809,46.4900963 L190.015122,46.4767532 L189.899523,46.4703833 L189.731134,46.4675637 L173.917529,46.4675637 C171.884848,46.4675637 170.294006,44.7060415 170.488031,42.6701178 C170.513784,42.399889 170.538537,42.1220114 170.562287,41.8365257 L170.630522,40.9572848 C170.641392,40.8069541 170.65201,40.6547315 170.662375,40.5006221 L170.721537,39.5533643 L170.774622,38.561066 L170.821607,37.5239708 C170.828928,37.347402 170.835994,37.1689768 170.842804,36.9887003 L170.880597,35.8848659 L170.912232,34.736843 L170.937689,33.5448749 C170.939398,33.4107695 170.935138,33.2947335 170.926648,33.1965424 L170.916813,33.1042914 L170.908121,33.0493984 L170.887089,33.0450998 C170.80015,33.028582 170.694962,33.0156496 170.571464,33.0079466 L170.441861,33.0020475 L170.300038,33 Z M86.1617873,39 L73.1617873,39 L73.1617873,71 L86.1617873,71 L86.1617873,39 Z M80.3118616,40 C82.8892518,40 84.8758313,41.6382629 85.1333333,44.1024867 L85.1504003,44.3040826 L85.1601511,44.5548107 L85.1617873,44.6585635 L85.1617873,66.3414365 C85.1617873,68.9891473 83.2347993,70.9046809 80.51715,70.9965465 L80.3118616,71 L78.011713,71 C75.4343229,71 73.4477433,69.3617371 73.1902413,66.8975133 L73.1731743,66.6959174 L73.1634235,66.4451893 L73.1617873,44.6585635 C73.1617873,42.1828687 74.867346,40.2746731 77.432794,40.0273313 L77.6426709,40.0109377 L77.9036983,40.0015717 L80.3118616,40 Z M92.1628492,42 L92.1617873,67 C92.7564672,65.7428167 93.7578384,64.8140449 95.0562029,64.3283553 L95.3157408,64.2378866 L95.3024248,64.0010998 L95.2987204,63.8906567 L95.2957484,63.6675262 C95.2957484,61.8306381 95.9011448,60.308512 96.9549659,59.2652352 L97.1163827,59.1123556 L97.168374,59.0654584 L97.1370948,58.9422361 C96.55851,56.422186 97.3004894,54.3876973 98.8810346,53.2196575 L99.0418665,53.1057558 L99.1617873,53.026605 L99.1245057,52.88949 C99.0193531,52.4714063 98.9502076,52.0379715 98.9171313,51.5921312 L98.899088,51.2554709 L98.8943884,50.9715663 L98.8953657,47.6479102 L98.9011128,47.4246911 C98.1171046,47.4673326 97.3713131,47.381454 96.6707358,47.1499823 C95.1259031,46.6655244 93.9171934,45.546424 93.0253407,43.9926078 C92.68976,43.4108055 92.4321471,42.8379991 92.2485173,42.278576 L92.1628492,42 Z M132.10492,48 L131.27165,48.0003439 C131.361906,48.2195177 131.42958,48.4499939 131.472267,48.6905449 L131.499614,48.8732803 L131.514938,49.0432457 L131.52492,49.2926098 L131.52492,49.4398691 C131.52492,49.9560282 131.41742,50.4425325 131.218654,50.8861009 C131.40266,50.8942454 131.58026,50.9109167 131.751268,50.9354008 L132.002811,50.9778971 L132.10492,51 L132.10492,48 Z M106.834261,48 L106.489314,48.0000304 L106.489314,50.9995169 L106.782917,51 C106.692494,50.7714608 106.624706,50.5311187 106.581967,50.2802571 L106.554619,50.0899229 L106.539296,49.9128899 L106.533841,49.8152826 L106.529314,49.6531565 L106.529314,49.4997736 C106.529314,48.969886 106.635498,48.4642302 106.834261,48 Z M128.161787,38 L128.208761,38.0994009 C128.469328,38.6982178 128.539621,39.3636036 128.44088,40 C128.83562,39.4829269 129.373897,39.0998257 129.977454,38.9051593 L130.161787,38.8513835 L129.904469,38.7491368 C129.50977,38.588788 129.120027,38.424359 128.735243,38.2558422 L128.161787,38 Z M110.161787,38 L109.377014,38.2323078 L108.525687,38.4763842 L108.161787,38.577169 L108.197828,38.5821028 C108.734192,38.6669566 109.243057,38.8092379 109.70406,39 C109.769462,38.6566684 109.920454,38.3180773 110.161787,38 Z" id="加拿大西部5分彩" fill="#FFFFFF" fill-rule="nonzero"></path>
            <path d="M59.1176639,78 C60.4350093,77.9299781 61.4675234,77.8074398 62.2152059,77.6323851 C63.212116,77.4223195 64.0132045,77.107221 64.6184713,76.6870897 C65.33055,76.1969365 66.0070247,75.4792123 66.6478954,74.5339168 C67.4311819,73.3785558 67.9830429,70.5776805 68.3034782,66.131291 C68.6239136,62.1400438 68.9087451,54.6301969 69.1579726,43.6017505 C69.1935765,41.6411379 68.9799529,40.2407002 68.5171018,39.4004376 C68.1254586,38.7002188 67.4845878,38.3501094 66.5944895,38.3501094 L66.5944895,38.3501094 L57.9427341,38.3501094 C57.9783381,37.3698031 57.99614,35.8468271 57.99614,33.7811816 C57.99614,31.2603939 56.7322004,30 54.2043213,30 C51.6764421,30 50.4125026,31.2428884 50.4125026,33.7286652 L50.4125026,33.7286652 L50.4125026,38.3501094 L48.650108,38.3501094 C46.1222288,38.3501094 44.8582892,39.5929978 44.8582892,42.0787746 C44.8582892,44.5645514 46.1222288,45.8074398 48.650108,45.8074398 L48.650108,45.8074398 L50.3056908,45.8074398 C50.198879,51.3391685 49.8072357,55.8905908 49.130761,59.4617068 C48.3474745,63.7330416 47.083535,67.3391685 45.3389423,70.2800875 C44.5200519,71.4354486 44.1284086,72.4332604 44.1640126,73.273523 C44.1996165,74.1137856 44.7158735,75.0415755 45.7127836,76.0568928 C46.8165055,77.1772429 47.8312175,77.6498906 48.7569197,77.4748359 C49.6114141,77.3347921 50.5015124,76.5820569 51.4272146,75.2166302 C52.4241247,73.536105 53.1896092,71.9956236 53.7236682,70.595186 C54.4357469,71.9606127 54.9698058,73.4835886 55.3258451,75.1641138 C55.4682609,76.0393873 55.8688051,76.7308534 56.5274778,77.238512 C57.1861506,77.7461707 58.0495459,78 59.1176639,78 Z M85.8596483,74 C86.841823,74 87.6377231,73.696 88.2473488,73.088 C88.8569745,72.48 89.1617873,71.6862222 89.1617873,70.7066667 L89.1617873,70.7066667 L89.1617873,39.2933333 C89.1617873,38.3137778 88.8569745,37.52 88.2473488,36.912 C87.6377231,36.304 86.841823,36 85.8596483,36 L85.8596483,36 L73.4639264,36 C72.4817517,36 71.6858515,36.304 71.0762258,36.912 C70.4666001,37.52 70.1617873,38.3137778 70.1617873,39.2933333 L70.1617873,39.2933333 L70.1617873,70.7066667 C70.1617873,71.6862222 70.4666001,72.48 71.0762258,73.088 C71.6858515,73.696 72.4817517,74 73.4639264,74 L73.4639264,74 L85.8596483,74 Z M80.843106,67 L78.4804686,67 C77.6013478,67 77.1617873,66.5744681 77.1617873,65.7234043 L77.1617873,65.7234043 L77.1617873,43.2765957 C77.1617873,42.4255319 77.6013478,42 78.4804686,42 L78.4804686,42 L80.843106,42 C81.7222269,42 82.1617873,42.4255319 82.1617873,43.2765957 L82.1617873,43.2765957 L82.1617873,65.7234043 C82.1617873,66.5744681 81.7222269,67 80.843106,67 L80.843106,67 Z M58.0627582,71 C56.8892954,71 55.5889718,70.9292286 54.1617873,70.7876858 C55.2718197,67.5675867 56.1281304,63.7813163 56.7307194,59.4288747 C57.2381627,55.2887473 57.5711724,50.8124558 57.7297485,46 L57.7297485,46 L60.0608164,46 C60.4731142,46 60.7585511,46.1592357 60.9171271,46.477707 C61.1074184,46.831564 61.1867064,47.5038924 61.1549912,48.4946921 C60.9964151,55.8903043 60.8061239,61.1096957 60.5841174,64.1528662 C60.3621109,67.3729653 60.0608164,69.3014862 59.6802339,69.9384289 C59.2679362,70.646143 58.7287776,71 58.0627582,71 Z M98.6250305,43.8664547 C99.2812767,44.0741918 100.110219,44.039569 101.111858,43.7625861 C103.356911,43.070129 105.532886,42.2911146 107.639781,41.4255432 L107.639781,41.4255432 L107.639781,41.5813461 C107.639781,42.6892775 108.19241,43.2432432 109.297667,43.2432432 L109.297667,43.2432432 L130.642939,43.2432432 C131.05741,43.2432432 131.264646,43.0355061 131.264646,42.6200318 L131.264646,42.6200318 L131.264646,41.6852146 C133.233385,42.4815404 135.115775,43.1393747 136.911817,43.6587175 C137.913456,43.9357004 138.751034,43.9616675 139.42455,43.736619 C140.098066,43.5115704 140.711138,42.9662604 141.263766,42.1006889 C142.161787,40.7503975 142.386293,39.6770889 141.937282,38.8807631 C141.522811,38.1536831 140.469363,37.6170288 138.776938,37.2708002 C132.698026,35.7820173 127.534404,33.6354001 123.286073,30.8309486 C122.526209,30.2769829 121.628188,30 120.59201,30 L120.59201,30 L116.965386,30 C115.894668,30 115.013917,30.2769829 114.323131,30.8309486 C110.765586,33.4622858 105.826469,35.6954602 99.505782,37.5304716 C96.2936294,38.3267974 95.3956082,39.9021374 96.8117185,42.2564918 C97.3298077,43.1220632 97.934245,43.6587175 98.6250305,43.8664547 Z M124.161787,39 L112.161787,39 C114.466872,37.7214612 116.449923,36.3881279 118.11094,35 C119.873652,36.4611872 121.890601,37.7945205 124.161787,39 L124.161787,39 Z M114.178286,79 L114.413713,78.9954783 C116.895561,78.926146 118.860357,78.6488168 120.308102,78.1634907 C121.445616,77.7128308 122.238428,77.0888401 122.68654,76.2915186 C123.134651,75.4941972 123.358707,74.2808819 123.358707,72.6515729 L123.358707,72.6515729 L123.358707,71.975583 L140.679939,71.975583 C142.334505,71.975583 143.161787,71.1435954 143.161787,69.4796202 C143.161787,67.815645 142.334505,66.9836574 140.679939,66.9836574 L140.679939,66.9836574 L123.358707,66.9836574 L123.358707,65.735676 L137.267398,65.735676 C138.887493,65.735676 139.697541,64.9036884 139.697541,63.2397132 C139.697541,61.6104042 138.887493,60.7957496 137.267398,60.7957496 L137.267398,60.7957496 L123.358707,60.7957496 L123.358707,59.1837737 C127.805352,58.9064445 131.666004,58.5251168 134.940665,58.0397907 C135.630067,57.9357923 136.017856,57.6931292 136.104032,57.3118016 C136.190207,56.9304739 135.923063,56.479814 135.302601,55.9598217 L135.302601,55.9598217 L133.027574,53.9838512 L133.182689,53.9838512 C133.872092,53.9838512 134.423613,53.7758543 134.837255,53.3598605 C135.250896,52.9438667 135.457717,52.3892083 135.457717,51.6958853 L135.457717,51.6958853 L135.457717,47.3799496 C135.457717,46.3746313 135.147486,45.5599767 134.527024,44.935986 C133.906562,44.3119953 133.096514,44 132.096881,44 L132.096881,44 L107.123283,44 C106.12365,44 105.313602,44.3119953 104.69314,44.935986 C104.072678,45.5599767 103.762447,46.3746313 103.762447,47.3799496 L103.762447,47.3799496 L103.762447,50.6039016 C103.762447,51.6092199 104.072678,52.4238744 104.69314,53.0478651 C105.313602,53.6718558 106.12365,53.9838512 107.123283,53.9838512 L107.123283,53.9838512 L131.011072,53.9838512 C124.11705,54.8851711 115.18929,55.3011649 104.227794,55.2318326 C102.228527,55.1625003 101.435715,55.9944879 101.849356,57.7277954 C102.159587,58.9757768 103.004105,59.6171005 104.382909,59.6517667 C107.760981,59.6864328 111.638868,59.6517667 116.016573,59.5477682 L116.016573,59.5477682 L116.016573,60.7957496 L102.469818,60.7957496 C100.849723,60.7957496 100.039675,61.6104042 100.039675,63.2397132 C100.039675,64.9036884 100.849723,65.735676 102.469818,65.735676 L102.469818,65.735676 L116.016573,65.735676 L116.016573,66.9836574 L98.6436355,66.9836574 C96.98907,66.9836574 96.1617873,67.815645 96.1617873,69.4796202 C96.1617873,71.1435954 96.98907,71.975583 98.6436355,71.975583 L98.6436355,71.975583 L116.016573,71.975583 L116.016573,72.443576 C116.016573,73.0329005 115.637402,73.3448959 114.879059,73.379562 L114.879059,73.379562 L113.741545,73.379562 C110.535825,73.3102297 109.415546,74.4542127 110.380709,76.8115109 C111.001171,78.3368215 112.345506,79.0648106 114.413713,78.9954783 L114.178286,79 Z M126.453454,51 L110.718335,51 C110.347303,51 110.161787,50.7380952 110.161787,50.2142857 L110.161787,50.2142857 L110.161787,50 C110.161787,49.3333333 110.397898,49 110.870121,49 L110.870121,49 L126.60524,49 C126.976271,49 127.161787,49.2619048 127.161787,49.7857143 L127.161787,49.7857143 L127.161787,50 C127.161787,50.6666667 126.925676,51 126.453454,51 L126.453454,51 Z M185.873499,77.0902136 C188.532658,78.54876 190.656532,78.253578 192.245121,76.2046676 C193.38476,74.7461211 193.730106,73.4264839 193.281157,72.2457558 C192.866742,71.2039369 191.761637,70.214209 189.965841,69.276572 C183.991367,65.4218421 179.570946,59.4487472 176.70458,51.3572871 L176.70458,51.3572871 L190.276652,51.3572871 C192.866742,51.3572871 194.161787,50.0376499 194.161787,47.3983754 C194.161787,44.7938282 192.866742,43.4915546 190.276652,43.4915546 L190.276652,43.4915546 L174.425301,43.4915546 C174.667043,40.9564619 174.822448,37.8136416 174.891517,34.0630937 C174.926052,31.3543646 173.561937,30 170.799175,30 C168.105481,30 166.741367,31.3196373 166.706832,33.9589118 C166.706832,37.7789143 166.603229,40.9564619 166.396022,43.4915546 L166.396022,43.4915546 L152.046922,43.4915546 C149.456832,43.4915546 148.161787,44.7938282 148.161787,47.3983754 C148.161787,50.0376499 149.456832,51.3572871 152.046922,51.3572871 L152.046922,51.3572871 L165.152778,51.3572871 C163.322448,59.1014742 159.316442,65.1266601 153.13476,69.4328448 C149.197823,71.6553918 148.299925,74.0168479 150.441067,76.5172132 C152.029655,78.3230326 154.239865,78.4272145 157.071697,76.8297589 C163.771397,72.4541196 168.502628,66.4810246 171.265391,58.9104741 C174.753379,67.0713887 179.622748,73.1313018 185.873499,77.0902136 Z M45.148454,128 C46.1580836,128 46.9762318,127.686833 47.6028984,127.060498 C48.2295651,126.434164 48.5428984,125.616449 48.5428984,124.607355 L48.5428984,124.607355 L48.5428984,99.2930012 C48.5428984,98.2839067 48.2295651,97.4661922 47.6028984,96.8398577 C46.9762318,96.2135231 46.1580836,95.9003559 45.148454,95.9003559 L45.148454,95.9003559 L35.8006762,95.9003559 L35.8006762,91.3072361 L46.5062318,91.3072361 C48.9432688,91.3072361 50.1617873,90.0893634 50.1617873,87.653618 C50.1617873,85.2178727 48.9432688,84 46.5062318,84 L46.5062318,84 L6.81734287,84 C4.38030583,84 3.16178732,85.2178727 3.16178732,87.653618 C3.16178732,90.0893634 4.38030583,91.3072361 6.81734287,91.3072361 L6.81734287,91.3072361 L17.0006762,91.3072361 L17.0006762,95.9003559 L8.5406762,95.9003559 C7.53104657,95.9003559 6.71289843,96.2135231 6.08623176,96.8398577 C5.45956509,97.4661922 5.14623176,98.2839067 5.14623176,99.2930012 L5.14623176,99.2930012 L5.14623176,124.607355 C5.14623176,125.616449 5.45956509,126.434164 6.08623176,127.060498 C6.71289843,127.686833 7.53104657,128 8.5406762,128 L8.5406762,128 L45.148454,128 Z M29.1617873,96 L25.1617873,96 L25.1617873,91 L29.1617873,91 L29.1617873,96 Z M40.1617873,120 L13.3970814,120 C12.573552,120 12.1617873,119.587393 12.1617873,118.762178 L12.1617873,118.762178 L12.1617873,113.295129 C12.8137481,113.810888 13.3456108,114.25788 13.7573756,114.636103 C14.3407089,115.255014 15.0612971,115.56447 15.9191403,115.56447 C16.8112971,115.598854 17.7720814,115.255014 18.8014932,114.532951 C22.0612971,111.679083 23.7598265,107.501433 23.8970814,102 L23.8970814,102 L27.705905,102 L27.705905,106.280802 C27.705905,109.375358 28.1176697,111.455587 28.9411991,112.52149 C29.8676697,113.690544 31.6862971,114.275072 34.3970814,114.275072 L34.3970814,114.275072 L38.2573756,114.275072 C38.9779638,114.275072 39.6127677,114.223496 40.1617873,114.120344 L40.1617873,114.120344 L40.1617873,120 Z M13.1617873,111 L13.1617873,103.248555 C13.1617873,102.416185 13.5828399,102 14.4249452,102 L14.4249452,102 L18.1617873,102 C18.0916119,103.803468 17.7582785,105.346821 17.1617873,106.630058 C16.3898575,108.32948 15.0565242,109.786127 13.1617873,111 L13.1617873,111 Z M37.5903587,108 L36.0189302,108 C35.6379778,108 35.3998826,107.933036 35.3046445,107.799107 C35.2094064,107.665179 35.1617873,107.285714 35.1617873,106.660714 L35.1617873,106.660714 L35.1617873,103 L40.1617873,103 L40.1617873,107.151786 C39.6538508,106.91369 39.3046445,106.735119 39.1141683,106.616071 C38.7649619,106.407738 38.5744857,106.541667 38.5427397,107.017857 C38.5109937,107.315476 38.4475016,107.53869 38.3522635,107.6875 C38.1617873,107.895833 37.9078191,108 37.5903587,108 L37.5903587,108 Z M77.7407347,108 C80.0214364,108 81.1617873,106.835031 81.1617873,104.505092 C81.1617873,102.210455 80.0214364,101.063136 77.7407347,101.063136 L77.7407347,101.063136 L75.7933663,101.063136 C76.4249452,99.4745418 76.9161733,98.203666 77.2670505,97.2505092 C77.6530154,96.2620502 77.6793312,95.4324508 77.3459978,94.7617108 C77.0126645,94.0909708 76.3898575,93.6673456 75.4775768,93.490835 L75.4775768,93.490835 L72.1617873,92.802444 L77.2670505,92.802444 C79.4424891,92.802444 80.5302084,91.6904277 80.5302084,89.4663951 C80.5302084,87.2776646 79.4424891,86.1832994 77.2670505,86.1832994 L77.2670505,86.1832994 L71.5302084,86.1832994 L71.5302084,85.6537678 C71.5302084,83.2179226 70.3196821,82 67.8986294,82 C65.4424891,82 64.2144189,83.2179226 64.2144189,85.6537678 L64.2144189,85.6537678 L64.2144189,86.1832994 L58.4249452,86.1832994 C56.2495066,86.1832994 55.1617873,87.2776646 55.1617873,89.4663951 C55.1617873,91.6904277 56.2495066,92.802444 58.4249452,92.802444 L58.4249452,92.802444 L63.951261,92.802444 L61.2670505,93.3849287 C60.2495066,93.5967413 59.5389803,94.0644942 59.1354715,94.7881874 C58.7319628,95.5118805 58.6881031,96.3856076 59.0038926,97.4093686 C59.2845943,98.8567549 59.4775768,100.074678 59.5828399,101.063136 L59.5828399,101.063136 L57.5828399,101.063136 C55.3021382,101.063136 54.1617873,102.210455 54.1617873,104.505092 C54.1617873,106.835031 55.3021382,108 57.5828399,108 L57.5828399,108 L77.7407347,108 Z M84.8313506,130 C87.2432701,130 88.4492298,128.773304 88.4492298,126.319911 L88.4492298,126.319911 L88.4492298,91.4116331 C88.4492298,90.5704698 88.8627017,90.1498881 89.6896456,90.1498881 L89.6896456,90.1498881 L92.7906849,90.1498881 C91.7914611,94.0753169 90.8266933,97.5626398 89.8963815,100.611857 C89.4484536,102.013796 89.8791535,103.52088 91.1884812,105.13311 C92.8079129,107.586503 93.6176287,110.145041 93.6176287,112.808725 C93.6176287,114.491051 93.2558408,115.56003 92.532265,116.01566 C92.1187931,116.296048 91.5502692,116.436242 90.8266933,116.436242 L90.8266933,116.436242 L90.7233253,116.436242 C90.0686615,116.401193 89.6121196,116.567673 89.3536996,116.935682 C89.0952797,117.303691 89.1038937,117.785608 89.3795416,118.381432 C89.8274695,119.748322 90.1031175,121.027591 90.2064854,122.219239 C90.2753974,123.305742 90.9472893,123.848993 92.222161,123.848993 C92.359985,123.848993 92.583949,123.831469 92.8940529,123.796421 C93.4798048,123.761372 93.9105047,123.726324 94.1861526,123.691275 C95.5988483,123.480984 96.8048081,122.990306 97.8040319,122.219239 C99.7680235,120.817301 100.750019,118.030947 100.750019,113.860179 C100.750019,111.757271 100.508827,109.899702 100.026443,108.287472 C99.3373236,106.009321 98.1313638,103.836316 96.4085642,101.768456 C98.2347318,97.4224459 99.7507955,92.7084265 100.956755,87.6263982 C101.611419,84.5421327 100.698335,83 98.2175038,83 L98.2175038,83 L84.5212466,83 C83.5220228,83 82.712307,83.3154362 82.0920991,83.9463087 C81.4718913,84.5771812 81.1617873,85.4008203 81.1617873,86.417226 L81.1617873,86.417226 L81.1617873,126.319911 C81.1617873,128.773304 82.3849751,130 84.8313506,130 Z M73.1617873,100 L61.1617873,100 L62.3456438,99.7435897 C63.3142537,99.5042735 64.0407111,99.0512821 64.525016,98.3846154 C65.0093209,97.7179487 65.1617873,96.957265 64.9824151,96.1025641 C64.6236707,94.5641026 64.157303,93.1965812 63.583312,92 L63.583312,92 L70.9555093,92 C70.7043882,93.5384615 70.2918322,95.3675214 69.7178411,97.4871795 C69.5743434,97.9316239 69.6191864,98.3418803 69.8523703,98.7179487 C70.0855541,99.0940171 70.4712044,99.3504274 71.0093209,99.4871795 L71.0093209,99.4871795 L73.1617873,100 Z M75.7811727,127 C76.7866888,127 77.6015036,126.693182 78.2256171,126.079545 C78.8497306,125.465909 79.1617873,124.664773 79.1617873,123.676136 L79.1617873,123.676136 L79.1617873,112.323864 C79.1617873,111.335227 78.8497306,110.534091 78.2256171,109.920455 C77.6015036,109.306818 76.7866888,109 75.7811727,109 L75.7811727,109 L60.542402,109 C59.5368858,109 58.722071,109.306818 58.0979575,109.920455 C57.4738441,110.534091 57.1617873,111.335227 57.1617873,112.323864 L57.1617873,112.323864 L57.1617873,123.676136 C57.1617873,124.664773 57.4738441,125.465909 58.0979575,126.079545 C58.722071,126.693182 59.5368858,127 60.542402,127 L60.542402,127 L75.7811727,127 Z M70.0417873,121 L65.2817873,121 C64.5351206,121 64.1617873,120.607843 64.1617873,119.823529 L64.1617873,119.823529 L64.1617873,117.176471 C64.1617873,116.392157 64.5351206,116 65.2817873,116 L65.2817873,116 L70.0417873,116 C70.788454,116 71.1617873,116.392157 71.1617873,117.176471 L71.1617873,117.176471 L71.1617873,119.823529 C71.1617873,120.607843 70.788454,121 70.0417873,121 L70.0417873,121 Z M117.922007,126 C121.874561,126 125.191882,124.816623 127.873972,122.449868 C130.732516,119.911609 132.161787,116.567282 132.161787,112.416887 C132.161787,108.472296 130.94426,105.419525 128.509204,103.258575 C126.321183,101.30343 123.444995,100.325858 119.880638,100.325858 C118.469012,100.325858 117.110322,100.583113 115.804567,101.097625 L115.804567,101.097625 L116.386863,94.6147757 L126.497637,94.6147757 C129.109145,94.6147757 130.4149,93.3456464 130.4149,90.8073879 C130.4149,88.2691293 129.109145,87 126.497637,87 L126.497637,87 L111.622624,87 C110.634486,87 109.822801,87.2915567 109.187569,87.8746702 C108.552337,88.4577836 108.199431,89.2467018 108.128849,90.2414248 L108.128849,90.2414248 L107.387746,103.721636 C107.317164,105.19657 107.917105,106.345646 109.187569,107.168865 L109.187569,107.168865 L109.346377,107.271768 C110.758003,108.129288 112.257856,108.112137 113.845936,107.220317 C114.798784,106.877309 115.839858,106.705805 116.969159,106.705805 C118.698401,106.705805 120.092382,107.203166 121.151102,108.197889 C122.209822,109.261214 122.739182,110.736148 122.739182,112.622691 C122.739182,114.577836 122.192176,116.069921 121.098166,117.098945 C120.004156,118.093668 118.486657,118.591029 116.545671,118.591029 C114.992882,118.591029 113.387157,118.162269 111.728496,117.304749 C109.540476,115.692612 107.670071,115.949868 106.117282,118.076517 C105.446759,118.968338 105.129143,119.757256 105.164434,120.443272 C105.199725,121.163588 105.623213,121.866755 106.434898,122.55277 C109.611057,124.850923 113.440093,126 117.922007,126 Z M163.431629,131 C165.242041,131 166.634666,130.93005 167.609504,130.79015 C168.793235,130.615275 169.768073,130.352962 170.534017,130.003212 C171.404407,129.548537 172.205167,128.866524 172.936295,127.957173 C173.806686,126.872948 174.48559,124.634547 174.973009,121.24197 C175.460428,117.919343 175.878216,112.655603 176.226372,105.450749 C176.296003,105.485724 176.391746,105.555675 176.513601,105.6606 C176.635455,105.765525 176.731198,105.852962 176.80083,105.922912 C178.089008,106.902213 179.203108,107.374375 180.14313,107.3394 C181.152783,107.304425 182.110213,106.674875 183.015419,105.450749 C184.059888,104.051749 184.390636,102.757673 184.007664,101.568522 C183.659508,100.519272 182.667263,99.4700214 181.030928,98.4207709 C176.853053,94.9232691 173.789278,90.3590293 171.839603,84.7280514 C171.561078,83.923626 171.091067,83.2678444 170.42957,82.7607066 C169.768073,82.2535689 169.002129,82 168.131738,82 L168.131738,82 L156.17257,82 C153.839923,82 152.6736,83.1716631 152.6736,85.5149893 C152.6736,87.8583155 153.839923,89.0299786 156.17257,89.0299786 L156.17257,89.0299786 L165.259449,89.0299786 C167.035046,93.6466809 169.367693,97.738758 172.25739,101.30621 L172.25739,101.30621 L149.64464,101.30621 C148.809065,101.30621 148.600172,100.95646 149.017959,100.256959 C150.306137,98.1584582 151.420237,95.9550321 152.360259,93.6466809 C153.369912,90.9536046 152.499522,89.2748037 149.749087,88.6102784 C147.207546,87.9807281 145.466765,88.9775161 144.526743,91.6006424 C143.099302,94.8533191 141.28889,97.7562455 139.095505,100.309422 C137.842143,101.498572 137.198054,102.56531 137.163238,103.509636 C137.128422,104.523911 137.720288,105.59065 138.938835,106.70985 C139.948488,107.654176 140.940734,108.073876 141.915571,107.968951 C142.820777,107.864026 143.778207,107.286938 144.78786,106.237687 C144.927123,106.097787 145.136017,105.852962 145.414542,105.503212 L145.414542,105.503212 L145.414542,105.6606 C145.414542,106.5 145.658251,107.164525 146.14567,107.654176 C146.633089,108.143826 147.294586,108.388651 148.130161,108.388651 L148.130161,108.388651 L151.994695,108.388651 C150.497623,114.649179 147.642742,119.370807 143.430051,122.553533 C141.758901,123.497859 140.784063,124.459672 140.505538,125.438972 C140.192198,126.523198 140.662209,127.677373 141.915571,128.901499 C142.785962,129.740899 143.67376,130.195575 144.578967,130.265525 C145.449357,130.3005 146.424195,129.985724 147.503479,129.321199 C153.735477,124.879372 157.93076,117.901856 160.089329,108.388651 L160.089329,108.388651 L168.497303,108.388651 C168.044699,117.132405 167.296163,122.028908 166.251695,123.078158 C165.72946,123.567809 164.998332,123.812634 164.05831,123.812634 C163.153104,123.812634 162.369752,123.795146 161.708255,123.760171 C160.280814,123.690221 159.340793,123.94379 158.888189,124.520878 C158.435586,125.097966 158.470402,125.94611 158.992636,127.06531 C159.131899,127.380086 159.218938,127.659886 159.253753,127.904711 C159.427832,128.849036 159.880435,129.600999 160.611563,130.1606 C161.342691,130.7202 162.282713,131 163.431629,131 Z M220.032792,94.9885335 C220.849508,95.0611548 221.754997,94.7888249 222.74926,94.1715438 C224.347183,93.1548456 225.891842,92.0473707 227.383237,90.8491193 C228.94565,89.5419358 230.081951,88.5252376 230.792139,87.7990246 C232.922703,85.4751429 232.567609,83.695921 229.726857,82.4613589 C227.667312,81.5899032 225.945106,81.9530097 224.56024,83.5506784 C223.033336,85.0394151 221.098073,86.5099965 218.754453,87.9624225 C217.263059,88.7975675 216.410833,89.6508678 216.197777,90.5223234 C216.02023,91.4300897 216.499606,92.4649432 217.635907,93.6268841 C218.417114,94.462029 219.216075,94.9159122 220.032792,94.9885335 Z M189.928731,101.200695 C190.893413,101.845748 191.685831,102.100374 192.305984,101.964574 C192.96059,101.828773 193.580743,101.28557 194.166443,100.334965 C195.337843,97.992402 196.423111,95.1405864 197.422246,91.779518 C200.729728,91.3042154 203.709908,90.7779875 206.362784,90.2008344 C208.292149,89.7934322 209.70472,89.4539303 210.600496,89.1823288 C213.46009,88.3675244 213.925205,86.839766 211.99584,84.5990537 C211.341234,83.8181995 210.703855,83.3259218 210.083702,83.1222207 C209.394643,82.9185196 208.602226,82.9694448 207.706449,83.2749965 C205.01912,84.1916515 201.642731,85.0573813 197.577284,85.8721857 L197.577284,85.8721857 L195.355069,85.4647835 C194.355934,85.2950326 193.494611,85.4478084 192.771099,85.923111 C192.047587,86.3984136 191.599699,87.0943924 191.427434,88.0110474 C190.772828,91.2702652 189.894278,94.1220808 188.791784,96.5664942 C188.240537,97.5510496 188.051046,98.4082918 188.22331,99.1382208 C188.395575,99.8681498 188.964049,100.555641 189.928731,101.200695 Z M209.320648,97.9318677 C210.031275,99.9434937 211.355625,100.487622 213.293699,99.5642527 C214.165833,99.168523 214.731104,98.698594 214.989514,98.1544657 C215.247924,97.6103374 215.215623,96.909566 214.89261,96.0521517 C214.020477,94.1724357 213.261398,92.6389831 212.615373,91.451794 C211.807843,90.0337627 210.628848,89.6545217 209.078388,90.3140712 C207.172616,91.138508 206.688097,92.4246295 207.624833,94.1724357 C207.850941,94.6341203 208.190104,95.3596247 208.642322,96.348949 C208.663856,96.4039114 208.688979,96.4662022 208.717691,96.5358213 L208.814595,96.7666636 C208.850485,96.8509394 208.889964,96.9425435 208.933033,97.0414759 C209.094539,97.4372056 209.223744,97.7340029 209.320648,97.9318677 Z M199.668104,96.6682907 C200.076297,98.7010629 201.269478,99.4047148 203.247645,98.7792465 C204.849019,98.2788718 205.445609,97.2624857 205.037416,95.7300881 C204.78622,94.8544324 204.582123,94.1976906 204.425126,93.7598628 C203.891335,92.2274653 202.808052,91.6958171 201.175279,92.1649184 C199.385509,92.72784 198.788918,93.853683 199.385509,95.5424476 C199.416908,95.7300881 199.479707,95.9802755 199.573906,96.2930097 C199.605305,96.3868299 199.621005,96.4493768 199.621005,96.4806502 C199.652404,96.5744704 199.668104,96.6370173 199.668104,96.6682907 Z M201.543938,130 C203.913001,130 205.097532,128.809282 205.097532,126.427846 L205.097532,126.427846 L205.097532,119.598729 C205.341406,119.808855 205.689797,120.141556 206.142706,120.59683 C206.595615,121.052105 206.944007,121.384806 207.187881,121.594932 C208.128538,122.575523 208.990807,123.048309 209.774688,123.013287 C210.558568,122.978266 211.351159,122.400418 212.15246,121.279742 C212.884082,120.299151 213.249893,119.511176 213.249893,118.915817 C213.215054,118.250416 212.744725,117.585014 211.838907,116.919613 C208.947258,114.92341 206.700133,113.452523 205.097532,112.506953 L205.097532,112.506953 L205.097532,111.876573 L210.636957,111.876573 C211.542774,111.876573 212.256977,111.605159 212.779564,111.062332 C213.302152,110.519504 213.563445,109.810327 213.563445,108.934799 L213.563445,108.934799 L213.563445,105.677835 C214.469263,106.518342 215.340242,107.446402 216.176381,108.462014 C216.698969,109.162436 217.378332,109.6002 218.214472,109.775306 C219.050611,109.950411 219.886751,109.810327 220.72289,109.355052 C224.659714,107.148722 228.056531,104.539649 230.913342,101.527833 C232.899173,99.2164393 232.515943,97.5179152 229.76365,96.4322606 C227.742979,95.5917539 226.0707,95.9769861 224.746812,97.5879574 C221.611289,100.774879 217.674465,103.296399 212.93634,105.152518 L212.93634,105.152518 L212.988599,105.20505 L205.097532,105.20505 L205.097532,103.31391 C205.097532,100.932474 203.913001,99.7417561 201.543938,99.7417561 C199.174876,99.7417561 197.990345,100.932474 197.990345,103.31391 L197.990345,103.31391 L197.990345,105.20505 L191.614781,105.20505 C189.419914,105.20505 188.322481,106.308215 188.322481,108.514546 C188.322481,110.755897 189.419914,111.876573 191.614781,111.876573 L191.614781,111.876573 L195.32515,111.876573 C193.652871,114.573199 191.614781,117.042187 189.210879,119.283539 C188.026348,120.229109 187.355695,121.122147 187.198919,121.962654 C187.042142,122.803161 187.381824,123.818773 188.217964,125.009491 C189.054103,126.200209 189.890243,126.795568 190.726382,126.795568 C191.492844,126.830589 192.416081,126.322783 193.496095,125.272149 C195.203213,123.41603 196.701297,121.612443 197.990345,119.861387 L197.990345,119.861387 L197.990345,126.427846 C197.990345,128.809282 199.174876,130 201.543938,130 Z M217.869313,128.978414 C218.717163,129.07915 219.717626,128.827309 220.870702,128.222891 C223.821219,126.510372 226.330855,124.747485 228.399608,122.934229 C230.637932,120.986659 232.604944,118.820826 234.300643,116.436732 C235.860687,114.019058 235.301106,112.323328 232.621901,111.349543 C230.383577,110.543652 228.637006,111.131281 227.382189,113.11243 C224.872553,116.47031 221.498111,119.307719 217.258862,121.624656 C215.63099,122.396969 214.647484,123.20286 214.308344,124.04233 C213.93529,125.016115 214.27443,126.141005 215.325764,127.416999 C216.071872,128.357206 216.919722,128.877677 217.869313,128.978414 Z" id="加拿大西部5分彩" fill="#BF590A" fill-rule="nonzero"></path>
        </g>
    </g>
</svg>