<?xml version="1.0" encoding="UTF-8"?>
<svg width="300px" height="300px" viewBox="0 0 300 300" version="1.1" xmlns="http://www.w3.org/2000/svg" xmlns:xlink="http://www.w3.org/1999/xlink">
    <title>斯洛伐克5分彩</title>
    <g id="斯洛伐克5分彩" stroke="none" stroke-width="1" fill="none" fill-rule="evenodd">
        <g id="Group" transform="translate(24.800000, 63.000000)">
            <circle id="Oval" fill="#6E2F04" cx="25.7" cy="108.5" r="7.5"></circle>
            <polygon id="Path-3" fill="#7E685D" transform="translate(107.131150, 147.830355) rotate(-7.000000) translate(-107.131150, -147.830355) " points="80.1460451 156.604022 136.025806 156.039828 150.5932 139.056689 63.6690991 140.490846"></polygon>
            <circle id="Oval" fill="#6E2F04" cx="201.7" cy="9.5" r="4.5"></circle>
            <polygon id="Path-4" fill="#F4B16C" transform="translate(109.300456, 120.093416) rotate(-7.000000) translate(-109.300456, -120.093416) " points="57.778187 132.019728 47.5378598 108.167105 171.063053 112.803887 155.538668 131.59943"></polygon>
            <polygon id="Path-5" fill="#DB981C" transform="translate(116.828953, 90.865805) rotate(-7.000000) translate(-116.828953, -90.865805) " points="41.7417877 77.2476689 192.517854 78.12922 171.95124 104.483941 41.1400527 99.8123092"></polygon>
            <path d="M124.7,0 C172.472631,0 211.2,38.7273691 211.2,86.5 C211.2,134.272631 172.472631,173 124.7,173 C76.9273691,173 38.2,134.272631 38.2,86.5 C38.2,38.7273691 76.9273691,0 124.7,0 Z M124.7,6 C80.2410776,6 44.2,42.0410776 44.2,86.5 C44.2,130.958922 80.2410776,167 124.7,167 C169.158922,167 205.2,130.958922 205.2,86.5 C205.2,42.0410776 169.158922,6 124.7,6 Z" id="Oval" fill="#7E685D" fill-rule="nonzero"></path>
            <path d="M173.2,68.0007441 C173.2,42.5952346 150.312874,22 122.080172,22 C109.619051,22 94.9185882,25.4596253 86.535946,34.5206707 C75.9263465,45.9889003 73.2,64.807769 73.2,79" id="Path" fill="#79746A"></path>
            <path d="M211.96,26.64 C215.580569,26.64 218.265248,28.2598062 219.531273,31.0166537 L219.642445,31.2703951 L219.662,31.32 L234.583484,31.3205038 L234.888907,31.3258881 C239.513956,31.4750833 242.42,34.5686143 242.42,39.22 C242.42,43.4128675 240.106537,46.3192129 236.34745,47.0177293 L236.088919,47.0619234 L235.93,47.084 L235.968661,47.1582787 C236.409073,48.0540211 236.670443,49.0375376 236.752144,50.080235 L236.774358,50.4739648 L236.78,50.8 L236.778827,63.136876 L236.768781,63.5002708 C236.675663,65.3936716 235.997693,67.1007573 234.753807,68.4534329 L234.649,68.562 L234.781158,68.5560754 C235.809566,68.5209602 236.920148,68.711859 238.103005,69.1528014 L238.460021,69.2926094 L238.724554,69.4047538 C240.995483,70.4140555 242.432577,72.4025153 243.087588,74.9887572 L243.162439,75.3019512 L243.19548,75.4644582 C243.518506,77.241101 243.518506,79.1256065 243.213487,81.1082287 C243.195548,81.2248339 243.172458,81.3405883 243.144287,81.4551525 C242.333342,84.7529953 240.876859,87.279547 238.703388,88.8123921 C236.759474,90.2546506 234.234045,90.9210237 231.162263,90.9762428 L230.74,90.98 L224.111098,90.9798956 L223.679048,90.9766644 C219.090391,90.9095736 215.626822,89.8347066 213.368925,87.3100925 C211.479788,85.1162557 210.649488,81.8668119 210.550216,77.4667964 L210.542,76.988 L210.379567,77.377497 C210.080481,78.0738974 209.756705,78.733901 209.407516,79.3577419 L209.140848,79.8188458 L208.911297,80.1927558 C206.292734,84.2935246 202.103912,87.4052209 196.477966,89.5725933 C196.385718,89.6081315 196.292185,89.6402376 196.197558,89.6688457 C195.404156,89.9087113 194.624058,90.0961144 193.860709,90.2297536 C197.55458,92.9092742 197.869114,97.2162512 194.408091,101.077683 L194.208149,101.295765 L194.118427,101.388427 L193.754319,101.744509 L193.346568,102.12812 L192.894063,102.540286 L192.395691,102.98203 L191.850339,103.454376 L191.256896,103.95835 L190.614249,104.494974 L190.224676,104.815906 C191.267219,104.879193 192.337288,105.13186 193.411151,105.576421 C199.086026,107.803271 200.316971,112.874457 196.483661,117.513893 L196.297292,117.734479 L196.16495,117.880301 C195.056686,119.042627 193.884873,120.155385 192.64864,121.219257 C193.642203,121.268177 194.674658,121.481818 195.728415,121.865007 C201.213603,123.878557 202.853407,128.655148 199.854595,133.586855 L199.700785,133.833557 L199.600423,133.983114 C197.418285,137.081749 194.886672,139.897078 192.021355,142.415049 C189.552115,144.600933 186.626389,146.705555 183.244541,148.736674 L182.512878,149.170792 L182.361551,149.255152 C180.340841,150.324939 178.388447,150.821311 176.523868,150.597237 C174.253468,150.35398 172.312973,149.150872 170.85054,147.288507 C169.897635,146.120429 169.211177,144.906158 168.854344,143.662227 C168.615642,143.661125 168.38039,143.646736 168.148304,143.619586 L167.802513,143.569357 L167.629,143.535 L167.624302,143.928465 C167.476068,148.671957 164.322521,151.64 159.55,151.64 C155.728236,151.64 152.97549,149.745848 151.931523,146.597303 L151.850635,146.33928 L151.818,146.223 L151.620627,146.374119 C150.316203,147.339054 148.981403,147.906531 147.537084,147.975388 L147.225882,147.982474 L147.13,147.98 C144.618698,147.98 142.616054,146.561461 140.982129,144.246733 C139.458001,142.087553 138.733935,139.933919 139.148511,137.722846 C139.520642,135.73815 140.73603,134.057119 142.61558,132.500188 L142.751,132.389 L143.200091,131.966497 C143.549627,131.630322 143.891221,131.289549 144.224895,130.944161 L144.719469,130.422617 L144.8,130.333 L144.594035,130.247041 C142.087931,129.146062 140.556287,126.799226 140.385901,123.687787 L140.373415,123.374112 L140.37,123.1 C140.37,120.621749 141.207816,118.604381 142.685921,117.245423 L142.663994,117.229903 C142.159409,116.887506 141.69742,116.523135 141.282611,116.13511 C141.070611,117.734971 140.362158,119.310428 139.240975,120.805296 C137.538657,123.096878 135.410351,124.489952 132.878047,124.577259 C132.672131,124.584886 132.466848,124.583779 132.26209,124.57413 L131.955331,124.553273 L131.9,124.547 L131.788232,126.280238 L131.707043,127.450442 L131.624109,128.576209 L131.49641,130.181657 L131.409061,131.196568 L131.274685,132.635989 L131.136251,133.97604 L131.041688,134.814292 L130.945292,135.608515 L130.847053,136.358765 L130.748978,137.051399 C130.092652,141.598799 129.144463,144.710805 127.561765,146.673348 C126.479478,148.013323 125.252949,149.085697 123.881337,149.861195 L123.535411,150.048867 L123.345212,150.141466 C122.08939,150.712294 120.616888,151.106714 118.895685,151.359798 C118.269659,151.44923 117.550045,151.516214 116.731557,151.562225 L116.005659,151.596561 L115.230593,151.620832 C114.963961,151.627267 114.689011,151.632059 114.40562,151.635242 L113.53,151.64 C111.380246,151.64 109.448624,151.067667 107.865827,149.861727 C106.313139,148.678726 105.288096,147.056352 104.86228,145.148882 L104.791,144.799 L104.690502,144.578551 C104.519825,144.189863 104.375505,143.801684 104.260042,143.415559 L104.15429,143.030177 L104.126,142.911 L103.862176,143.224074 C102.260246,145.084041 100.494125,146.754223 98.5634078,148.231516 L97.9792543,148.668914 L97.544597,148.982306 C97.4714945,149.034172 97.3966694,149.083566 97.3202482,149.130405 C95.5659782,150.205603 93.8112706,150.799694 92.0420335,150.803112 L91.7101278,150.796804 L91.563214,150.788218 C89.5189405,150.630966 87.6653298,149.685988 86.0216864,148.10798 C83.6247681,145.777642 82.5101135,143.052931 83.3439042,140.181115 C83.9614408,138.019737 85.5544631,136.330772 87.9468398,134.869808 L88.327,134.643 L88.4901581,134.518065 C91.0963088,132.464731 93.1598392,129.74928 94.6784533,126.324312 L94.937,125.719 L94.8853422,125.713334 C93.8628487,125.582046 92.9079461,125.256222 92.0604314,124.733458 L91.756,124.533 L91.6765583,124.573261 C91.1091204,124.840813 90.5243641,125.040271 89.9191468,125.166753 L89.553536,125.233846 L89.2361325,125.277237 C86.8347337,125.534529 84.6075172,124.596754 82.6909232,122.812115 C80.5083581,120.816627 79.2653299,118.586488 79.3527407,116.051953 C79.4358077,113.809142 80.5916341,111.815846 82.5619151,109.883643 L82.649,109.798 L82.9880791,109.398554 C84.7525575,107.266783 86.2682344,104.899789 87.5364243,102.290989 L87.8483166,101.633748 L88.112,101.048 L88.1504179,100.94612 C89.7099366,96.9008956 92.8577515,94.7269694 96.7944539,94.967058 L97.0769778,94.9883199 L97.187,94.999 L97.1998448,94.8069183 C97.3499801,92.7971799 98.0617869,91.1251933 99.2269634,89.8992605 L90.543124,89.8988267 L90.1797292,89.8887808 C88.1749519,89.7901852 86.3790537,89.035908 84.9915729,87.6484271 C83.567277,86.2241312 82.8170988,84.3800675 82.7456417,82.3260352 L82.74,82 L82.7385625,77.169081 C81.43288,79.8008432 80.159377,82.2657276 78.9171679,84.5651326 C76.2068203,89.5688513 71.3464729,90.6797878 66.785012,87.3620286 C64.8325574,85.9764156 63.5026481,84.3230149 62.99943,82.3101425 C62.4699297,80.1921413 62.967677,78.0479991 64.2379997,75.9087893 L64.790151,74.9908703 L65.3640247,74.0256542 L66.2703815,72.4809593 L66.9081947,71.3811231 C67.0168882,71.1928878 67.1268079,71.0021358 67.2379997,70.8087893 L67.4129263,70.5171877 L67.7781846,69.8929596 L68.1638658,69.2141846 L68.569829,68.4810464 C68.6391718,68.3543367 68.7093539,68.2253695 68.7803723,68.0941486 L69.4420379,66.8524159 L69.9080019,65.957291 L70.3727765,65.0503031 C70.9352945,63.9100638 71.6085703,62.9656386 72.3636428,62.2226715 C71.2037713,62.0100923 70.0280901,61.5201703 68.8741297,60.7431568 L68.6223526,60.5704414 L68.4594026,60.4736509 L68.1066393,60.2788502 L67.1151634,59.7664232 L66.213,59.228 L66.1033174,59.1731834 C65.2270631,58.7202262 64.4542277,58.1908217 63.8037371,57.5804296 C63.2334267,59.0381726 62.2652869,60.1951682 60.9745705,60.967906 L60.7121485,61.1173053 L60.56,61.196 L60.5595267,83.7415312 L60.5543568,84.0448839 C60.4072981,88.7507628 57.2737336,91.7 52.54,91.7 C47.7150539,91.7 44.5777866,88.6969059 44.4632462,83.9505169 L44.46,83.68 L44.459,79.872 L44.454592,79.8868594 C43.8518957,81.5850334 43.1646086,83.1817415 42.3917115,84.6769669 L42.0552254,85.3115644 L41.8039139,85.7652847 C41.7360404,85.8856058 41.6619794,86.00233 41.5820286,86.114988 C40.085052,88.2243641 38.1616283,89.5667535 35.8228496,89.7916361 C34.1485907,89.9526225 32.5968088,89.5093615 31.2349435,88.5882629 L30.9818358,88.4099881 L30.857,88.315 L30.6519315,88.4273367 C29.3326822,89.1066517 27.8851573,89.3404826 26.4418836,89.0312097 C25.0699729,88.7372288 23.8769804,88.0070527 23.0194611,86.9074766 L22.8524767,86.6826559 L22.7532765,86.535542 L22.6350686,86.3512531 C22.5211903,86.1703875 22.4005804,85.9824986 22.2732609,85.7876361 L21.8711953,85.1821776 C21.8008369,85.0777976 21.7288065,84.9716866 21.655107,84.8638509 L21.1929016,84.1961892 C21.1125363,84.0814793 21.0305073,83.9650571 20.9468173,83.8469287 L20.4247682,83.117735 L20.181,82.783 L20.08652,82.6653612 L20.005,82.558 L19.7192291,82.9985554 C18.9130057,84.2130386 18.064982,85.3758362 17.1751532,86.4865859 L16.6362394,87.1467871 L16.087292,87.7944795 L16.003724,87.8882261 C14.4722611,89.5528597 12.7501804,90.5977177 10.7604935,90.7828049 C8.78097599,90.966946 6.90166532,90.2694699 5.09470399,88.9309754 C2.7761416,87.2086148 1.38,85.0944575 1.38,82.54 C1.38,80.5433291 2.23682263,78.7299027 3.74803777,77.0031086 L3.983,76.74 L3.80954816,76.654733 C1.55478016,75.4952179 0.178330693,73.2619956 0.0161477249,70.3474587 L0.00343270999,70.0325977 L1.42108547e-14,69.76 C1.42108547e-14,66.2261379 1.70356011,63.6294038 4.53796187,62.5425163 L4.79097629,62.4505473 L4.98,62.388 L4.98,48.151 L4.89136352,48.1146163 C2.38620603,47.0244563 0.847228746,44.6980765 0.675983278,41.6044957 L0.66343271,41.2925977 L0.66,41.02 C0.66,37.6688153 2.19198673,35.1603761 4.76754689,33.9830958 L5.01204809,33.8766406 L5.066,33.855 L5.07525785,33.7827513 C5.60893798,29.9727638 8.35165133,27.5752518 12.3294458,27.373787 L12.608958,27.3633043 L12.88,27.36 C16.0752048,27.36 18.5081091,28.7384074 19.7659365,31.0824459 L19.911,31.37 L19.9554904,31.2792959 C21.1349606,28.949823 23.4389547,27.5371709 26.4524355,27.3755674 L26.7666887,27.3633262 L27.04,27.36 C31.300763,27.36 34.2127696,29.7861608 34.8214696,33.6839321 L34.8586268,33.9459532 L34.882,34.159 L35.0789572,34.0294939 C36.40372,33.1909729 37.9210889,32.8888959 39.5214776,33.0427763 L39.876,33.084 L40.4558515,32.8626624 C42.6016786,32.0271592 44.5963397,31.136701 46.4398903,30.1923991 L47.1241385,29.8357641 L47.727,29.51 L47.8917546,29.4105428 C49.4112317,28.5165111 50.9964483,28.0535788 52.6097832,28.1180541 L52.9328139,28.1380098 L53.2565275,28.1722009 C55.0706221,28.4037874 56.7459137,29.2673398 58.2700925,30.6089248 C60.6345421,32.6449786 61.9430584,34.8996528 61.571367,37.5545914 C61.2173702,40.08314 59.4929406,41.8641431 56.8608077,43.2115499 L56.5753412,43.3542701 L56.4279602,43.4225761 C54.489093,44.2737861 52.4187238,45.0821882 50.2165085,45.8484831 L49.186,46.2 L56.563424,46.2005029 L56.8615617,46.205765 C59.2868832,46.2838884 61.2308903,47.1777362 62.5369739,48.6816196 C62.6936181,48.3894123 62.86878,48.0992147 63.0606285,47.811661 L63.2363792,47.555742 C65.326119,44.5517411 68.434442,43.2944991 71.8185137,44.1704074 L72.099,44.247 L71.7628436,44.0281125 C71.3699358,43.7771681 70.9925042,43.5531707 70.6227453,43.3517485 L70.255255,43.1576893 L69.8911456,42.9777088 C67.6048739,41.8345729 65.9903445,40.1806648 65.3681439,37.9585197 C64.743199,35.7265737 65.298483,33.5095962 66.7131004,31.4687253 L66.89438,31.2145453 L67.0323221,31.0266805 C69.3562499,27.9411768 72.8192091,26.89196 76.4261114,28.2905548 C76.5130617,28.3242702 76.5988064,28.3610161 76.6831881,28.4007252 L78.6098843,29.3158804 L79.6069292,29.8016923 L79.7688544,29.8822912 C80.7051292,30.3504287 81.4105038,30.7396009 81.9106367,31.0731939 C84.073703,32.4890192 85.3136981,34.373946 85.5851141,36.4343541 C86.0214827,35.7093263 86.4400266,34.9654867 86.8409024,34.2034099 L87.2358946,33.4352753 L87.553,32.79 L87.6106097,32.659148 C89.5077807,28.4520697 93.3217456,26.6362027 97.8305755,27.8659284 C100.803781,28.6918188 102.742342,30.4572619 103.459164,32.7374421 L103.531282,32.9836974 L103.551,33.06 L112.196489,33.0607314 L112.533359,33.0679656 C114.927575,33.1614202 116.97712,34.1017614 118.251841,35.9841651 L118.401061,36.2145815 L118.482251,36.351771 C119.61581,38.3572978 119.651432,40.7083768 118.912785,43.3551959 C118.888577,43.4419431 118.861445,43.527848 118.831438,43.6127636 C117.542103,47.2613059 115.905446,50.5629968 113.920678,53.5084328 L113.519082,54.0927672 L113.443,54.198 L113.604671,54.2613436 C113.976661,54.4036275 114.344731,54.5370322 114.708858,54.6615824 L115.25209,54.8417701 L115.752,54.996 L115.9393,55.047753 C119.02247,55.9229279 121.209565,57.9081278 121.981682,60.835382 L122.054158,61.1312413 L122.117085,61.4333437 C122.603365,64.1426183 121.809516,66.8734575 120.008201,69.5188008 C119.756784,69.8959272 119.476136,70.2407373 119.170024,70.5481782 L118.935724,70.7716733 L118.88,70.819 L118.878827,82.096876 L118.868781,82.4602708 C118.775663,84.3536716 118.097693,86.0607573 116.853807,87.4134329 L116.674,87.6 L119.03658,87.6014202 L119.415053,87.6129886 C121.101337,87.7038849 122.66295,88.2723383 123.996693,89.290195 C125.383472,90.3485265 126.391532,91.7486095 126.967987,93.4059175 C128.907776,98.9828093 131.876088,103.47469 135.891603,106.951105 L136.144,107.166 L136.233969,107.224229 C137.310875,107.938801 138.23132,108.689153 138.983984,109.495043 C139.1418,108.629092 139.451581,107.762274 139.891331,106.897952 L139.984,106.72 L140.162243,106.310589 C141.060542,104.185364 141.818664,101.751286 142.425886,99.0338536 L142.574541,98.3486072 L142.716872,97.651643 C143.109182,95.5331712 144.229775,93.7660817 145.991199,92.5917988 C147.631075,91.498548 149.546398,91.1117861 151.598391,91.394218 L151.941632,91.4474798 L153.751,91.784 L154.411796,91.6444954 C157.746751,90.9319949 160.616142,90.1914478 163.012887,89.4278342 C161.256504,88.2235143 159.666905,86.5654108 158.245441,84.4871291 L157.939,84.029 L157.428805,84.3500493 C156.291939,85.0518729 155.148396,85.7152044 153.998182,86.3399576 L153.134271,86.8012878 L152.267859,87.2481431 L152.163188,87.2992748 C150.252597,88.1983764 148.408472,88.6034825 146.622274,88.3958943 L146.288038,88.3497625 L146.16461,88.3280258 C145.251462,88.1524204 144.403942,87.8167109 143.626055,87.3421711 C142.330903,90.0233531 139.661277,91.58 136.12,91.58 C131.084118,91.58 127.858834,88.4462775 127.743227,83.4869788 L127.740012,83.2095923 L127.694,63.854 L127.532444,63.8269161 C125.310309,63.3967793 123.620415,61.9183108 122.383467,59.7621686 L122.231202,59.489148 L122.08362,59.2092293 C119.88612,55.0517957 120.207497,50.8727805 123.157145,47.5676991 L123.25,47.466 L123.753632,46.8473459 C126.699518,43.1715562 129.208092,39.1472911 131.281306,34.7685651 L131.664932,33.9433987 L132.038357,33.1099159 L132.001288,33.1970008 C133.897538,28.5918219 137.90068,26.61132 142.632708,28.0946839 C146.171192,29.2409532 148.22648,31.6780605 148.432398,34.7141526 C148.867299,30.2157906 152.023162,27.42 156.82,27.42 C159.502369,27.42 161.672349,28.2798385 163.148687,29.8132468 L163.32,29.666 L163.543508,29.4854333 C166.622987,27.0609006 170.299217,27.033945 173.420738,29.5471149 L174.647097,30.5898229 L175.514,31.34 L175.95322,31.6897693 L176.412318,32.0616421 L177.00721,32.5588405 L177.348226,32.856276 C179.137775,34.5026608 180.185046,36.3790213 180.075009,38.5797505 C180.034418,39.3915784 179.841991,40.1545757 179.511502,40.883869 C181.460142,42.1198183 182.680098,44.3024873 182.888908,47.1423203 C183.10922,50.0944995 182.15065,52.5066573 180.266599,54.0515575 L180.032,54.235 L180.082997,54.3112703 C181.449325,56.449096 181.482789,59.1838056 180.02283,62.0318657 L179.866466,62.3268771 L179.72393,62.5802975 L179.615845,62.7567644 C179.077485,63.5867364 178.526276,64.4005929 177.962227,65.1982971 L177.393898,65.990616 L177.123,66.356 L177.313207,66.3858917 C178.199799,66.537502 179.095883,66.8708702 179.971562,67.3854766 L180.298926,67.5869485 L180.524258,67.7363792 C182.514729,69.1210544 183.570233,71.3412525 183.941969,74.1297265 C184.093303,75.2193273 184.145874,76.3229304 184.100752,77.4380719 C184.296758,77.227331 184.506721,77.0211085 184.729309,76.8202397 C186.353799,75.3434303 188.475876,74.2085514 191.081407,73.3591558 L191.666,73.176 L191.939958,73.0225846 C192.939841,72.4397305 193.647512,71.8044386 194.11617,71.1095652 L194.2381,70.9185716 L194.291,70.825 L193.975514,70.7660101 C192.81845,70.5231509 191.760989,70.0258518 190.85828,69.2738629 L190.615966,69.0624602 L190.381573,68.8384271 C189.046869,67.5037235 188.354902,65.7688703 188.28576,63.8427544 L188.28,63.52 L188.281173,50.703124 L188.291219,50.3397292 C188.339908,49.3497157 188.548496,48.4106406 188.914274,47.5465337 L189.058804,47.2260547 L189.106,47.132 L188.949036,47.1166064 C184.958668,46.6689574 182.441087,43.8750214 182.233865,39.7748783 L182.223326,39.4933113 L182.22,39.22 C182.22,34.5015995 185.195325,31.437248 189.849629,31.3232918 L190.12,31.32 L204.254,31.32 L204.328371,31.1458166 C205.505223,28.4579664 208.005441,26.8268707 211.363168,26.6550854 L211.680453,26.6432681 L211.96,26.64 Z M70.8079649,93.36 L71.117686,93.3653535 C76.0983062,93.5118423 79.19,96.7854005 79.19,101.8 C79.19,106.875155 76.0369981,110.120432 71.0300622,110.236764 L70.746,110.24 L71.1378653,110.401906 C72.5434827,111.003726 73.8408287,111.787045 75.0207268,112.753004 L75.4096636,113.081756 L75.7270775,113.366058 C79.3706587,116.692806 81.17,121.334585 81.17,127 C81.17,132.933875 79.1016595,137.913213 74.998751,141.661523 C71.2041868,145.106588 66.4812666,146.84 61.03,146.84 C55.1162537,146.84 49.9361572,145.240615 45.6214234,142.028536 C45.5403366,141.968171 45.4615673,141.904754 45.3852851,141.838422 C43.707859,140.379791 42.6726746,138.611351 42.5749906,136.55975 C42.482274,134.705417 43.1673376,132.954699 44.3879714,131.285012 C47.2965775,127.186522 51.6468457,126.36609 55.7122961,129.009839 L55.9510987,129.169351 L56.117,129.286 L56.1922463,129.324713 C57.1864882,129.818053 58.0991743,130.093124 58.9425475,130.174291 L59.2211215,130.194198 L59.47,130.2 C60.7171618,130.2 61.4575935,129.95032 61.8483143,129.585591 C62.2413473,129.205237 62.49,128.507405 62.49,127.24 C62.49,126.099189 62.2718446,125.397756 61.8980498,124.953104 L61.857,124.907 L61.8019269,124.858911 C61.4672694,124.579887 61.0326906,124.410078 60.4012165,124.357553 L60.1832997,124.344399 L59.95,124.34 C59.4592535,124.34 59.0073148,124.383329 58.5897757,124.46781 L58.2830024,124.538852 L58.038,124.609 L57.8376485,124.71308 C55.1499166,126.063601 52.3100873,126.090861 49.7371176,124.709574 L49.4624825,124.556185 L49.1900042,124.391993 L49.0911992,124.328201 L48.83992,124.159563 L48.5577352,123.961326 C46.2554771,122.27683 45.0416549,119.817348 45.0861125,116.954792 L45.0956984,116.646564 L45.9356984,100.926564 L45.9466922,100.774953 L45.9803634,100.419311 C46.2037295,98.4781534 47.0075753,96.7714373 48.3835059,95.4719474 C49.7945266,94.1393167 51.5816014,93.4361831 53.5587476,93.3658605 L53.89,93.36 L70.8079649,93.36 Z M159.628,117.08 L159.471,117.08 L159.47,117.16 L159.47,119.32 C159.47,121.462195 157.786032,123.211079 155.66964,123.315105 L155.47,123.32 L154.128,123.32 L154.2794,123.396047 C156.112426,124.364108 156.999592,126.700352 155.999194,128.708052 L155.899848,128.89526 L155.804468,129.056032 C155.241976,129.958361 154.646916,130.840086 154.019433,131.701106 L153.542745,132.342987 L153.257,132.712 L153.353928,132.648646 C155.734687,131.140892 159.178053,132.617419 159.452503,135.666468 L159.465676,135.86321 L159.47,136.06 L159.47,143.639 L159.628,143.639 L159.63,135.76 C159.63,133.807193 160.938889,132.368271 162.544935,131.908567 L162.724556,131.861543 L162.815,131.842 L162.101323,131.404822 L161.594914,131.103606 C160.441215,130.421799 159.709948,129.21075 159.636168,127.882406 L159.63,127.66 L159.63,126.94 C159.63,125.269088 160.654526,123.837466 162.109656,123.239059 L162.293747,123.168641 L162.411,123.129 L162.293747,123.091359 C160.866263,122.585562 159.811301,121.29227 159.65114,119.733759 L159.634895,119.51964 L159.63,119.32 L159.628,117.08 Z M96.739,117.606 L96.7646146,117.729984 L96.772,117.78 L100.39,117.78 C102.846022,117.78 104.688726,119.959944 104.352095,122.333068 L104.319994,122.525868 L104.279352,122.714314 C102.352552,130.735177 98.5802393,136.945692 92.9542251,141.176827 C92.8130521,141.282998 92.6650013,141.379702 92.511045,141.466302 C92.1368167,141.676806 91.8221748,141.876722 91.5677092,142.060681 L91.408,142.18 L91.4619119,142.236306 L91.5801273,142.354451 L91.6868831,142.454555 L91.8674267,142.611281 L92.0055128,142.716921 C92.025089,142.73073 92.0429711,142.742755 92.0591966,142.753168 L92.124,142.791 L92.166518,142.781166 C92.3069976,142.74333 92.5301453,142.653801 92.8328073,142.488057 L93.029,142.374 L93.2990343,142.18041 C99.0159405,137.971304 103.042326,131.517855 105.353614,122.677326 L105.505158,122.084419 L105.65162,121.48443 L105.794496,120.871678 C106.201609,119.1257 107.717014,117.872178 109.49178,117.784868 L109.69,117.78 L119.35,117.78 C121.640739,117.78 123.463561,119.700072 123.344603,121.987719 L123.257104,123.593655 L123.165272,125.120909 L123.068357,126.571151 L122.965607,127.946048 L122.856272,129.247269 L122.779352,130.074643 L122.657372,131.256779 L122.571327,132.006308 L122.481242,132.725564 L122.386895,133.415041 C122.354711,133.639959 122.32178,133.859995 122.288064,134.075234 L122.184525,134.706637 L122.076057,135.309745 L121.962437,135.885052 L121.843442,136.433053 L121.718849,136.954241 C121.676361,137.123557 121.632903,137.288486 121.588437,137.449111 L121.451983,137.918158 C121.35895,138.222358 121.26174,138.509672 121.160057,138.780759 L121.00414,139.175302 C120.632334,140.067889 120.203913,140.765735 119.706155,141.297101 L119.598427,141.408427 L119.499273,141.504221 C118.095631,142.814287 116.278491,143.42 114.25,143.42 L113.336138,143.414725 L112.904873,143.408127 L112.668,143.402 L112.672576,143.425442 C112.677205,143.452691 112.679394,143.464644 112.684531,143.472912 L112.69512,143.484001 L112.714173,143.498273 C112.811376,143.572333 113.039754,143.64 113.53,143.64 L114.267141,143.63623 L114.952298,143.62508 L115.584498,143.60679 C115.685398,143.60316 115.784051,143.599242 115.880437,143.595042 L116.431382,143.566492 L116.926943,143.531402 L117.366147,143.490013 C117.503048,143.475193 117.630394,143.459363 117.748024,143.442563 C118.661603,143.308214 119.374634,143.128259 119.875651,142.926545 L119.933,142.901 L120.028025,142.848018 C120.334542,142.662753 120.644959,142.409878 120.958555,142.080877 L121.147087,141.874273 L121.336348,141.64899 C121.441145,141.519041 121.557981,141.29608 121.681559,140.984354 L121.78901,140.69552 L121.899022,140.363804 L122.010852,139.9898 C122.029601,139.923975 122.048395,139.856412 122.067218,139.787125 L122.180388,139.350803 C122.199267,139.274666 122.218145,139.196829 122.237006,139.117304 L122.349846,138.620001 L122.46154,138.082788 L122.571347,137.506258 L122.678524,136.891006 L122.782332,136.237627 L122.876103,135.596631 L123.00446,134.636459 L123.130188,133.587047 L123.253251,132.448583 L123.373611,131.221255 L123.491231,129.905251 L123.606073,128.500758 L123.718101,127.007964 L123.863027,124.88054 L123.968341,123.182441 L124.10418,120.781958 L124.234705,118.226054 C124.240796,118.100579 124.252406,117.977176 124.269256,117.856008 L124.307,117.63 L124.214904,117.644945 L124.036493,117.664289 L123.854827,117.67604 L123.67,117.68 L97.69,117.68 C97.4988658,117.68 97.3117414,117.671514 97.128909,117.654965 L96.8579144,117.624149 L96.739,117.606 Z M193.037,129.4 L192.983028,129.379174 L192.719886,129.286598 C192.167104,129.102746 192.016038,129.152697 191.703993,129.619194 L191.558763,129.845156 C191.504246,129.932087 191.446405,130.016889 191.385368,130.099372 C188.070573,134.578824 183.649574,138.333341 178.16305,141.361902 L178.061523,141.416054 L177.958481,141.467264 C177.653641,141.613333 177.385763,141.75462 177.155558,141.888577 L176.989979,141.98763 L176.902,142.042 L176.984184,142.149411 L177.236305,142.463054 L177.330434,142.569789 L177.387721,142.625321 C177.394757,142.631221 177.400678,142.63567 177.405693,142.639012 L177.426581,142.648493 L177.599405,142.608326 C177.817858,142.552787 178.092641,142.447805 178.417543,142.287626 L178.563,142.212 L179.113596,141.885723 C181.671974,140.349848 183.900328,138.790765 185.804464,137.20844 L186.273747,136.812374 L186.729542,136.41534 C188.948421,134.465416 190.9156,132.317595 192.634911,129.968386 L193.01,129.444 L193.037,129.4 Z M150.38,136.08 L149.866644,136.617961 C149.299206,137.20131 148.713695,137.772899 148.110174,138.332687 L147.995766,138.434795 L147.877529,138.532443 C147.692314,138.679526 147.531988,138.817294 147.396349,138.943789 L147.268931,139.066454 L147.199,139.137 L147.335842,139.362825 L147.41,139.477 L147.448,139.441 L147.918792,138.928611 C148.457675,138.334696 148.975497,137.747032 149.471652,137.166491 L149.960562,136.588357 L150.38,136.08 Z M63.649,116.905 L63.7567341,116.939472 C65.030825,117.373089 66.1873144,118.042663 67.198064,118.950535 L67.4700884,119.204046 L67.5644086,119.298314 C69.5404335,121.340207 70.49,124.062297 70.49,127.24 C70.49,130.532595 69.4986527,133.314763 67.3626285,135.381086 C65.3224065,137.28968 62.6228382,138.2 59.47,138.2 C57.0195697,138.2 54.5641788,137.525442 52.1315481,136.23149 C52.006082,136.164752 51.8843063,136.0914 51.7667302,136.011758 L51.5935795,135.887619 C51.5079167,135.822681 51.427946,135.765805 51.3540124,135.716519 L51.247683,135.648223 L51.162,135.597 L51.0384917,135.746576 L50.882,135.956 L51.0499179,136.071206 C53.5811263,137.762955 56.5637157,138.682426 60.0786432,138.821436 L60.5612587,138.835554 L61.03,138.84 C64.5387334,138.84 67.3358132,137.813412 69.6120582,135.746847 C71.9983405,133.566787 73.17,130.746125 73.17,127 C73.17,123.465415 72.2093413,120.987194 70.322803,119.26467 C68.8373022,117.898968 66.9043679,117.115576 64.3863373,116.938641 L64.0042273,116.916652 L63.649,116.905 Z M115.097,125.78 L112.799,125.78 L112.788734,125.820098 C111.884584,129.027374 110.764342,131.99357 109.42739,134.713956 L109.088637,135.388929 L109.02,135.519 L109.134591,135.497308 C109.733567,135.393095 110.370395,135.345815 111.042163,135.346934 L111.449394,135.353344 L112.382448,135.392067 C112.492143,135.395768 112.604824,135.399106 112.720477,135.402078 L113.449934,135.415497 L113.856,135.418 L113.938409,135.100476 L114.045464,134.629806 L114.152004,134.100983 L114.257482,133.514996 L114.36135,132.872832 L114.415087,132.513426 L114.51998,131.75442 C114.537174,131.623459 114.554224,131.490269 114.571128,131.354854 L114.670803,130.51568 C114.687123,130.371375 114.703296,130.224849 114.719322,130.076107 L114.813699,129.157073 L114.904499,128.184967 L114.991687,127.159928 L115.097,125.78 Z M176.085,127.858 L175.930283,128.077701 L175.740192,128.322827 L175.53823,128.560897 L175.324409,128.791686 C175.045092,129.080313 174.747027,129.339421 174.432304,129.569274 L174.193171,129.736182 L174.129,129.776 L174.213995,129.843143 C175.32864,130.749265 176.161433,131.784165 176.612383,132.979954 C178.986997,131.456951 181.048807,129.765553 182.803874,127.906884 C181.225905,128.60386 179.548441,128.804725 177.874183,128.455922 C177.447992,128.367132 177.036234,128.246615 176.640585,128.095579 L176.346894,127.976599 L176.085,127.858 Z M189.88618,112.804736 C189.663037,112.759415 189.556249,112.835511 189.3627,113.061442 L189.273847,113.167526 C189.197895,113.259467 189.11787,113.347966 189.03401,113.432758 C186.535357,115.959174 183.652766,118.147881 180.388174,120.002451 L179.730163,120.368911 L179.453,120.517 L179.53,120.615 L179.62218,120.566292 C183.566662,118.367156 186.978803,115.805199 189.870206,112.879731 L189.932,112.815 L189.88618,112.804736 Z M70.9421249,101.363204 L70.6920351,101.35958 L53.926,101.36 L53.921,101.415 L53.0818373,117.134676 L53.0814175,117.260964 C53.0855754,117.3264 53.1002199,117.359759 53.1350176,117.393649 L53.20978,117.453587 L53.3488008,117.551799 L53.468,117.631 L53.5028173,117.651657 C53.7091469,117.768684 53.8411158,117.774371 54.1529054,117.616975 L54.278752,117.550205 L54.4088896,117.47654 C54.6043612,117.363601 54.809043,117.267412 55.0207426,117.189005 L55.4427773,117.0409 L55.8703039,116.907115 L56.051,116.857 L56.0303775,116.840241 C55.1983074,116.130334 54.649686,115.082539 54.6298586,113.881417 L54.6330164,113.639203 L54.6451566,113.452117 L55.3051566,105.892117 C55.479547,103.894553 57.1020747,102.346246 59.0837614,102.245245 L59.29,102.24 L70.75,102.24 C70.8607707,102.24 70.959619,102.236428 71.0466396,102.230182 L71.1683115,102.218917 L71.1801815,102.09664 L71.1888427,101.9068 C71.1896032,101.872522 71.19,101.836924 71.19,101.8 C71.19,101.691612 71.1865645,101.594496 71.1805094,101.508585 L71.168,101.38 L71.0708173,101.370247 L70.9421249,101.363204 Z M97.191,103.136 L97.014548,103.084993 L96.536684,102.968599 L96.3717894,102.938604 C96.0487151,102.894677 95.9341525,102.997226 95.759571,103.432795 L95.5735496,103.934878 C95.5420809,104.022291 95.5075763,104.108581 95.4700985,104.193592 C93.672262,108.271611 91.3807816,111.929167 88.5982246,115.153399 C88.5093838,115.256342 88.4153515,115.354687 88.3164941,115.448053 C88.0782794,115.673033 87.8795209,115.87979 87.7195132,116.064597 L87.6067623,116.199029 L87.517,116.313 L87.6008696,116.413265 C87.6659655,116.487958 87.7409722,116.568628 87.8265522,116.655184 L87.9629348,116.789423 L88.1156741,116.932424 C88.1885455,117.00027 88.2560626,117.059221 88.3178328,117.109873 L88.459,117.218 L88.5416503,117.161158 C88.6741645,117.063788 88.8261357,116.935664 89.0012006,116.769725 L89.1368862,116.63807 L89.2954177,116.476634 L89.5833704,116.13398 L89.7156153,115.969899 C90.5194701,114.972523 91.5973188,114.506638 92.670533,114.473937 L92.8850315,114.473144 L92.936,114.475 L92.9191959,114.420412 C92.6014547,113.331788 92.6982601,112.075355 93.3230965,110.821785 L93.4551379,110.571159 L93.5653165,110.380445 C94.7783284,108.413399 95.8459219,106.35836 96.7685999,104.213855 L97.085,103.458 L97.1483323,103.27873 L97.191,103.136 Z M118.9,95.6 L105.17,95.6 L105.17,95.64 L115.63,95.64 C117.282862,95.64 118.765502,96.6566159 119.361193,98.1984029 C121.06277,102.602486 123.232893,106.53577 125.855119,109.988694 L126.322554,110.593045 L126.792486,111.179984 C127.517285,112.085248 127.768744,113.141363 127.648927,114.135864 L127.617607,114.347951 L127.593,114.467 L127.622875,114.462988 C128.265772,114.362515 128.943871,114.418393 129.603349,114.66211 L129.849675,114.762371 L130.018854,114.842291 C130.455856,115.060792 130.795301,115.307661 131.163165,115.622974 L131.364888,115.79918 L131.455,115.882 L131.484205,115.903978 C131.766705,116.108424 132.019165,116.268265 132.237175,116.38534 L132.394153,116.465156 L132.439,116.485 L132.478608,116.445884 C132.528617,116.393023 132.583089,116.331472 132.641747,116.260676 L132.732839,116.147479 L132.83,116.02 C133.057682,115.716424 133.203248,115.467727 133.282684,115.28102 L133.327,115.158 L133.299036,115.118397 L133.252642,115.060896 L133.127252,114.924477 L132.957139,114.761262 L132.740799,114.573357 C132.580828,114.440326 132.389038,114.29224 132.163421,114.131909 L131.799377,113.882582 L131.597858,113.751689 C131.455488,113.660814 131.319016,113.561013 131.189262,113.452885 C125.817978,108.976815 121.885335,103.144884 119.412013,96.0340825 C119.348468,95.8513905 119.276528,95.7514735 119.143307,95.649805 C119.107251,95.6222884 119.087801,95.6116106 119.041421,95.6058941 L118.9,95.6 Z M180.367516,110.439607 L180.130359,110.464659 C179.804815,110.492831 179.478361,110.500298 179.151061,110.486234 L178.823482,110.464962 C178.775786,110.460815 178.728223,110.456204 178.680793,110.451133 C178.637512,110.926104 178.539911,111.395897 178.38403,111.856564 C178.898592,111.516888 179.399348,111.16628 179.885821,110.804762 L180.367516,110.439607 Z M105.214,103.639 L105.206425,103.71388 C105.12273,104.43294 104.952127,105.178906 104.691276,105.94508 L104.553315,106.32982 L104.512188,106.434531 C104.279641,107.00298 104.038427,107.566367 103.788754,108.124344 L103.407926,108.957207 L103.062,109.68 L116.038,109.68 L115.91436,109.470696 C115.102571,108.078497 114.344854,106.637978 113.641213,105.149472 L113.225518,104.250613 L112.954,103.64 L105.214,103.639 Z M187.968296,96.1727179 C187.710388,96.1250076 187.569935,96.2046101 187.358767,96.4284289 L187.263388,96.5332301 C187.18911,96.6170306 187.111346,96.697675 187.030301,96.7749502 C185.224549,98.4967142 183.018532,100.163181 180.411859,101.786852 L179.803207,102.160791 L179.651258,102.248385 L179.486,102.34 L179.550106,102.399214 L179.612,102.451 L179.723442,102.400181 L179.895395,102.311365 L180.116792,102.183774 C181.792705,101.140984 183.413186,100.004784 184.917049,98.8241708 L185.51944,98.3281499 L186.339013,97.6412214 L187.056601,97.0241509 L187.477685,96.6523218 L187.996,96.179 L187.968296,96.1727179 Z M150.539,99.323 L150.417669,99.9231138 L150.265,100.627 L150.305862,100.565273 C150.532067,100.233879 150.806183,99.9395272 151.117753,99.6913014 L151.309107,99.5479737 L151.404,99.484 L150.539,99.323 Z M182.249858,84.7581789 L182.214672,84.837746 C181.390354,86.5841415 180.362156,87.9969768 179.095786,89.0633358 C177.549752,90.3820122 175.631566,91.1893648 173.387413,91.5454406 L173.580037,91.7720902 C174.589106,92.9613506 175.256706,94.1724708 175.600507,95.3489865 L175.706,95.288 L176.165488,95.0068214 C178.005147,93.8619211 179.563708,92.7229682 180.840933,91.5975357 L181.182292,91.2909405 L181.424,91.064 L181.482319,91.0011823 C182.514497,89.9011437 183.689008,89.1196278 184.958546,88.6618118 C184.240496,88.1139297 183.621626,87.4353039 183.118939,86.6254185 C182.738184,86.0103523 182.449471,85.3854 182.249858,84.7581789 Z M156.967144,35.4220825 L156.82,35.42 L156.608988,35.424624 L156.515657,35.4300968 L156.395,35.441 L156.385615,35.5574566 L156.379995,35.6962333 L156.379406,35.8510447 L156.400912,36.8323379 L156.446851,38.3136184 L156.512525,39.9918938 L156.59794,41.8665173 L156.67496,43.4009491 L156.793829,45.597893 C156.909261,47.6735478 155.41806,49.4791904 153.382804,49.7773966 L153.184181,49.8015079 L146.427365,50.4526024 L146.293282,50.4704914 L146.214,50.483 L146.224962,50.6334815 L146.234,50.728 L146.355819,50.7184921 L153.195819,50.0584921 C155.358704,49.8497927 157.292613,51.4059676 157.551507,53.5634191 C158.252397,59.4041681 159.143383,64.4595435 160.218506,68.7216381 C160.611364,70.2790386 160.034554,71.9203844 158.753771,72.8896255 C155.801749,75.1235878 152.563396,77.1107295 149.042045,78.851798 L148.224403,79.2492153 L148.038462,79.3323077 C147.819831,79.4234038 147.622051,79.5128502 147.445427,79.599451 L147.275866,79.6850589 L147.152,79.751 L147.339768,80.0139608 C147.431125,80.1401202 147.514597,80.2422675 147.588458,80.322444 L147.659051,80.3953725 L147.706,80.439 L147.759807,80.4292189 C147.912552,80.396778 148.138246,80.327485 148.435608,80.2035428 L148.590255,80.1369353 L148.71,80.081 L149.496826,79.675394 C151.465687,78.6382172 153.420058,77.4696685 155.359998,76.1691343 L156.190517,75.6036799 L157.019271,75.0220534 C159.060249,73.5682056 161.920156,74.3275247 162.971165,76.60231 C165.301603,81.6462728 167.789915,83.76 170.5,83.76 C172.2651,83.76 173.3571,83.4433202 173.923457,82.9603552 C174.369719,82.5845556 174.827187,81.8703627 175.24803,80.8048999 L175.35245,80.5312087 L175.411,80.367 L175.326867,80.5126848 C174.551351,81.8003638 173.393152,82.6567372 171.678735,82.7990119 L171.417379,82.814962 L171.16,82.82 C167.448201,82.82 165.124703,80.0569554 163.21187,75.1100846 L162.953483,74.4220296 L162.699636,73.7072287 C162.185881,72.2215057 162.590021,70.5726033 163.732568,69.4928335 C166.925297,66.4755292 169.81141,63.0399913 172.392091,59.1807375 L172.839,58.502 L172.851,58.479 L172.541226,58.373024 C172.255949,58.27997 172.173529,58.2928621 172.037104,58.5091679 L171.946713,58.6641408 L171.831033,58.8726114 C171.78821,58.9491723 171.742881,59.0243038 171.695119,59.097884 C170.105349,61.5469893 168.499183,63.6740736 166.869572,65.4798581 C164.670206,67.9169943 160.633527,66.8133527 159.980051,63.5962397 C159.916141,63.281608 159.852618,62.958052 159.789473,62.6255393 L159.601163,61.601099 C159.569963,61.4258699 159.538857,61.2483934 159.507841,61.0686657 L159.322831,59.9632513 L159.139956,58.8036114 L158.959162,57.5895517 C158.9292,57.3826627 158.899322,57.173498 158.869528,56.9620537 L158.691756,55.666 L158.515933,54.3150409 L158.43102,53.6371862 C158.159692,51.471208 159.672687,49.501862 161.807434,49.1840348 L162.009353,49.1591213 L174.818124,47.9023097 L174.919,47.889 L174.912,47.766 L170.507237,48.1831065 L162.047237,48.9631065 C159.78934,49.1712814 157.81005,47.4629271 157.685991,45.1988498 C157.556316,42.8322675 157.452605,40.427518 157.374842,37.9845856 L157.321384,36.1452267 L157.321349,35.9361389 C157.32402,35.8332823 157.323571,35.7396477 157.320598,35.655209 L157.31432,35.5354444 L157.306,35.447 L157.219719,35.4374027 L157.100373,35.4280323 L156.967144,35.4220825 Z M55.509,54.2 L49.51,54.2 L49.6152529,54.2293561 C51.1978551,54.7059844 52.3671201,56.136551 52.4547225,57.8527303 L52.46,58.06 L52.459,83.699 L52.56,83.7 L52.56,58.06 C52.56,56.322041 53.6683957,54.8429617 55.2168617,54.2910876 L55.4047471,54.2293561 L55.509,54.2 Z M140.293,35.747 L140.105764,35.6850431 L139.833629,35.5899793 C139.704906,35.5503096 139.663988,35.5683485 139.605298,35.7058733 L139.44865,36.1188375 L139.361643,36.3300841 C136.734373,42.3050054 133.400685,47.740827 129.363847,52.6275258 L129.279891,52.7258749 L129.1928,52.8214588 C128.599611,53.4517225 128.474414,53.9537409 128.903714,54.9470963 L128.990727,55.1392596 L129.017,55.193 L129.069193,55.1453296 C131.473784,53.0363937 135.369714,54.5532142 135.662487,57.7894713 L135.675344,57.9780725 L135.679988,58.1704077 L135.74,83.2 L135.744311,83.3991915 L135.749402,83.4870563 L135.756,83.563 L135.898111,83.5745854 L135.96767,83.5775375 L136.221377,83.5789299 L136.401945,83.5709118 L136.484,83.563 L136.489869,83.5156263 L136.496657,83.3941633 L136.5,83.2 L136.5,44.56 C136.5,43.9163612 136.65532,43.2822273 136.95277,42.7114436 L137.235066,42.1672585 L137.774126,41.1130267 L138.279076,40.104537 L138.749835,39.1420582 C138.825441,38.9854942 138.899619,38.8308586 138.972367,38.6781569 L139.391686,37.7851984 C139.458708,37.6402547 139.524298,37.4972562 139.588452,37.3562084 L139.956147,36.5333751 C140.014555,36.4001526 140.071525,36.2688921 140.127055,36.139599 L140.293,35.747 Z M221.79121,63.2593573 L216.10879,63.2593573 C217.476015,63.8428542 218.452075,65.1658887 218.534366,66.7258558 L218.54,66.94 L218.54,76.54 C218.54,76.8749723 218.544942,77.1957354 218.554272,77.5020766 L218.578617,78.0954664 C218.583595,78.1911388 218.58902,78.285193 218.59487,78.3776211 L218.63492,78.9126133 C218.649864,79.0843976 218.666348,79.2496144 218.684208,79.4082006 L218.741749,79.8640046 L218.806557,80.2796468 C218.840614,80.4773644 218.877027,80.6598793 218.915242,80.8269788 L218.99391,81.1405607 C219.115024,81.5799134 219.249029,81.8792493 219.380965,82.0328206 C219.77874,82.4773927 221.106899,82.9029474 223.454439,82.97045 L223.766428,82.9771963 L224.14,82.98 L230.74,82.98 C232.436741,82.98 233.488886,82.7197922 234.013267,82.3321285 C234.455501,82.0199633 234.927537,81.2278887 235.305898,79.8167289 L235.33,79.719 L235.358384,79.5178869 C235.434117,78.90346 235.456461,78.33249 235.428503,77.8033057 L235.405717,77.4907961 L235.392,77.371 L235.359725,77.4724216 C235.266467,77.7762962 235.178907,78.1226108 235.098881,78.5102945 L235.040302,78.8087972 L234.984719,79.1227129 C234.826298,80.0657001 234.335312,80.9207395 233.600738,81.5328851 C232.708589,82.2763419 231.681544,82.6309712 230.57312,82.730393 L230.29435,82.750009 L229.9,82.76 L225.52,82.76 C223.48881,82.76 222.038641,82.4457968 220.780786,81.0831204 C219.726636,79.9411242 219.428524,78.7169703 219.369933,76.9833586 L219.362297,76.6896329 L219.36,76.42 L219.36,66.94 C219.36,65.2876925 220.361838,63.8693768 221.79121,63.2593573 Z M12.858,78.208 C12.1242667,79.3615561 11.301984,80.4908894 10.3897019,81.6004216 C10.307331,81.7006025 10.2201364,81.7967179 10.1284271,81.8884271 C10.0305625,81.9862917 9.94139751,82.0797269 9.86078641,82.1682969 L9.685,82.369 L9.8609102,82.5057712 L9.993,82.6 L10.074,82.515 L10.5445977,81.9600543 C11.2205831,81.143324 11.8704313,80.2888038 12.4941387,79.3962297 L12.9570179,78.7196598 L13.224,78.312 L12.858,78.208 Z M199.927114,50.8999909 L196.279,50.8999909 L196.279,62.94 L199.48,62.94 C201.784178,62.94 203.581868,64.8714956 203.476356,67.1203832 L203.462072,67.3195971 L203.438511,67.5146226 C203.016121,70.4244226 202.353879,72.7545304 201.387139,74.526609 C200.054541,77.0179874 197.883959,78.9937733 194.994732,80.4646525 C194.765711,80.5812449 194.525987,80.675495 194.278885,80.7460958 C192.799094,81.1688932 191.651382,81.6634742 190.822692,82.2000718 L190.622158,82.3350793 L190.476,82.44 L190.632182,82.453817 C191.365287,82.5149091 192.212313,82.4372251 193.17602,82.2039326 L193.542884,82.1091209 L193.744,82.051 L194.039912,81.9348742 C197.641032,80.4836712 200.194376,78.6403836 201.785826,76.4499866 L201.979754,76.1743824 L202.156808,75.9059867 C203.330702,74.0449361 204.217992,71.2312987 204.736877,67.4966348 L204.802461,67.0042842 L204.869473,66.4553197 C205.04725,64.9989583 205.993372,63.8050189 207.271715,63.2596237 L202.06,63.26 C199.169027,63.26 196.940747,61.3469317 196.651916,58.4693542 L196.632772,58.2339422 L196.621835,57.9411565 L196.62,55.96 C196.62,53.6005722 197.894254,51.6825497 199.927114,50.8999909 Z M90.7327949,68.0928106 L90.7351758,68.1209171 L90.74,68.32 L90.739,81.9 L93.8055614,81.9012037 C92.2194538,81.134003 91.1281349,79.6242501 90.9319159,77.6693542 L90.9127724,77.4339422 L90.9018353,77.1411565 L90.9,77.02 L90.9,72.64 C90.9,71.3122851 91.5468825,70.1356578 92.5426698,69.4080958 L92.7389565,69.2744871 C91.9138877,69.0861937 91.2370505,68.6583988 90.7327949,68.0928106 Z M110.953251,67.3048934 L110.932612,67.3479419 C110.445908,68.2399038 109.626199,68.9555172 108.530469,69.2432524 C109.611739,69.9141054 110.348687,71.0890935 110.415105,72.4403597 L110.42,72.64 L110.42,77.02 C110.42,79.253092 109.292488,81.0401773 107.517677,81.9010421 L110.88,81.9 L110.88,68.08 C110.88,67.8126916 110.905288,67.5537842 110.953251,67.3048934 Z M35.719151,80.125012 L35.6829438,80.1770683 C35.4282354,80.5429098 35.1434493,80.862584 34.8360096,81.1354242 L35.098,81.357 L35.2555898,81.0601463 C35.4142397,80.7549989 35.5687656,80.4432868 35.719151,80.125012 Z M77.506,68.67 L77.0391848,69.583408 L76.5690251,70.4878058 L76.1162643,71.343884 L75.6813304,72.1508717 L75.2646513,72.9079979 C75.1967498,73.0299877 75.1296267,73.1498678 75.063291,73.2676221 L74.6747965,73.9485105 L74.3056266,74.5776099 C74.2457325,74.6781012 74.1866614,74.7764026 74.1284222,74.8724978 L73.4106732,76.1157961 L72.7175055,77.3041174 L72.0500298,78.4355964 L71.4093571,79.5083677 C71.3048736,79.682167 71.2015532,79.8534424 71.099419,80.022155 C71.0474704,80.1096474 71.0025326,80.1905693 70.9641341,80.2645746 L70.891,80.414 L70.9494065,80.4681755 C71.0119204,80.5249328 71.0844105,80.5862585 71.167937,80.6523421 L71.3016368,80.7550595 L71.5419256,80.9287021 L71.714,81.043 L71.8013486,80.9005062 L71.8807167,80.758778 C73.0169678,78.6555047 74.1848243,76.3997947 75.3824123,73.9953276 L76.2861486,72.1641428 C76.4376906,71.8543158 76.5896899,71.5421789 76.7421428,71.2277392 L77.7054598,69.2246967 L77.7724021,69.0925718 C77.833732,68.9680086 77.8325019,68.9333775 77.728109,68.8458062 L77.506,68.67 Z M230.026,70.866 L229.847453,70.8892369 C229.636137,70.9117943 229.422249,70.9268365 229.206035,70.9343583 L228.88,70.94 L227.359,70.94 L227.359,74.76 L227.854,74.761 L227.906593,74.6106109 C228.391985,73.251285 229.022094,72.0871976 229.782508,71.1533291 L230.026,70.866 Z M150.116,58.392 L147.082536,58.6853067 L146.771914,58.7115006 C145.970056,58.7676379 145.210361,58.7338 144.499137,58.6160813 L144.498467,72.1472502 L144.72797,72.0466558 L144.833,72.002 L145.545654,71.6560574 C147.293128,70.7900177 148.953861,69.8587036 150.528463,68.862252 L151.308589,68.3585988 L151.831,68.007 L151.754429,67.6597702 C151.251855,65.3481515 150.796252,62.8683561 150.387012,60.2195741 L150.235718,59.2183581 L150.116,58.392 Z M27.0092191,66.7248213 L27.0035084,66.7624424 C26.7627658,67.9764271 25.9726596,68.9926963 24.9031215,69.5413181 L26.38,69.54 C26.5573739,69.54 26.7297337,69.5501217 26.8968991,69.5696543 C26.9996238,69.5573048 27.1048343,69.5487186 27.2117127,69.5440729 L27.4,69.54 L29.1166345,69.5411929 C28.1037186,69.0215275 27.3414694,68.0824045 27.0592043,66.9531412 L27.0092191,66.7248213 Z M12.8490759,66.9918075 L12.8383233,67.0389601 C12.5624737,68.0463229 11.9026641,68.8949882 11.0260007,69.4178499 L10.802,69.54 L10.984,69.542 L11.08,69.54 L14.8968785,69.5413181 C13.8954247,69.0276203 13.1389592,68.1039188 12.8490759,66.9918075 Z M111.246,41.06 L107.249665,41.06 C108.947293,42.1457118 109.694664,44.4615955 108.572973,46.4245558 C107.833273,47.7190294 106.963424,49.0009128 105.982895,50.2486928 C104.9263,51.6134605 103.938857,52.7579973 103.008427,53.6884271 C101.543618,55.1532359 99.2028192,55.2573228 97.6137792,53.9283075 L97.4678973,53.8028439 C98.5683908,55.5837491 98.1126781,57.9969096 96.2897368,59.2208845 C95.1285824,60.0005167 93.9195182,60.7318511 92.6628928,61.4149963 C94.7082774,60.3398051 96.5496397,59.22863 98.1861506,58.0830723 C99.5748761,57.1109645 101.425548,57.119777 102.804953,58.1050661 C104.564424,59.3618312 106.684456,60.5863323 109.163915,61.7705519 C111.050835,62.6717672 111.69646,64.5215772 111.360947,66.1716402 C111.836653,65.292993 112.630094,64.632476 113.553548,64.3047246 L113.768875,64.2350489 L113.884,64.204 L113.916833,64.1424979 C114.15596,63.6689985 114.256222,63.3074897 114.261959,63.0523295 L114.259766,62.9616185 L114.255,62.931 C114.185189,62.8915443 114.076432,62.8438372 113.921028,62.7933005 L113.795608,62.7549521 L113.490608,62.6713051 C110.827934,61.8725028 108.067972,60.7115665 105.205989,59.1938484 C102.862908,57.9513052 102.355773,54.8140547 104.188037,52.8965689 C107.097097,49.8522042 109.393012,46.0790471 111.072936,41.5431971 L111.246,41.06 Z M91.6082982,61.9685328 L91.4405029,62.0567403 C89.9838733,62.794955 88.4664681,63.4714912 86.8887927,64.086506 L86.16,64.363 L86.2795713,64.3464538 C87.6160463,64.1899267 88.8696714,64.7140756 89.7054532,65.6351187 C89.6041405,64.2548509 90.1878594,62.8205805 91.6082982,61.9685328 Z M228.779,50.9 L225.544575,50.900335 C226.844426,51.5135334 227.760684,52.8062896 227.835105,54.3203597 L227.84,54.52 L227.84,59.26 C227.84,60.9130814 226.837223,62.3319518 225.406781,62.9414993 L228.779,62.94 L228.779,50.9 Z M25.4121526,59.8101508 L25.3835286,59.8294632 C26.1336093,60.3587343 26.6935139,61.1395273 26.9405291,62.0491287 L26.9405291,57.6108713 C26.7169882,58.4340318 26.2372009,59.1517023 25.5921151,59.6729351 L25.4121526,59.8101508 Z M12.9789209,57.9787957 L12.979301,61.6802029 C13.264656,60.9287999 13.7699111,60.2856884 14.4164714,59.8294632 C13.7696239,59.374109 13.2642071,58.7306287 12.9789209,57.9787957 Z M81.3644616,56.9431848 L81.2668105,57.1326892 C81.1124794,57.4255653 80.9393199,57.7174078 80.7472058,58.00744 L80.6915095,58.088192 C80.9845967,57.9018733 81.2958283,57.7266707 81.6248938,57.5633699 L81.9598926,57.4040656 L82.065,57.357 L81.9452829,57.2927593 C81.7507736,57.1843368 81.557189,57.067741 81.3644616,56.9431848 Z M39.92,51.45 L39.92,56.808 L39.974381,56.6533418 C40.4262918,55.4503275 41.440689,54.5239042 42.6957985,54.1923646 L42.9197217,54.1400977 L42.976,54.13 L42.9375576,54.1235084 C41.6190913,53.8620463 40.5338378,52.9525893 40.0275944,51.7409346 L39.948641,51.5362534 L39.92,51.45 Z M69.9338886,51.9494452 L69.8717506,52.029755 L69.827,52.091 L70.044654,52.2025729 L70.972,52.754 L71.4067405,52.9756663 L71.9212686,53.2467757 C72.0019329,53.2902457 72.0800993,53.3328932 72.1558388,53.3747711 L72.5817229,53.6172237 C72.6480393,53.6562336 72.712071,53.6945791 72.773889,53.7323131 L72.9527729,53.8437328 L73.1188008,53.9517988 L73.3476913,54.1112425 L73.535851,54.2302648 L73.566,54.247 L73.6195532,54.1921401 C73.6731364,54.1331513 73.7312925,54.0639455 73.7941642,53.983358 L73.927,53.804 L73.5506434,53.6125033 L73.2805563,53.4790013 L72.1982746,52.9669851 L70.8482555,52.3476907 L70.1873143,52.0564671 L69.9338886,51.9494452 Z M25.4121526,50.5701508 L25.3835286,50.5894632 C26.1336093,51.1187343 26.6935139,51.8995273 26.9405291,52.8091287 L26.9405291,48.3708713 C26.6966663,49.2688645 26.1478492,50.041316 25.4121526,50.5701508 Z M12.979301,48.7397971 L12.979301,52.4402029 C13.264656,51.6887999 13.7699111,51.0456884 14.4164714,50.5894632 C13.7699111,50.1343116 13.264656,49.4912001 12.979301,48.7397971 Z M212.11233,34.6424625 L211.96,34.64 L211.764647,34.6441597 L211.595,34.656 L211.590131,34.7043737 L211.583343,34.8258367 L211.58,35.02 L211.58,35.32 C211.58,37.1920301 210.293999,38.7636985 208.557229,39.1997715 L208.324,39.25 L208.362442,39.2564916 C210.068113,39.5947392 211.383478,41.0174721 211.559851,42.7760044 L211.575105,42.9803597 L211.58,43.18 L211.58,46.9 C211.58,48.500271 210.640271,49.8810564 209.282547,50.520621 L214.638993,50.5213459 C213.402337,49.939457 212.51213,48.7427658 212.362336,47.3252382 L212.344895,47.0996403 L212.34,46.9 L212.34,43.18 C212.34,41.3079699 213.626001,39.7363015 215.362771,39.3002285 L215.557558,39.2564916 L215.595,39.25 L215.557558,39.2435084 C213.851887,38.9052608 212.536522,37.4825279 212.360149,35.7239956 L212.344895,35.5196403 L212.34,35.32 L212.338889,34.9164869 L212.330598,34.7329437 L212.323,34.656 L212.181889,34.6454146 L212.11233,34.6424625 Z M95.4981831,35.5938096 L95.526,35.526 L95.3413701,35.4726602 C95.16893,35.4260442 95.116931,35.4400607 95.0480193,35.5867374 L94.8654566,36.034802 L94.7826331,36.2181125 C92.4035997,41.1491998 89.406107,45.5151131 85.7941773,49.3011117 L85.6942001,49.4022449 L85.4502789,49.6302809 L85.3230998,49.7542157 L85.226,49.854 L85.3666918,49.9790601 L85.622,50.173 L85.7515279,50.068825 L85.859,49.973 L86.1549467,49.6250252 L86.7581699,48.9322443 L86.9,48.76 C88.0949172,47.1667771 90.1722396,46.7690005 91.8120244,47.5416169 L91.7793968,47.4931355 L91.4815397,47.0327273 C90.7120936,45.8433677 90.6319524,44.3415217 91.2564223,43.0828721 L91.3670274,42.8754442 L91.6070274,42.4554442 C92.2817161,41.274739 93.5067582,40.5222843 94.8543415,40.4463492 L95.08,40.44 L97.0747622,40.4407457 C95.5877642,39.4924169 94.8154484,37.5999159 95.424762,35.7940522 L95.4981831,35.5938096 Z M76.495536,46.1506181 L76.795993,46.2927149 L77.4595967,46.6244948 L77.6773396,46.7386417 C77.7775044,46.5428371 77.8867331,46.3491212 78.004744,46.1573603 C77.5989563,46.202544 77.1958427,46.2088471 76.7953832,46.1793783 L76.495536,46.1506181 Z M27.0164916,38.0224424 L27.01,37.984 L27.0035084,38.0224424 C26.7256972,39.4233519 25.7163198,40.5609713 24.3901817,41.0204949 C25.7278867,41.4827627 26.7437624,42.6369012 27.0108185,44.0553782 C27.260732,42.7203532 28.1750498,41.6197141 29.3972559,41.108351 L29.6037466,41.028641 L29.629,41.02 L29.6037466,41.011359 C28.3595817,40.5705174 27.3984035,39.5314546 27.0660093,38.2399681 L27.0164916,38.0224424 Z M12.85,38.252 L12.8106439,38.3952529 C12.4650624,39.5427257 11.6179918,40.4729055 10.5241736,40.9310507 L10.29,41.02 L10.3162534,41.028641 C11.5563959,41.4680574 12.5153786,42.5018331 12.8507471,43.7875138 C13.187281,42.4920856 14.1580253,41.4526394 15.4114969,41.0189238 C14.2751674,40.627652 13.371404,39.737036 12.9605512,38.6093984 L12.8893561,38.3952529 L12.85,38.252 Z M40.601,41.217 L40.3674183,41.2356073 L40.2451299,41.2394697 L40.1227806,41.2395911 L39.92,41.23 L39.92,42.471 L39.9627999,42.3467568 C40.0709361,42.0511048 40.213208,41.7705668 40.385584,41.5105161 L40.5204475,41.3194035 L40.601,41.217 Z M148.38665,36.2231936 C148.281663,37.0688269 148.044319,37.9482849 147.667928,38.8489299 C147.208787,39.9421247 146.664438,41.1430681 146.034469,42.4534689 L148.605,42.206 L148.534936,40.683084 L148.474996,39.2231318 L148.415673,37.4730224 L148.386628,36.3069643 L148.38665,36.2231936 Z M73.498,35.743 L73.444,35.81 L73.8407467,36.0051693 C74.4321619,36.3043933 75.0372767,36.6452326 75.6573395,37.0274556 L76.1252088,37.3218786 L76.5988008,37.6317988 L76.9644673,37.8934745 L77.087,37.975 L77.2127331,37.8306838 L77.313736,37.7040096 L77.35,37.654 L77.1483975,37.5384738 L76.7305881,37.3133719 L76.1911456,37.0377088 L74.893277,36.4057765 L73.498,35.743 Z M52.4619616,36.2233748 L52.296,36.134 L52.2831968,36.1386897 C52.2030828,36.1687565 52.1014989,36.2171853 51.9797185,36.2873696 L51.8512531,36.3649314 C51.7839791,36.407289 51.7154574,36.4476317 51.6457792,36.4859057 L50.9458975,36.8642858 L50.2340381,37.2371198 L49.563,37.577 L49.7142432,37.5215404 C50.446246,37.244802 51.1587933,36.9631912 51.851866,36.6767466 L52.642,36.343 L52.522236,36.260951 L52.4619616,36.2233748 Z" id="斯洛伐克5分彩" fill="#FFFFFF" fill-rule="nonzero"></path>
            <path d="M52.54,87.7 C55.22,87.7 56.56,86.36 56.56,83.68 L56.56,83.68 L56.56,58.06 L56.68,58.06 C59.16,58.06 60.4,56.78 60.4,54.22 C60.4,51.54 59.1,50.2 56.5,50.2 L56.5,50.2 L43.72,50.2 L43.72,43.72 C47.84,42.52 51.54,41.2 54.82,39.76 C56.54,38.92 57.47,38 57.61,37 C57.75,36 57.1,34.88 55.66,33.64 C54.66,32.76 53.69,32.26 52.75,32.14 C51.81,32.02 50.8,32.3 49.72,32.98 C46.88,34.54 43.7,35.96 40.18,37.24 L40.18,37.24 L40,37.18 C38.76,36.86 37.77,36.98 37.03,37.54 C36.29,38.1 35.92,39.02 35.92,40.3 L35.92,40.3 L35.92,56.92 C35.92,63.64 35.36,69.02 34.24,73.06 L34.24,73.06 L34.24,67.42 C34.24,66.46 33.76,65.98 32.8,65.98 L32.8,65.98 L30.94,65.98 L30.94,44.8 L31.06,44.8 C32.02,44.8 32.78,44.42 33.34,43.66 C33.86,42.98 34.12,42.1 34.12,41.02 C34.12,39.94 33.86,39.06 33.34,38.38 C32.78,37.62 32.02,37.24 31.06,37.24 L31.06,37.24 L30.94,37.24 L30.94,35.26 C30.94,32.66 29.64,31.36 27.04,31.36 C24.4,31.36 23.08,32.66 23.08,35.26 L23.08,35.26 L23.08,37.24 L16.72,37.24 L16.72,35.2 C16.72,32.64 15.44,31.36 12.88,31.36 C10.28,31.36 8.98,32.64 8.98,35.2 L8.98,35.2 L8.98,37.24 L8.44,37.24 C5.92,37.24 4.66,38.5 4.66,41.02 C4.66,43.54 5.92,44.8 8.44,44.8 L8.44,44.8 L8.98,44.8 L8.98,65.98 L7.78,65.98 C5.26,65.98 4,67.24 4,69.76 C4,72.28 5.26,73.54 7.78,73.54 L7.78,73.54 L10.9,73.54 C9.98,75.42 8.78,77.26 7.3,79.06 C6.02,80.34 5.38,81.5 5.38,82.54 C5.38,83.62 6.08,84.68 7.48,85.72 C8.56,86.52 9.53,86.88 10.39,86.8 C11.25,86.72 12.14,86.18 13.06,85.18 C14.58,83.42 15.98,81.5 17.26,79.42 C17.82,78.34 17.92,77.38 17.56,76.54 C17.2,75.7 16.44,75.1 15.28,74.74 L15.28,74.74 L11.08,73.54 L26.38,73.54 L24.28,74.68 C23.08,75.32 22.4,76.15 22.24,77.17 C22.08,78.19 22.46,79.26 23.38,80.38 C24.46,81.86 25.34,83.14 26.02,84.22 L26.1185185,84.3733333 C26.3950617,84.7644444 26.7822222,85.0133333 27.28,85.12 C27.84,85.24 28.42,85.12 29.02,84.76 L29.02,84.76 L31.36,83.44 C31.84,83.84 32.22,84.16 32.5,84.4 C33.42,85.44 34.4,85.91 35.44,85.81 C36.48,85.71 37.44,85.04 38.32,83.8 C41.84,77.56 43.64,68.98 43.72,58.06 L43.72,58.06 L48.46,58.06 L48.46,83.68 C48.46,86.36 49.82,87.7 52.54,87.7 Z M23.08,47.32 L16.72,47.32 L16.72,44.8 L23.08,44.8 L23.08,47.32 Z M23.08,56.56 L16.72,56.56 L16.72,53.86 L23.08,53.86 L23.08,56.56 Z M23.08,65.98 L16.72,65.98 L16.72,63.1 L23.08,63.1 L23.08,65.98 Z M32.56,77.62 C32.12,78.5 31.62,78.54 31.06,77.74 C30.9,77.54 30.67,77.26 30.37,76.9 C30.07,76.54 29.84,76.28 29.68,76.12 C28.64,74.92 27.88,74.06 27.4,73.54 L27.4,73.54 L34.12,73.54 C33.72,74.86 33.2,76.22 32.56,77.62 Z M110.98,85.9 C112.14,85.9 113.08,85.54 113.8,84.82 C114.52,84.1 114.88,83.16 114.88,82 L114.88,82 L114.88,68.08 L115,68.14 C115.64,68.3 116.2,68.02 116.68,67.3 C117.96,65.42 118.46,63.7 118.18,62.14 C117.86,60.46 116.68,59.36 114.64,58.84 C112.24,58.12 109.72,57.06 107.08,55.66 C110.52,52.06 113.18,47.6 115.06,42.28 C115.54,40.56 115.52,39.24 115,38.32 C114.48,37.48 113.52,37.06 112.12,37.06 L112.12,37.06 L99.22,37.06 C100.46,34.3 99.64,32.52 96.76,31.72 C94.12,31 92.26,31.92 91.18,34.48 C88.98,39.04 86.22,43.06 82.9,46.54 C81.58,47.74 80.91,48.85 80.89,49.87 C80.87,50.89 81.52,51.96 82.84,53.08 C83.92,53.96 84.92,54.37 85.84,54.31 C86.76,54.25 87.74,53.72 88.78,52.72 C88.94,52.52 89.17,52.25 89.47,51.91 C89.77,51.57 89.98,51.32 90.1,51.16 C91.18,52.72 92.5,54.3 94.06,55.9 C91.26,57.78 88.14,59.36 84.7,60.64 C81.14,61.72 80.36,63.8 82.36,66.88 C83.44,68.48 84.86,68.98 86.62,68.38 C86.66,68.34 86.7,68.32 86.74,68.32 L86.74,68.32 L86.74,82 C86.74,83.16 87.1,84.1 87.82,84.82 C88.54,85.54 89.48,85.9 90.64,85.9 L90.64,85.9 L110.98,85.9 Z M74.38,40.96 C75.66,41.92 76.78,42.32 77.74,42.16 C78.74,41.96 79.72,41.2 80.68,39.88 C82.24,37.68 81.92,35.86 79.72,34.42 C79.36,34.18 78.78,33.86 77.98,33.46 C77.34,33.14 76.34,32.66 74.98,32.02 C73.02,31.26 71.4,31.78 70.12,33.58 C69.24,34.78 68.94,35.88 69.22,36.88 C69.5,37.88 70.32,38.72 71.68,39.4 C72.52,39.8 73.42,40.32 74.38,40.96 Z M100.18,50.86 C97.98,49.02 96.2,47.02 94.84,44.86 L94.84,44.86 L95.08,44.44 L105.1,44.44 C104.46,45.56 103.7,46.68 102.82,47.8 C101.86,49.04 100.98,50.06 100.18,50.86 Z M70.9,57.28 C73.34,59.04 75.46,58.62 77.26,56.02 C78.82,53.82 78.48,51.98 76.24,50.5 C75.64,50.18 75.04,49.88 74.44,49.6 C73.08,48.96 72.06,48.5 71.38,48.22 C69.42,47.46 67.8,48 66.52,49.84 C65.64,51.08 65.34,52.2 65.62,53.2 C65.9,54.2 66.74,55.04 68.14,55.72 C68.34,55.84 68.64,56.02 69.04,56.26 C69.92,56.7 70.54,57.04 70.9,57.28 Z M107.44,65.38 L93.7,65.38 C96.22,64.1 98.48,62.76 100.48,61.36 C102.44,62.76 104.76,64.1 107.44,65.38 L107.44,65.38 Z M69.1,84.1 C71.74,86.02 73.84,85.54 75.4,82.66 C77.28,79.18 79.24,75.3 81.28,71.02 C82.28,68.9 81.86,67.08 80.02,65.56 C77.46,63.4 75.44,63.82 73.96,66.82 C72.68,69.34 71.58,71.36 70.66,72.88 C69.58,74.76 68.58,76.46 67.66,77.98 C66.9,79.26 66.64,80.38 66.88,81.34 C67.12,82.3 67.86,83.22 69.1,84.1 Z M104.98,78.46 L96.34,78.46 C95.38,78.46 94.9,77.98 94.9,77.02 L94.9,77.02 L94.9,72.64 L106.42,72.64 L106.42,77.02 C106.42,77.98 105.94,78.46 104.98,78.46 L104.98,78.46 Z M170.5,87.76 C173.14,87.76 175.14,87.18 176.5,86.02 C178.02,84.74 179.16,82.44 179.92,79.12 C180.16,77.6 180.18,76.12 179.98,74.68 C179.74,72.88 179.16,71.66 178.24,71.02 C176.6,69.9 175.24,70.06 174.16,71.5 C173.28,72.66 172.7,74.5 172.42,77.02 C172.14,78.22 171.72,78.82 171.16,78.82 C169.52,78.82 167.96,76.68 166.48,72.4 C170.12,68.96 173.38,65.02 176.26,60.58 C177.9,57.74 177.2,55.78 174.16,54.7 C171.6,53.82 169.66,54.56 168.34,56.92 C166.86,59.2 165.38,61.16 163.9,62.8 C163.38,60.24 162.88,57.02 162.4,53.14 L162.4,53.14 L175.24,51.88 C177.88,51.6 179.1,50.12 178.9,47.44 C178.7,44.72 177.26,43.5 174.58,43.78 L174.58,43.78 L170.14,44.2 L161.68,44.98 C161.52,42.06 161.4,39.08 161.32,36.04 C161.4,32.96 159.9,31.42 156.82,31.42 C153.82,31.42 152.34,32.92 152.38,35.92 C152.42,38.24 152.56,41.54 152.8,45.82 L152.8,45.82 L145.96,46.48 C143.24,46.8 142,48.3 142.24,50.98 C142.48,53.74 143.98,54.98 146.74,54.7 L146.74,54.7 L153.58,54.04 C154.3,60.04 155.22,65.26 156.34,69.7 C153.38,71.94 150.1,73.92 146.5,75.64 C144.58,76.44 143.42,77.34 143.02,78.34 C142.58,79.46 142.94,80.8 144.1,82.36 C144.94,83.52 145.88,84.2 146.92,84.4 C147.92,84.56 149.1,84.32 150.46,83.68 C153.46,82.16 156.42,80.36 159.34,78.28 C162.26,84.6 165.98,87.76 170.5,87.76 Z M136.12,87.58 C139.04,87.58 140.5,86.12 140.5,83.2 L140.5,83.2 L140.5,44.56 C141.98,41.72 143.14,39.3 143.98,37.3 C145.1,34.62 144.24,32.82 141.4,31.9 C138.72,31.06 136.82,32 135.7,34.72 C133.22,40.36 130.08,45.48 126.28,50.08 C124.36,52.12 124.14,54.54 125.62,57.34 C126.42,58.9 127.35,59.76 128.41,59.92 C129.47,60.08 130.56,59.5 131.68,58.18 L131.68,58.18 L131.74,83.2 C131.74,86.12 133.2,87.58 136.12,87.58 Z M168.76,40.9 C170.56,42.74 172.46,42.78 174.46,41.02 C175.5,40.06 176.04,39.18 176.08,38.38 C176.12,37.58 175.64,36.72 174.64,35.8 C174.28,35.48 173.72,35.02 172.96,34.42 C172.04,33.62 171.34,33.02 170.86,32.62 C169.22,31.3 167.56,31.34 165.88,32.74 C163.76,34.5 163.7,36.26 165.7,38.02 C165.9,38.18 166.19,38.44 166.57,38.8 C166.95,39.16 167.24,39.44 167.44,39.64 C167.76,39.92 168.2,40.34 168.76,40.9 Z M230.74,86.98 C233.22,86.98 235.08,86.52 236.32,85.6 C237.68,84.64 238.66,82.94 239.26,80.5 C239.5,78.94 239.5,77.5 239.26,76.18 C238.9,74.58 238.18,73.54 237.1,73.06 C233.9,71.66 231.88,73.46 231.04,78.46 C230.8,78.66 230.42,78.76 229.9,78.76 L229.9,78.76 L225.52,78.76 C224.56,78.76 223.96,78.63 223.72,78.37 C223.48,78.11 223.36,77.46 223.36,76.42 L223.36,76.42 L223.36,66.94 L228.88,66.94 C230.04,66.94 230.98,66.58 231.7,65.86 C232.42,65.14 232.78,64.2 232.78,63.04 L232.78,63.04 L232.78,50.8 C232.78,49.64 232.42,48.7 231.7,47.98 C230.98,47.26 230.04,46.9 228.88,46.9 L228.88,46.9 L216.34,46.9 L216.34,43.18 L234.52,43.18 C237.12,43.18 238.42,41.86 238.42,39.22 C238.42,36.62 237.12,35.32 234.52,35.32 L234.52,35.32 L216.34,35.32 L216.34,35.02 C216.34,32.1 214.88,30.64 211.96,30.64 C209.04,30.64 207.58,32.1 207.58,35.02 L207.58,35.02 L207.58,35.32 L190.12,35.32 C187.52,35.32 186.22,36.62 186.22,39.22 C186.22,41.86 187.52,43.18 190.12,43.18 L190.12,43.18 L207.58,43.18 L207.58,46.9 L196.18,46.9 C195.02,46.9 194.08,47.26 193.36,47.98 C192.64,48.7 192.28,49.64 192.28,50.8 L192.28,50.8 L192.28,63.52 C192.28,64.56 192.59,65.39 193.21,66.01 C193.83,66.63 194.66,66.94 195.7,66.94 L195.7,66.94 L199.48,66.94 C199.12,69.42 198.58,71.32 197.86,72.64 C196.94,74.36 195.38,75.78 193.18,76.9 C190.66,77.62 188.74,78.58 187.42,79.78 C185.78,81.26 185.48,82.84 186.52,84.52 C187.24,85.68 188.5,86.32 190.3,86.44 C191.74,86.56 193.32,86.36 195.04,85.84 C199.92,83.96 203.42,81.36 205.54,78.04 C207.18,75.44 208.28,71.74 208.84,66.94 L208.84,66.94 L214.54,66.94 L214.54,76.54 C214.54,80.54 215.16,83.26 216.4,84.7 C217.76,86.22 220.34,86.98 224.14,86.98 L224.14,86.98 L230.74,86.98 Z M223.84,59.26 L202.06,59.26 C201.1,59.26 200.62,58.78 200.62,57.82 L200.62,57.82 L200.62,55.96 C200.62,55 201.1,54.52 202.06,54.52 L202.06,54.52 L223.84,54.52 L223.84,59.26 Z M61.03,142.84 C65.51,142.84 69.27,141.46 72.31,138.7 C75.55,135.74 77.17,131.84 77.17,127 C77.17,122.4 75.79,118.84 73.03,116.32 C70.55,114.04 67.29,112.9 63.25,112.9 C61.65,112.9 60.11,113.2 58.63,113.8 L58.63,113.8 L59.29,106.24 L70.75,106.24 C73.71,106.24 75.19,104.76 75.19,101.8 C75.19,98.84 73.71,97.36 70.75,97.36 L70.75,97.36 L53.89,97.36 C52.77,97.36 51.85,97.7 51.13,98.38 C50.41,99.06 50.01,99.98 49.93,101.14 L49.93,101.14 L49.09,116.86 C49.01,118.58 49.69,119.92 51.13,120.88 L51.13,120.88 L51.31,121 C52.91,122 54.61,121.98 56.41,120.94 C57.49,120.54 58.67,120.34 59.95,120.34 C61.91,120.34 63.49,120.92 64.69,122.08 C65.89,123.32 66.49,125.04 66.49,127.24 C66.49,129.52 65.87,131.26 64.63,132.46 C63.39,133.62 61.67,134.2 59.47,134.2 C57.71,134.2 55.89,133.7 54.01,132.7 C51.53,130.82 49.41,131.12 47.65,133.6 C46.89,134.64 46.53,135.56 46.57,136.36 C46.61,137.2 47.09,138.02 48.01,138.82 C51.61,141.5 55.95,142.84 61.03,142.84 Z M113.53,147.64 C115.61,147.64 117.21,147.56 118.33,147.4 C119.69,147.2 120.81,146.9 121.69,146.5 C122.69,145.98 123.61,145.2 124.45,144.16 C125.45,142.92 126.23,140.36 126.79,136.48 C127.35,132.68 127.83,126.66 128.23,118.42 C128.31,118.46 128.42,118.54 128.56,118.66 C128.7,118.78 128.81,118.88 128.89,118.96 C130.37,120.08 131.65,120.62 132.73,120.58 C133.89,120.54 134.99,119.82 136.03,118.42 C137.23,116.82 137.61,115.34 137.17,113.98 C136.77,112.78 135.63,111.58 133.75,110.38 C128.95,106.38 125.43,101.16 123.19,94.72 C122.87,93.8 122.33,93.05 121.57,92.47 C120.81,91.89 119.93,91.6 118.93,91.6 L118.93,91.6 L105.19,91.6 C102.51,91.6 101.17,92.94 101.17,95.62 C101.17,98.3 102.51,99.64 105.19,99.64 L105.19,99.64 L115.63,99.64 C117.67,104.92 120.35,109.6 123.67,113.68 L123.67,113.68 L97.69,113.68 C96.73,113.68 96.49,113.28 96.97,112.48 C98.45,110.08 99.73,107.56 100.81,104.92 C101.97,101.84 100.97,99.92 97.81,99.16 C94.89,98.44 92.89,99.58 91.81,102.58 C90.17,106.3 88.09,109.62 85.57,112.54 C84.13,113.9 83.39,115.12 83.35,116.2 C83.31,117.36 83.99,118.58 85.39,119.86 C86.55,120.94 87.69,121.42 88.81,121.3 C89.85,121.18 90.95,120.52 92.11,119.32 C92.27,119.16 92.51,118.88 92.83,118.48 L92.83,118.48 L92.83,118.66 C92.83,119.62 93.11,120.38 93.67,120.94 C94.23,121.5 94.99,121.78 95.95,121.78 L95.95,121.78 L100.39,121.78 C98.67,128.94 95.39,134.34 90.55,137.98 C88.63,139.06 87.51,140.16 87.19,141.28 C86.83,142.52 87.37,143.84 88.81,145.24 C89.81,146.2 90.83,146.72 91.87,146.8 C92.87,146.84 93.99,146.48 95.23,145.72 C102.39,140.64 107.21,132.66 109.69,121.78 L109.69,121.78 L119.35,121.78 C118.83,131.78 117.97,137.38 116.77,138.58 C116.17,139.14 115.33,139.42 114.25,139.42 C113.21,139.42 112.31,139.4 111.55,139.36 C109.91,139.28 108.83,139.57 108.31,140.23 C107.79,140.89 107.83,141.86 108.43,143.14 C108.59,143.5 108.69,143.82 108.73,144.1 C108.93,145.18 109.45,146.04 110.29,146.68 C111.13,147.32 112.21,147.64 113.53,147.64 Z M179.17,106.48 C180.09,106.56 181.11,106.26 182.23,105.58 C184.03,104.46 185.77,103.24 187.45,101.92 C189.21,100.48 190.49,99.36 191.29,98.56 C193.69,96 193.29,94.04 190.09,92.68 C187.77,91.72 185.83,92.12 184.27,93.88 C182.55,95.52 180.37,97.14 177.73,98.74 C176.05,99.66 175.09,100.6 174.85,101.56 C174.65,102.56 175.19,103.7 176.47,104.98 C177.35,105.9 178.25,106.4 179.17,106.48 Z M144.91,113.92 C146.03,114.68 146.95,114.98 147.67,114.82 C148.43,114.66 149.15,114.02 149.83,112.9 C151.19,110.14 152.45,106.78 153.61,102.82 C157.45,102.26 160.91,101.64 163.99,100.96 C166.23,100.48 167.87,100.08 168.91,99.76 C172.23,98.8 172.77,97 170.53,94.36 C169.77,93.44 169.03,92.86 168.31,92.62 C167.51,92.38 166.59,92.44 165.55,92.8 C162.43,93.88 158.51,94.9 153.79,95.86 L153.79,95.86 L151.21,95.38 C150.05,95.18 149.05,95.36 148.21,95.92 C147.37,96.48 146.85,97.3 146.65,98.38 C145.89,102.22 144.87,105.58 143.59,108.46 C142.95,109.62 142.73,110.63 142.93,111.49 C143.13,112.35 143.79,113.16 144.91,113.92 Z M167.47,110.56 C168.35,113 169.99,113.66 172.39,112.54 C173.47,112.06 174.17,111.49 174.49,110.83 C174.81,110.17 174.77,109.32 174.37,108.28 C173.29,106 172.35,104.14 171.55,102.7 C170.55,100.98 169.09,100.52 167.17,101.32 C164.81,102.32 164.21,103.88 165.37,106 C165.65,106.56 166.07,107.44 166.63,108.64 C166.656667,108.706667 166.687778,108.782222 166.723333,108.866667 L166.843333,109.146667 C166.887778,109.248889 166.936667,109.36 166.99,109.48 C167.19,109.96 167.35,110.32 167.47,110.56 Z M155.71,109.06 C156.23,111.66 157.75,112.56 160.27,111.76 C162.31,111.12 163.07,109.82 162.55,107.86 C162.23,106.74 161.97,105.9 161.77,105.34 C161.09,103.38 159.71,102.7 157.63,103.3 C155.35,104.02 154.59,105.46 155.35,107.62 C155.39,107.86 155.47,108.18 155.59,108.58 C155.63,108.7 155.65,108.78 155.65,108.82 C155.69,108.94 155.71,109.02 155.71,109.06 Z M159.55,147.64 C162.27,147.64 163.63,146.28 163.63,143.56 L163.63,143.56 L163.63,135.76 C163.91,136 164.31,136.38 164.83,136.9 C165.35,137.42 165.75,137.8 166.03,138.04 C167.11,139.16 168.1,139.7 169,139.66 C169.9,139.62 170.81,138.96 171.73,137.68 C172.57,136.56 172.99,135.66 172.99,134.98 C172.95,134.22 172.41,133.46 171.37,132.7 C168.05,130.42 165.47,128.74 163.63,127.66 L163.63,127.66 L163.63,126.94 L169.99,126.94 C171.03,126.94 171.85,126.63 172.45,126.01 C173.05,125.39 173.35,124.58 173.35,123.58 L173.35,123.58 L173.35,119.86 C174.39,120.82 175.39,121.88 176.35,123.04 C176.95,123.84 177.73,124.34 178.69,124.54 C179.65,124.74 180.61,124.58 181.57,124.06 C186.09,121.54 189.99,118.56 193.27,115.12 C195.55,112.48 195.11,110.54 191.95,109.3 C189.63,108.34 187.71,108.78 186.19,110.62 C182.59,114.26 178.07,117.14 172.63,119.26 L172.63,119.26 L172.69,119.32 L163.63,119.32 L163.63,117.16 C163.63,114.44 162.27,113.08 159.55,113.08 C156.83,113.08 155.47,114.44 155.47,117.16 L155.47,117.16 L155.47,119.32 L148.15,119.32 C145.63,119.32 144.37,120.58 144.37,123.1 C144.37,125.66 145.63,126.94 148.15,126.94 L148.15,126.94 L152.41,126.94 C150.49,130.02 148.15,132.84 145.39,135.4 C144.03,136.48 143.26,137.5 143.08,138.46 C142.9,139.42 143.29,140.58 144.25,141.94 C145.21,143.3 146.17,143.98 147.13,143.98 C148.01,144.02 149.07,143.44 150.31,142.24 C152.27,140.12 153.99,138.06 155.47,136.06 L155.47,136.06 L155.47,143.56 C155.47,146.28 156.83,147.64 159.55,147.64 Z M176.95,146.62 C177.95,146.74 179.13,146.44 180.49,145.72 C183.97,143.68 186.93,141.58 189.37,139.42 C192.01,137.1 194.33,134.52 196.33,131.68 C198.17,128.8 197.51,126.78 194.35,125.62 C191.71,124.66 189.65,125.36 188.17,127.72 C185.21,131.72 181.23,135.1 176.23,137.86 C174.31,138.78 173.15,139.74 172.75,140.74 C172.31,141.9 172.71,143.24 173.95,144.76 C174.83,145.88 175.83,146.5 176.95,146.62 Z" id="斯洛伐克5分彩" fill="#6E2F04" fill-rule="nonzero"></path>
        </g>
    </g>
</svg>