<svg id="圖層_1" data-name="圖層 1" xmlns="http://www.w3.org/2000/svg" xmlns:xlink="http://www.w3.org/1999/xlink" viewBox="0 0 100 100"><defs><style>.cls-1,.cls-6{fill:none;}.cls-2{clip-path:url(#clip-path);}.cls-3{clip-path:url(#clip-path-2);}.cls-4{fill:#20233b;}.cls-5{stroke-miterlimit:10;fill:url(#未命名漸層_28);stroke:url(#未命名漸層_32);}.cls-6{stroke:#d8607d;}.cls-10,.cls-6{stroke-linecap:round;stroke-linejoin:round;}.cls-7{fill:url(#未命名漸層_28-2);}.cls-8{fill:url(#未命名漸層_28-3);}.cls-9{fill:url(#未命名漸層_28-4);}.cls-10{fill:#770e34;stroke:#770e34;stroke-width:2px;}.cls-11{fill:#fff;}</style><clipPath id="clip-path"><rect class="cls-1" x="16.93" y="-2081.4" width="69.99" height="1097.03"/></clipPath><clipPath id="clip-path-2"><rect class="cls-1" x="23.66" y="-2154.08" width="1869.66" height="1169.71"/></clipPath><linearGradient id="未命名漸層_28" x1="2.17" y1="57.48" x2="97.32" y2="57.48" gradientUnits="userSpaceOnUse"><stop offset="0.16" stop-color="#c1166b"/><stop offset="0.29" stop-color="#bb1e72"/><stop offset="0.48" stop-color="#ab3384"/><stop offset="0.67" stop-color="#974d9a"/></linearGradient><linearGradient id="未命名漸層_32" x1="1.38" y1="57.59" x2="98.5" y2="57.59" gradientUnits="userSpaceOnUse"><stop offset="0.16" stop-color="#c1166b"/><stop offset="0.28" stop-color="#c01e71"/><stop offset="0.47" stop-color="#bc3382"/><stop offset="0.67" stop-color="#b65099"/></linearGradient><linearGradient id="未命名漸層_28-2" x1="80.91" y1="9.48" x2="87.87" y2="9.48" xlink:href="#未命名漸層_28"/><linearGradient id="未命名漸層_28-3" x1="9.77" y1="17.99" x2="19.84" y2="17.99" xlink:href="#未命名漸層_28"/><linearGradient id="未命名漸層_28-4" x1="61.98" y1="84.75" x2="72.04" y2="84.75" xlink:href="#未命名漸層_28"/></defs><title>20201019_彩種icon_2</title><g class="cls-2"><g class="cls-3"><rect class="cls-4" x="10.2" y="-2088.13" width="83.45" height="3194.16"/></g></g><polygon class="cls-5" points="36.94 95.17 97.32 19.79 2.17 33.42 36.94 95.17"/><line class="cls-6" x1="73.25" y1="61.06" x2="53.57" y2="80.94"/><line class="cls-6" x1="15.97" y1="26.36" x2="3.52" y2="40.51"/><line class="cls-6" x1="57.49" y1="6.47" x2="36.01" y2="30.86"/><polygon class="cls-6" points="29.29 92.97 96.66 27.98 3.51 29.31 29.29 92.97"/><line class="cls-6" x1="95.84" y1="40.58" x2="85.87" y2="50.55"/><line class="cls-6" x1="23.94" y1="79.75" x2="12.59" y2="92.64"/><circle class="cls-7" cx="84.39" cy="9.48" r="3.48"/><circle class="cls-8" cx="14.8" cy="17.99" r="5.03"/><circle class="cls-9" cx="67.01" cy="84.75" r="5.03"/><path class="cls-10" d="M3.13,73.85l5.31-9.46L13,63.74,7.65,73.2ZM9,63.07l1.29-5.5,4.53-.65-1.3,5.5ZM16.51,67,12,67.63l1.25-3.1,7.15-1,1.23-1.08,6.28-.9L26.7,62.61l6.76-1-1.26,3.1-5.56.8,2.82,4.54L23,71l-1.84-3.47-5,4.45-6.27.9ZM11.79,56.17l1.29-5.5L17.61,50l-1.3,5.5Zm19.74-8.73-1,1.44,8-1.14-5.31,13-4.56.66,4.18-10.24L23.2,52.51,19,62.75l-4.63.66,4.78-11.72-.11-1.16,5.88-.84.46-.63-.11-.73Zm-9.6,10.48-.65.09.91-2.15,2.75-.39,1.23-3L29.34,52l-1.23,3,2.94-.42-.9,2.15-.62.09-1,4-2.37.33,1-3.68-1.54,3.77-3.17.45,1.46-3.59-2,3.67-2.23.32ZM25,55l-2.2.31.5-2.15,2.23-.32Zm4.8-2.77L32,51.94,30.72,54.2l-2.2.32Z"/><path class="cls-10" d="M32.43,69.68l5.2-9.54,4.27-.61-5.17,9.54Zm5.74-10.8,1.36-5.5,4.3-.62-1.36,5.51ZM55.53,44l-11,23.92L40,68.57,50.79,45.64l-.53-.89ZM41,52l1.36-5.51,4.3-.62-1.36,5.51Zm5.17-1.3,2.07-.3L44.38,59l-2.1.3Zm10.63-4.76-.44-1,5.21-.75-9,21.52-4.3.61ZM53.06,49.7l2-.29-3.29,8.11-2,.29ZM64.2,44l-.68-1.11,5.62-.81-9.69,23.7-4.4.63Zm-4.15,4.7,2-.29-3.3,8.11-2,.29Z"/><path class="cls-10" d="M62.47,65.32l4.65-9,3.72-.53-4.65,9Zm5.26-.73,4.1-10L67,55.24l1.23-3L73,51.56l.63-1.49,5.53-.79-.63,1.49,4.79-.69-1.23,3-4.76.69-4.1,10Zm7.13-19.35L74,49.3l-3.78.55.84-4.07Zm11.46-2.67-15,2.58,1.21-2.9,15-2.59Zm-11.63,21,2.81-8.73,3.85-.55L78.51,63Zm5-19-.83,4.07-3.79.54.84-4.07Zm-.18,18.39,7.09-8L92,54.13l-7.09,8Zm6.62-19.31-2.58,4.32-3.79.54,2.59-4.32Zm-3,10.86L90,46.73,95.29,46l-6.82,7.75Zm3.27-8.14,6.83-7.75,5.33-.77L91.8,45.58Z"/><path class="cls-11" d="M.29,71.84,5.6,62.38l4.53-.65L4.82,71.19ZM6.15,61.06l1.29-5.5L12,54.91l-1.29,5.5ZM13.67,65l-4.49.65,1.25-3.1,7.15-1,1.23-1.08,6.28-.9L23.86,60.6l6.76-1-1.26,3.1-5.56.8,2.82,4.54L20.18,69l-1.84-3.46-5,4.44-6.27.9ZM9,54.16l1.29-5.5L14.77,48l-1.29,5.5Zm19.74-8.73-1,1.45,8-1.15-5.31,13-4.56.66L30,49.13l-9.64,1.38L16.18,60.74l-4.63.66,4.78-11.71-.11-1.17,5.89-.84.45-.63-.11-.73Zm-9.6,10.48-.64.09.9-2.15,2.75-.39,1.23-3L26.5,50l-1.23,3,2.94-.42-.9,2.15-.61.09-1,4-2.36.34,1-3.68-1.54,3.76-3.17.45L21,56.1l-2,3.67-2.23.32Zm3-2.89-2.2.31.5-2.15,2.23-.32Zm4.8-2.77,2.23-.32-1.28,2.26-2.2.32Z"/><path class="cls-11" d="M29.59,67.67l5.2-9.54,4.27-.61-5.17,9.54Zm5.74-10.79,1.36-5.51,4.3-.62-1.36,5.51ZM52.69,42l-11,23.92-4.53.65L48,43.63l-.53-.88ZM38.13,50l1.36-5.51,4.3-.61-1.36,5.51Zm5.17-1.3,2.07-.3L41.54,57l-2.1.3Zm10.63-4.75-.44-1,5.21-.74-9,21.51-4.3.62Zm-3.71,3.76,2-.29-3.29,8.12-2,.28ZM61.36,42l-.68-1.11,5.63-.81-9.7,23.7-4.4.63Zm-4.15,4.7,2-.29-3.29,8.12-2,.28Z"/><path class="cls-11" d="M59.63,63.31l4.65-9L68,53.78l-4.65,9Zm5.26-.72,4.1-10-4.79.69,1.23-3,4.76-.68.63-1.49,5.53-.79-.63,1.49,4.79-.69-1.23,3-4.76.68-4.1,10ZM72,43.23l-.84,4.07-3.78.54.84-4.07Zm11.46-2.67-15,2.59,1.21-2.91,15-2.58Zm-11.62,21,2.8-8.73,3.85-.56L75.67,61Zm5-19L76,46.6l-3.79.54.84-4.06Zm-.19,18.4,7.09-8,5.34-.77-7.09,8Zm6.62-19.32-2.58,4.32-3.79.54,2.59-4.32Zm-3,10.87,6.83-7.75L92.45,44l-6.82,7.75Zm3.27-8.15,6.83-7.75,5.34-.76L89,43.57Z"/></svg>