<?xml version="1.0" encoding="UTF-8"?>
<svg width="193px" height="173px" viewBox="0 0 193 173" version="1.1" xmlns="http://www.w3.org/2000/svg" xmlns:xlink="http://www.w3.org/1999/xlink">
    <title>mdpi/華潤3分彩 copy</title>
    <defs>
        <path d="M60.02,61.9 C62.86,61.9 64.28,60.48 64.28,57.64 L64.28,57.64 L64.28,40.84 C65.24,39.72 66.12,38.6 66.92,37.48 C68.8,34.76 68.18,32.86 65.06,31.78 C62.66,30.94 60.8,31.54 59.48,33.58 C56.88,37.02 53.72,40.1 50,42.82 C48.44,43.82 47.57,44.86 47.39,45.94 C47.21,47.02 47.72,48.22 48.92,49.54 C49.84,50.58 50.8,51.12 51.8,51.16 C52.72,51.2 53.76,50.78 54.92,49.9 C55.04,49.82 55.22,49.68 55.46,49.48 C55.58,49.4 55.66,49.34 55.7,49.3 L55.7,49.3 L55.7,57.64 C55.7,60.48 57.14,61.9 60.02,61.9 Z M92.3,60.7 C94.58,60.7 96.34,60.34 97.58,59.62 C98.9,58.9 99.86,57.64 100.46,55.84 C100.74,54.44 100.76,53.18 100.52,52.06 C100.2,50.74 99.52,49.86 98.48,49.42 C95.52,48.18 93.4,49.46 92.12,53.26 C92,53.3 91.78,53.32 91.46,53.32 L91.46,53.32 L86.06,53.32 C84.98,53.32 84.29,53.18 83.99,52.9 C83.69,52.62 83.54,51.9 83.54,50.74 L83.54,50.74 L83.54,47.68 C86.66,46.48 89.58,45.28 92.3,44.08 C93.14,43.68 94.36,43.08 95.96,42.28 C98.84,40.64 99.18,38.56 96.98,36.04 C95.14,33.96 93.1,33.64 90.86,35.08 C88.42,36.52 85.98,37.8 83.54,38.92 L83.54,38.92 L83.54,36.04 C83.54,33.16 82.1,31.72 79.22,31.72 C76.34,31.72 74.9,33.16 74.9,36.04 L74.9,36.04 L74.9,42.46 C73.62,42.94 71.7,43.58 69.14,44.38 C67.7,44.78 66.77,45.37 66.35,46.15 C65.93,46.93 66,47.98 66.56,49.3 C67.52,51.42 69.18,52.16 71.54,51.52 C71.94,51.4 72.51,51.23 73.25,51.01 C73.99,50.79 74.54,50.62 74.9,50.5 L74.9,50.5 L74.9,50.8 C74.9,54.6 75.56,57.18 76.88,58.54 C78.24,59.98 80.84,60.7 84.68,60.7 L84.68,60.7 L92.3,60.7 Z M74.06,87.7 C77.1,87.7 78.62,86.18 78.62,83.14 L78.62,83.14 L78.62,76.66 L97.22,76.66 C100.02,76.66 101.42,75.26 101.42,72.46 C101.42,69.66 100.02,68.26 97.22,68.26 L97.22,68.26 L78.62,68.26 L78.62,66.34 C78.62,63.3 77.1,61.78 74.06,61.78 C70.98,61.78 69.44,63.3 69.44,66.34 L69.44,66.34 L69.44,68.26 L51.08,68.26 C48.28,68.26 46.88,69.66 46.88,72.46 C46.88,75.26 48.28,76.66 51.08,76.66 L51.08,76.66 L69.44,76.66 L69.44,83.14 C69.44,86.18 70.98,87.7 74.06,87.7 Z M126.2,39.88 C127.68,42.48 129.6,42.88 131.96,41.08 C132.88,40.36 133.44,39.66 133.64,38.98 C133.84,38.22 133.64,37.38 133.04,36.46 C132.32,35.38 131.3,34.08 129.98,32.56 C128.58,31 126.98,30.84 125.18,32.08 C123.06,33.6 122.82,35.36 124.46,37.36 C124.9,37.96 125.32,38.56 125.72,39.16 C125.96,39.48 126.12,39.72 126.2,39.88 Z M112.58,40.54 C115.1,42.46 117.28,42.18 119.12,39.7 C119.92,38.58 120.27,37.6 120.17,36.76 C120.07,35.92 119.46,35.12 118.34,34.36 C117.26,33.68 116.1,33.04 114.86,32.44 C112.98,31.6 111.36,32.06 110,33.82 C108.16,36.26 108.54,38.2 111.14,39.64 C111.42,39.8 111.8,40.04 112.28,40.36 C112.32,40.36 112.37,40.38 112.43,40.42 C112.49,40.46 112.54,40.5 112.58,40.54 Z M150.60283,87.5240678 L150.92,87.52 C153.68,87.32 155.72,86.84 157.04,86.08 C158.28,85.44 159.14,84.5 159.62,83.26 C160.1,82.06 160.34,80.34 160.34,78.1 L160.34,78.1 L160.34,37 C160.34,35.84 159.98,34.9 159.26,34.18 C158.54,33.46 157.6,33.1 156.44,33.1 L156.44,33.1 L139.88,33.1 C137.2,33.1 135.86,34.44 135.86,37.12 C135.86,39.8 137.2,41.14 139.88,41.14 L139.88,41.14 L151.28,41.14 C152.24,41.14 152.72,41.62 152.72,42.58 L152.72,42.58 L152.72,77.98 C152.72,78.5 152.62,78.87 152.42,79.09 C152.22,79.31 151.84,79.42 151.28,79.42 C150.76,79.42 150.32,79.44 149.96,79.48 C145.6,79.36 143.92,80.94 144.92,84.22 C145.6,86.5 147.6,87.6 150.92,87.52 L150.60283,87.5240678 Z M123.92,87.22 C126.48,87.22 127.76,85.94 127.76,83.38 L127.76,83.38 L127.76,47.2 C127.76,44.64 126.48,43.36 123.92,43.36 C121.36,43.36 120.08,44.64 120.08,47.2 L120.08,47.2 L120.08,67.54 L117.26,65.74 C116.1,64.98 115.05,64.78 114.11,65.14 C113.17,65.5 112.46,66.38 111.98,67.78 C110.78,71.3 109.26,75.22 107.42,79.54 C106.86,80.78 106.78,81.8 107.18,82.6 C107.54,83.32 108.36,84.04 109.64,84.76 C112.44,86.32 114.4,85.64 115.52,82.72 C117.48,77.44 119,72.92 120.08,69.16 L120.08,69.16 L120.08,83.38 C120.08,85.94 121.36,87.22 123.92,87.22 Z M147.5,78.64 C149.98,78.64 151.22,77.4 151.22,74.92 C151.22,72.44 149.98,71.2 147.5,71.2 L147.5,71.2 L144.32,71.2 L144.32,65.26 L146,65.26 C148.4,65.26 149.6,64.04 149.6,61.6 C149.6,59.2 148.4,58 146,58 L146,58 L144.32,58 L144.32,52.84 L146.96,52.84 C149.4,52.84 150.62,51.6 150.62,49.12 C150.62,46.68 149.4,45.46 146.96,45.46 L146.96,45.46 L133.64,45.46 C131.2,45.46 129.98,46.68 129.98,49.12 C129.98,51.6 131.2,52.84 133.64,52.84 L133.64,52.84 L136.64,52.84 L136.64,58 L134.36,58 C131.96,58 130.76,59.2 130.76,61.6 C130.76,64.04 131.96,65.26 134.36,65.26 L134.36,65.26 L136.64,65.26 L136.64,71.2 L133.1,71.2 C130.62,71.2 129.38,72.44 129.38,74.92 C129.38,77.4 130.62,78.64 133.1,78.64 L133.1,78.64 L147.5,78.64 Z M110.9,56.44 C113.34,58.28 115.48,57.92 117.32,55.36 C118.84,53.24 118.56,51.46 116.48,50.02 C116.36,49.94 116.17,49.83 115.91,49.69 C115.65,49.55 115.46,49.46 115.34,49.42 L115.34,49.42 L113.18,48.34 C111.22,47.54 109.58,48.02 108.26,49.78 C107.38,50.98 107.08,52.1 107.36,53.14 C107.64,54.18 108.44,55.04 109.76,55.72 C109.88,55.8 110.07,55.92 110.33,56.08 C110.59,56.24 110.78,56.36 110.9,56.44 Z M42.47,142.84 C47.07,142.84 50.93,141.72 54.05,139.48 C57.33,137.04 58.97,133.82 58.97,129.82 C58.97,127.06 58.15,124.72 56.51,122.8 C55.03,121.04 52.97,119.76 50.33,118.96 L50.33,118.96 L50.33,118.66 C55.13,116.74 57.53,113.46 57.53,108.82 C57.53,104.9 56.13,101.86 53.33,99.7 C50.65,97.58 46.95,96.52 42.23,96.52 C38.63,96.52 35.19,97.5 31.91,99.46 C29.59,101.14 29.31,103.08 31.07,105.28 C31.95,106.36 32.95,106.95 34.07,107.05 C35.19,107.15 36.33,106.78 37.49,105.94 C38.81,105.22 40.23,104.86 41.75,104.86 C45.15,104.86 46.85,106.44 46.85,109.6 C46.85,112.2 45.45,113.94 42.65,114.82 C41.25,114.98 39.97,115.44 38.81,116.2 C37.49,117.08 36.83,118.08 36.83,119.2 C36.83,120.32 37.59,121.32 39.11,122.2 C40.39,122.96 41.75,123.4 43.19,123.52 C45.11,123.96 46.45,124.66 47.21,125.62 C47.89,126.46 48.23,127.62 48.23,129.1 C48.23,130.74 47.61,132 46.37,132.88 C45.17,133.76 43.51,134.2 41.39,134.2 C39.47,134.2 37.63,133.7 35.87,132.7 C34.67,131.78 33.5,131.4 32.36,131.56 C31.22,131.72 30.21,132.4 29.33,133.6 C27.89,135.6 27.95,137.34 29.51,138.82 C32.83,141.5 37.15,142.84 42.47,142.84 Z M95.33,147.64 C97.41,147.64 99.01,147.56 100.13,147.4 C101.49,147.2 102.61,146.9 103.49,146.5 C104.49,145.98 105.41,145.2 106.25,144.16 C107.25,142.92 108.03,140.36 108.59,136.48 C109.15,132.68 109.63,126.66 110.03,118.42 C110.11,118.46 110.22,118.54 110.36,118.66 C110.5,118.78 110.61,118.88 110.69,118.96 C112.17,120.08 113.45,120.62 114.53,120.58 C115.69,120.54 116.79,119.82 117.83,118.42 C119.03,116.82 119.41,115.34 118.97,113.98 C118.57,112.78 117.43,111.58 115.55,110.38 C110.75,106.38 107.23,101.16 104.99,94.72 C104.67,93.8 104.13,93.05 103.37,92.47 C102.61,91.89 101.73,91.6 100.73,91.6 L100.73,91.6 L86.99,91.6 C84.31,91.6 82.97,92.94 82.97,95.62 C82.97,98.3 84.31,99.64 86.99,99.64 L86.99,99.64 L97.43,99.64 C99.47,104.92 102.15,109.6 105.47,113.68 L105.47,113.68 L79.49,113.68 C78.53,113.68 78.29,113.28 78.77,112.48 C80.25,110.08 81.53,107.56 82.61,104.92 C83.77,101.84 82.77,99.92 79.61,99.16 C76.69,98.44 74.69,99.58 73.61,102.58 C71.97,106.3 69.89,109.62 67.37,112.54 C65.93,113.9 65.19,115.12 65.15,116.2 C65.11,117.36 65.79,118.58 67.19,119.86 C68.35,120.94 69.49,121.42 70.61,121.3 C71.65,121.18 72.75,120.52 73.91,119.32 C74.07,119.16 74.31,118.88 74.63,118.48 L74.63,118.48 L74.63,118.66 C74.63,119.62 74.91,120.38 75.47,120.94 C76.03,121.5 76.79,121.78 77.75,121.78 L77.75,121.78 L82.19,121.78 C80.47,128.94 77.19,134.34 72.35,137.98 C70.43,139.06 69.31,140.16 68.99,141.28 C68.63,142.52 69.17,143.84 70.61,145.24 C71.61,146.2 72.63,146.72 73.67,146.8 C74.67,146.84 75.79,146.48 77.03,145.72 C84.19,140.64 89.01,132.66 91.49,121.78 L91.49,121.78 L101.15,121.78 C100.63,131.78 99.77,137.38 98.57,138.58 C97.97,139.14 97.13,139.42 96.05,139.42 C95.01,139.42 94.11,139.4 93.35,139.36 C91.71,139.28 90.63,139.57 90.11,140.23 C89.59,140.89 89.63,141.86 90.23,143.14 C90.39,143.5 90.49,143.82 90.53,144.1 C90.73,145.18 91.25,146.04 92.09,146.68 C92.93,147.32 94.01,147.64 95.33,147.64 Z M160.97,106.48 C161.89,106.56 162.91,106.26 164.03,105.58 C165.83,104.46 167.57,103.24 169.25,101.92 C171.01,100.48 172.29,99.36 173.09,98.56 C175.49,96 175.09,94.04 171.89,92.68 C169.57,91.72 167.63,92.12 166.07,93.88 C164.35,95.52 162.17,97.14 159.53,98.74 C157.85,99.66 156.89,100.6 156.65,101.56 C156.45,102.56 156.99,103.7 158.27,104.98 C159.15,105.9 160.05,106.4 160.97,106.48 Z M126.71,113.92 C127.83,114.68 128.75,114.98 129.47,114.82 C130.23,114.66 130.95,114.02 131.63,112.9 C132.99,110.14 134.25,106.78 135.41,102.82 C139.25,102.26 142.71,101.64 145.79,100.96 C148.03,100.48 149.67,100.08 150.71,99.76 C154.03,98.8 154.57,97 152.33,94.36 C151.57,93.44 150.83,92.86 150.11,92.62 C149.31,92.38 148.39,92.44 147.35,92.8 C144.23,93.88 140.31,94.9 135.59,95.86 L135.59,95.86 L133.01,95.38 C131.85,95.18 130.85,95.36 130.01,95.92 C129.17,96.48 128.65,97.3 128.45,98.38 C127.69,102.22 126.67,105.58 125.39,108.46 C124.75,109.62 124.53,110.63 124.73,111.49 C124.93,112.35 125.59,113.16 126.71,113.92 Z M149.27,110.56 C150.15,113 151.79,113.66 154.19,112.54 C155.27,112.06 155.97,111.49 156.29,110.83 C156.61,110.17 156.57,109.32 156.17,108.28 C155.09,106 154.15,104.14 153.35,102.7 C152.35,100.98 150.89,100.52 148.97,101.32 C146.61,102.32 146.01,103.88 147.17,106 C147.45,106.56 147.87,107.44 148.43,108.64 C148.456667,108.706667 148.487778,108.782222 148.523333,108.866667 L148.643333,109.146667 C148.687778,109.248889 148.736667,109.36 148.79,109.48 C148.99,109.96 149.15,110.32 149.27,110.56 Z M137.51,109.06 C138.03,111.66 139.55,112.56 142.07,111.76 C144.11,111.12 144.87,109.82 144.35,107.86 C144.03,106.74 143.77,105.9 143.57,105.34 C142.89,103.38 141.51,102.7 139.43,103.3 C137.15,104.02 136.39,105.46 137.15,107.62 C137.19,107.86 137.27,108.18 137.39,108.58 C137.43,108.7 137.45,108.78 137.45,108.82 C137.49,108.94 137.51,109.02 137.51,109.06 Z M141.35,147.64 C144.07,147.64 145.43,146.28 145.43,143.56 L145.43,143.56 L145.43,135.76 C145.71,136 146.11,136.38 146.63,136.9 C147.15,137.42 147.55,137.8 147.83,138.04 C148.91,139.16 149.9,139.7 150.8,139.66 C151.7,139.62 152.61,138.96 153.53,137.68 C154.37,136.56 154.79,135.66 154.79,134.98 C154.75,134.22 154.21,133.46 153.17,132.7 C149.85,130.42 147.27,128.74 145.43,127.66 L145.43,127.66 L145.43,126.94 L151.79,126.94 C152.83,126.94 153.65,126.63 154.25,126.01 C154.85,125.39 155.15,124.58 155.15,123.58 L155.15,123.58 L155.15,119.86 C156.19,120.82 157.19,121.88 158.15,123.04 C158.75,123.84 159.53,124.34 160.49,124.54 C161.45,124.74 162.41,124.58 163.37,124.06 C167.89,121.54 171.79,118.56 175.07,115.12 C177.35,112.48 176.91,110.54 173.75,109.3 C171.43,108.34 169.51,108.78 167.99,110.62 C164.39,114.26 159.87,117.14 154.43,119.26 L154.43,119.26 L154.49,119.32 L145.43,119.32 L145.43,117.16 C145.43,114.44 144.07,113.08 141.35,113.08 C138.63,113.08 137.27,114.44 137.27,117.16 L137.27,117.16 L137.27,119.32 L129.95,119.32 C127.43,119.32 126.17,120.58 126.17,123.1 C126.17,125.66 127.43,126.94 129.95,126.94 L129.95,126.94 L134.21,126.94 C132.29,130.02 129.95,132.84 127.19,135.4 C125.83,136.48 125.06,137.5 124.88,138.46 C124.7,139.42 125.09,140.58 126.05,141.94 C127.01,143.3 127.97,143.98 128.93,143.98 C129.81,144.02 130.87,143.44 132.11,142.24 C134.07,140.12 135.79,138.06 137.27,136.06 L137.27,136.06 L137.27,143.56 C137.27,146.28 138.63,147.64 141.35,147.64 Z M158.75,146.62 C159.75,146.74 160.93,146.44 162.29,145.72 C165.77,143.68 168.73,141.58 171.17,139.42 C173.81,137.1 176.13,134.52 178.13,131.68 C179.97,128.8 179.31,126.78 176.15,125.62 C173.51,124.66 171.45,125.36 169.97,127.72 C167.01,131.72 163.03,135.1 158.03,137.86 C156.11,138.78 154.95,139.74 154.55,140.74 C154.11,141.9 154.51,143.24 155.75,144.76 C156.63,145.88 157.63,146.5 158.75,146.62 Z" id="path-1"></path>
    </defs>
    <g id="華潤3分彩-copy" stroke="none" stroke-width="1" fill="none" fill-rule="evenodd">
        <circle id="Oval" fill="#A1153E" cx="7.5" cy="61.5" r="7.5"></circle>
        <polygon id="Path-3" fill="#A04D26" transform="translate(88.931150, 147.830355) rotate(-7.000000) translate(-88.931150, -147.830355) " points="61.9460451 156.604022 117.825806 156.039828 132.3932 139.056689 45.4690991 140.490846"></polygon>
        <circle id="Oval" fill="#A1153E" cx="183.5" cy="20.5" r="4.5"></circle>
        <polygon id="Path-4" fill="#8F5327" transform="translate(91.100456, 120.093416) rotate(-7.000000) translate(-91.100456, -120.093416) " points="39.578187 132.019728 29.3378598 108.167105 152.863053 112.803887 137.338668 131.59943"></polygon>
        <polygon id="Path-5" fill="#DB7E1C" transform="translate(98.628953, 90.865805) rotate(-7.000000) translate(-98.628953, -90.865805) " points="23.5417877 77.2476689 174.317854 78.12922 153.75124 104.483941 22.9400527 99.8123092"></polygon>
        <path d="M106.5,0 C154.272631,0 193,38.7273691 193,86.5 C193,134.272631 154.272631,173 106.5,173 C58.7273691,173 20,134.272631 20,86.5 C20,38.7273691 58.7273691,0 106.5,0 Z M106.5,6 C62.0410776,6 26,42.0410776 26,86.5 C26,130.958922 62.0410776,167 106.5,167 C150.958922,167 187,130.958922 187,86.5 C187,42.0410776 150.958922,6 106.5,6 Z" id="Oval" fill="#A04D26" fill-rule="nonzero"></path>
        <path d="M155,68.0007441 C155,42.5952346 132.112874,22 103.880172,22 C91.4190507,22 76.7185882,25.4596253 68.335946,34.5206707 C57.7263465,45.9889003 55,64.807769 55,79" id="Path" fill="#EBDCB2"></path>
        <path d="M122.910779,28.7859696 C126.341872,26.4223276 130.191946,26.8073349 133.000132,29.9372534 C133.386075,30.3816726 133.749727,30.8105607 134.091715,31.2250513 C135.415092,29.9278835 137.278666,29.1740273 139.538129,29.1051729 L139.88,29.1 L156.536876,29.1011733 L156.900271,29.1112192 C158.905048,29.2098148 160.700946,29.964092 162.088427,31.3515729 C163.512723,32.7758688 164.262901,34.6199325 164.334358,36.6739648 L164.34,37 L164.339908,78.1271794 L164.336807,78.5690734 C164.302501,81.0562534 163.994601,83.0938267 163.350272,84.7039764 C162.554512,86.7596919 161.124137,88.3824212 159.184966,89.467618 L158.961,89.587 L158.740246,89.7101123 C157.616115,90.3081574 156.288381,90.7481357 154.742107,91.0550325 C154.959013,91.2801644 155.171892,91.5200281 155.380037,91.7720902 C156.389106,92.9613506 157.056706,94.1724708 157.400507,95.3489865 L157.506,95.288 L157.965488,95.0068214 C159.805147,93.8619211 161.363708,92.7229682 162.640933,91.5975357 L162.982292,91.2909405 L163.224,91.064 L163.282319,91.0011823 C165.981654,88.1243804 169.654423,87.4260132 173.454563,88.9986763 C179.135527,91.4130863 180.265657,96.5535014 176.205419,101.080662 L176.008149,101.295765 L175.918427,101.388427 L175.554319,101.744509 L175.146568,102.12812 L174.694063,102.540286 L174.195691,102.98203 L173.650339,103.454376 L173.056896,103.95835 L172.414249,104.494974 L172.024676,104.815906 C173.067219,104.879193 174.137288,105.13186 175.211151,105.576421 C180.886026,107.803271 182.116971,112.874457 178.283661,117.513893 L178.097292,117.734479 L177.96495,117.880301 C176.856686,119.042627 175.684873,120.155385 174.44864,121.219257 C175.442203,121.268177 176.474658,121.481818 177.528415,121.865007 C183.013603,123.878557 184.653407,128.655148 181.654595,133.586855 L181.500785,133.833557 L181.400423,133.983114 C179.218285,137.081749 176.686672,139.897078 173.821355,142.415049 C171.352115,144.600933 168.426389,146.705555 165.044541,148.736674 L164.312878,149.170792 L164.161551,149.255152 C162.140841,150.324939 160.188447,150.821311 158.323868,150.597237 C156.053468,150.35398 154.112973,149.150872 152.65054,147.288507 C151.697635,146.120429 151.011177,144.906158 150.654344,143.662227 C150.415642,143.661125 150.18039,143.646736 149.948304,143.619586 L149.602513,143.569357 L149.429,143.535 L149.424302,143.928465 C149.276068,148.671957 146.122521,151.64 141.35,151.64 C137.528236,151.64 134.77549,149.745848 133.731523,146.597303 L133.650635,146.33928 L133.618,146.223 L133.420627,146.374119 C132.116203,147.339054 130.781403,147.906531 129.337084,147.975388 L129.025882,147.982474 L128.93,147.98 C126.418698,147.98 124.416054,146.561461 122.782129,144.246733 C121.258001,142.087553 120.533935,139.933919 120.948511,137.722846 C121.320642,135.73815 122.53603,134.057119 124.41558,132.500188 L124.551,132.389 L125.000091,131.966497 C125.349627,131.630322 125.691221,131.289549 126.024895,130.944161 L126.519469,130.422617 L126.6,130.333 L126.394035,130.247041 C123.887931,129.146062 122.356287,126.799226 122.185901,123.687787 L122.173415,123.374112 L122.17,123.1 C122.17,120.621749 123.007816,118.604381 124.485921,117.245423 L124.463994,117.229903 C123.959409,116.887506 123.49742,116.523135 123.082611,116.13511 C122.870611,117.734971 122.162158,119.310428 121.040975,120.805296 C119.338657,123.096878 117.210351,124.489952 114.678047,124.577259 C114.472131,124.584886 114.266848,124.583779 114.06209,124.57413 L113.755331,124.553273 L113.7,124.547 L113.588232,126.280238 L113.507043,127.450442 L113.424109,128.576209 L113.29641,130.181657 L113.209061,131.196568 L113.074685,132.635989 L112.936251,133.97604 L112.841688,134.814292 L112.745292,135.608515 L112.647053,136.358765 L112.548978,137.051399 C111.892652,141.598799 110.944463,144.710805 109.361765,146.673348 C108.279478,148.013323 107.052949,149.085697 105.681337,149.861195 L105.335411,150.048867 L105.145212,150.141466 C103.88939,150.712294 102.416888,151.106714 100.695685,151.359798 C100.069659,151.44923 99.3500446,151.516214 98.531557,151.562225 L97.8056589,151.596561 L97.0305933,151.620832 C96.7639612,151.627267 96.4890113,151.632059 96.2056202,151.635242 L95.33,151.64 C93.1802464,151.64 91.2486242,151.067667 89.6658271,149.861727 C88.113139,148.678726 87.0880955,147.056352 86.6622805,145.148882 L86.591,144.799 L86.4905022,144.578551 C86.319825,144.189863 86.175505,143.801684 86.0600418,143.415559 L85.9542902,143.030177 L85.926,142.911 L85.6621757,143.224074 C84.0602457,145.084041 82.2941252,146.754223 80.3634078,148.231516 L79.7792543,148.668914 L79.344597,148.982306 C79.2714945,149.034172 79.1966694,149.083566 79.1202482,149.130405 C77.3659782,150.205603 75.6112706,150.799694 73.8420335,150.803112 L73.5101278,150.796804 L73.363214,150.788218 C71.3189405,150.630966 69.4653298,149.685988 67.8216864,148.10798 C65.4247681,145.777642 64.3101135,143.052931 65.1439042,140.181115 C65.7614408,138.019737 67.3544631,136.330772 69.7468398,134.869808 L70.127,134.643 L70.2901581,134.518065 C72.8963088,132.464731 74.9598392,129.74928 76.4784533,126.324312 L76.737,125.719 L76.6853422,125.713334 C75.6628487,125.582046 74.7079461,125.256222 73.8604314,124.733458 L73.556,124.533 L73.4765583,124.573261 C72.9091204,124.840813 72.3243641,125.040271 71.7191468,125.166753 L71.353536,125.233846 L71.0361325,125.277237 C68.6347337,125.534529 66.4075172,124.596754 64.4909232,122.812115 C62.3083581,120.816627 61.0653299,118.586488 61.1527407,116.051953 C61.2358077,113.809142 62.3916341,111.815846 64.3619151,109.883643 L64.449,109.798 L64.7880791,109.398554 C66.5525575,107.266783 68.0682344,104.899789 69.3364243,102.290989 L69.6483166,101.633748 L69.912,101.048 L69.9504179,100.94612 C71.5099366,96.9008956 74.6577515,94.7269694 78.5944539,94.967058 L78.8769778,94.9883199 L78.987,94.999 L78.9998448,94.8069183 C79.316724,90.5651155 82.1357011,87.8279076 86.4384918,87.613579 L86.7151433,87.6033345 L86.99,87.6 L100.83658,87.6014202 L101.215053,87.6129886 C102.901337,87.7038849 104.46295,88.2723383 105.796693,89.290195 C107.183472,90.3485265 108.191532,91.7486095 108.767987,93.4059175 C110.707776,98.9828093 113.676088,103.47469 117.691603,106.951105 L117.944,107.166 L118.033969,107.224229 C119.110875,107.938801 120.03132,108.689153 120.783984,109.495043 C120.9418,108.629092 121.251581,107.762274 121.691331,106.897952 L121.784,106.72 L121.962243,106.310589 C122.860542,104.185364 123.618664,101.751286 124.225886,99.0338536 L124.374541,98.3486072 L124.516872,97.651643 C124.909182,95.5331712 126.029775,93.7660817 127.791199,92.5917988 C129.431075,91.498548 131.346398,91.1117861 133.398391,91.394218 L133.741632,91.4474798 L135.551,91.784 L136.211796,91.6444954 C138.511406,91.1531925 140.589651,90.6485542 142.44421,90.1322131 L143.530084,89.8210173 C143.706584,89.7689216 143.880841,89.7167121 144.052855,89.6643906 C142.661226,88.6474513 141.640077,87.2180238 141.09387,85.386503 C140.796137,84.409939 140.643989,83.492467 140.625101,82.6401255 L133.034435,82.6394626 L132.730612,82.6339087 C132.397539,82.6228062 132.073548,82.5959549 131.759116,82.5539144 L131.759496,83.4434841 L131.75417,83.7452152 C131.606186,88.3327252 128.532636,91.22 123.92,91.22 C120.909244,91.22 118.575318,89.996141 117.263562,87.893762 L117.126944,87.6651611 L117.085,87.59 L117.042397,87.6327737 C114.78534,89.8136381 111.586191,90.1947131 108.22184,88.5317006 L107.933081,88.384145 L107.678955,88.2463021 C105.766582,87.1705925 104.387873,85.9600189 103.602291,84.3888544 C102.63055,82.4453716 102.750506,80.3187134 103.621997,78.2429902 L103.739904,77.9725517 C103.78679,77.8624728 103.83346,77.7526673 103.879915,77.6431354 C102.521865,79.4916058 100.327493,80.5775906 97.543797,80.6554983 L97.22,80.66 L82.619,80.66 L82.61958,83.1979649 L82.6145486,83.5144452 C82.4658393,88.5705592 79.1523138,91.7 74.06,91.7 C68.8784357,91.7 65.5621844,88.5198037 65.4433064,83.425006 L65.44,83.14 L65.44,80.66 L51.0184688,80.6595267 L50.7043723,80.6541916 C45.885656,80.5036067 42.88,77.3100972 42.88,72.46 C42.88,67.5436228 45.9537752,64.3788036 50.8035939,64.2632741 L51.08,64.26 L54.6367972,64.2602004 C52.8395875,62.8898289 51.7833162,60.7191772 51.7047232,57.9723683 L51.7,57.64 L51.7,55.157 L51.6401278,55.1568038 C49.6421027,55.0768828 47.8739472,54.1795742 46.4038962,52.7037209 L46.1742702,52.4659184 L45.9602397,52.2306912 C44.0150515,50.0909841 43.0294893,47.7720142 43.4444243,45.2824041 C43.8272115,42.9856811 45.2964122,41.1558296 47.5549311,39.6402988 L47.713,39.536 L48.2722286,39.1198972 C50.9890185,37.0622368 53.3559256,34.7977708 55.3793859,32.3244909 L55.8402445,31.7500263 L56.229,31.245 L56.2834873,31.1641815 C58.6343088,27.7369953 62.359064,26.5967489 66.3684423,28.0000557 C69.027031,28.9203364 70.7869391,30.5038726 71.5421501,32.4405593 C72.7265425,29.466662 75.486621,27.72 79.22,27.72 C82.8820259,27.72 85.5818529,29.3929096 86.8080701,32.2273181 L86.9124284,32.4804142 L86.989,32.686 L87.5202178,32.390338 L87.9556928,32.1422465 L88.796,31.653 L88.9479986,31.5584869 C92.6352961,29.3221614 96.5577747,29.8734182 99.5859798,32.9711851 L99.7910493,33.1863397 L99.9932678,33.4093694 C103.522223,37.4516276 103.132071,42.0105729 99.1405009,44.975134 L98.9150438,45.1381781 L98.715,45.275 C98.9509126,45.3406426 99.1849382,45.4143579 99.4195941,45.4971768 L99.7723653,45.6283619 L100.03856,45.736131 C101.789588,46.4769504 103.075328,47.789421 103.850119,49.490326 C104.093689,48.8993015 104.411362,48.3186451 104.795779,47.7524756 L105.03438,47.4145453 L105.06,47.38 C106.533718,45.4150426 108.449705,44.2634965 110.559294,44.0157122 L110.327,43.849 L110.284347,43.8266099 L110.061199,43.6882012 L109.646002,43.4155157 L109.262278,43.1746203 L109.202001,43.1391654 C104.531334,40.5523346 103.553845,35.9349474 106.637226,31.6413237 L106.83486,31.37421 C109.234459,28.2688463 112.704323,27.2244545 116.227442,28.6745259 L116.49176,28.7879652 L116.602244,28.839363 C117.744841,29.3922327 118.830992,29.9785668 119.860411,30.5988332 L120.471253,30.9750686 L120.608375,31.0653107 C121.056774,30.4133748 121.627795,29.7983162 122.319105,29.2344854 L122.622738,28.9960218 L122.910779,28.7859696 Z M42.23,92.52 C47.7872811,92.52 52.3551136,93.8286223 55.7732138,96.532871 C59.5860266,99.4741837 61.53,103.695383 61.53,108.82 C61.53,112.435948 60.4077264,115.522248 58.2792804,117.971796 L58.0292318,118.251604 L57.823,118.47 L58.0988,118.708775 C58.4114978,118.987197 58.711072,119.27779 58.9972135,119.580499 L59.278866,119.887245 L59.5514947,120.202057 C61.8258711,122.864741 62.97,126.129694 62.97,129.82 C62.97,135.09274 60.7256152,139.499398 56.3828271,142.729295 C52.5473012,145.483006 47.8705179,146.84 42.47,146.84 C36.2836965,146.84 31.0758326,145.224598 26.9975245,141.93247 C26.9145608,141.865499 26.834308,141.795238 26.7569583,141.721855 C23.6666043,138.789981 23.5293865,134.810665 26.10438,131.234545 C27.583379,129.217729 29.5096288,127.920847 31.8040455,127.598824 C33.7925139,127.319741 35.7197385,127.823026 37.4985816,128.960132 L37.7782057,129.144921 L38.032,129.323 L38.1374189,129.38056 C39.0006746,129.828545 39.8640139,130.087604 40.7524275,130.17054 L41.0868067,130.19341 L41.39,130.2 C42.7224914,130.2 43.5650615,129.976668 44.055012,129.617971 C44.178202,129.530546 44.21562,129.490709 44.2261668,129.302373 L44.23,129.1 C44.23,128.72349 44.1933903,128.439226 44.1364858,128.245082 L44.1194564,128.190772 L44.0903127,128.125751 C44.0852713,128.11772 44.0798943,128.110414 44.0738167,128.102812 C44.0518465,128.07506 44.0120354,128.041243 43.9535056,128.00286 L43.811228,127.920447 C43.6155129,127.818231 43.3147006,127.696589 42.8976431,127.574552 L42.7117547,127.522282 L42.518,127.472 L42.4204249,127.4626 C40.8227477,127.277192 39.2933193,126.810787 37.8708846,126.083899 L37.4856297,125.879214 L37.1058549,125.661705 C34.4705191,124.135984 32.83,121.977407 32.83,119.2 C32.83,116.583567 34.2493559,114.433028 36.617895,112.854155 C37.9414404,111.987005 39.3829279,111.385077 40.9187068,111.055067 L41.3398756,110.97181 L41.747,110.905 L41.7966217,110.888601 C42.5798644,110.6079 42.7998878,110.362218 42.8418082,109.835613 L42.8482054,109.718355 L42.85589,109.171232 C42.8541785,108.939236 42.8164285,108.871548 42.5923544,108.855677 L42.4507504,108.851483 L41.75,108.86 C40.9921188,108.86 40.3064608,109.01248 39.6502084,109.326314 L39.563,109.37 L39.5502237,109.380512 C37.9288511,110.484228 36.1840564,111.079472 34.3761095,111.066151 L34.0363941,111.056497 L33.7142722,111.034151 C31.4492383,110.831916 29.4941821,109.678432 27.9465248,107.77878 C24.7494338,103.782417 25.4063517,99.2309139 29.5639608,96.2202315 C29.6591376,96.1513104 29.7573053,96.0866168 29.8581782,96.0263391 C33.7489623,93.7013583 37.8957712,92.52 42.23,92.52 Z M141.429,117.081 L141.271,117.081 L141.27,119.32 C141.27,121.462195 139.586032,123.211079 137.46964,123.315105 L137.27,123.32 L135.928,123.32 L136.0794,123.396047 C137.912426,124.364108 138.799592,126.700352 137.799194,128.708052 L137.699848,128.89526 L137.604468,129.056032 C137.041976,129.958361 136.446916,130.840086 135.819433,131.701106 L135.342745,132.342987 L135.057,132.712 L135.153928,132.648646 C137.534687,131.140892 140.978053,132.617419 141.252503,135.666468 L141.265676,135.86321 L141.27,136.06 L141.271,143.639 L141.428,143.639 L141.43,143.56 L141.43,135.76 C141.43,133.807193 142.738889,132.368271 144.344935,131.908567 L144.524556,131.861543 L144.615,131.842 L143.901323,131.404822 L143.394914,131.103606 C142.241215,130.421799 141.509948,129.21075 141.436168,127.882406 L141.43,127.66 L141.43,126.94 C141.43,125.269088 142.454526,123.837466 143.909656,123.239059 L144.093747,123.168641 L144.211,123.129 L144.093747,123.091359 C142.666263,122.585562 141.611301,121.29227 141.45114,119.733759 L141.434895,119.51964 L141.43,119.32 L141.429,117.081 Z M78.539,117.606 L78.5646146,117.729984 L78.572,117.78 L82.19,117.78 C84.6460218,117.78 86.4887264,119.959944 86.1520952,122.333068 L86.1199941,122.525868 L86.0793519,122.714314 C84.1525524,130.735177 80.3802393,136.945692 74.7542251,141.176827 C74.6130521,141.282998 74.4650013,141.379702 74.311045,141.466302 C73.9368167,141.676806 73.6221748,141.876722 73.3677092,142.060681 L73.208,142.18 L73.2619119,142.236306 L73.3801273,142.354451 L73.4868831,142.454555 L73.6674267,142.611281 L73.8055128,142.716921 C73.825089,142.73073 73.8429711,142.742755 73.8591966,142.753168 L73.924,142.791 L73.966518,142.781166 C74.1069976,142.74333 74.3301453,142.653801 74.6328073,142.488057 L74.829,142.374 L75.0990343,142.18041 C80.8159405,137.971304 84.8423259,131.517855 87.1536135,122.677326 L87.3051582,122.084419 L87.4516195,121.48443 L87.594496,120.871678 C88.0016088,119.1257 89.5170135,117.872178 91.2917796,117.784868 L91.49,117.78 L101.15,117.78 C103.440739,117.78 105.263561,119.700072 105.144603,121.987719 L105.057104,123.593655 L104.965272,125.120909 L104.868357,126.571151 L104.765607,127.946048 L104.656272,129.247269 L104.579352,130.074643 L104.457372,131.256779 L104.371327,132.006308 L104.281242,132.725564 L104.186895,133.415041 C104.154711,133.639959 104.12178,133.859995 104.088064,134.075234 L103.984525,134.706637 L103.876057,135.309745 L103.762437,135.885052 L103.643442,136.433053 L103.518849,136.954241 C103.476361,137.123557 103.432903,137.288486 103.388437,137.449111 L103.251983,137.918158 C103.15895,138.222358 103.06174,138.509672 102.960057,138.780759 L102.80414,139.175302 C102.432334,140.067889 102.003913,140.765735 101.506155,141.297101 L101.398427,141.408427 L101.299273,141.504221 C99.8956312,142.814287 98.0784915,143.42 96.05,143.42 L95.1361379,143.414725 L94.7048727,143.408127 L94.468,143.402 L94.4725757,143.425442 C94.4772051,143.452691 94.4793941,143.464644 94.4845309,143.472912 L94.4951205,143.484001 L94.5141729,143.498273 C94.6113758,143.572333 94.8397536,143.64 95.33,143.64 L96.0671412,143.63623 L96.7522978,143.62508 L97.3844985,143.60679 C97.4853983,143.60316 97.5840511,143.599242 97.6804367,143.595042 L98.2313819,143.566492 L98.7269425,143.531402 L99.166147,143.490013 C99.3030479,143.475193 99.4303942,143.459363 99.548024,143.442563 C100.461603,143.308214 101.174634,143.128259 101.675651,142.926545 L101.733,142.901 L101.828025,142.848018 C102.134542,142.662753 102.444959,142.409878 102.758555,142.080877 L102.947087,141.874273 L103.136348,141.64899 C103.241145,141.519041 103.357981,141.29608 103.481559,140.984354 L103.58901,140.69552 L103.699022,140.363804 L103.810852,139.9898 C103.829601,139.923975 103.848395,139.856412 103.867218,139.787125 L103.980388,139.350803 C103.999267,139.274666 104.018145,139.196829 104.037006,139.117304 L104.149846,138.620001 L104.26154,138.082788 L104.371347,137.506258 L104.478524,136.891006 L104.582332,136.237627 L104.676103,135.596631 L104.80446,134.636459 L104.930188,133.587047 L105.053251,132.448583 L105.173611,131.221255 L105.291231,129.905251 L105.406073,128.500758 L105.518101,127.007964 L105.663027,124.88054 L105.768341,123.182441 L105.90418,120.781958 L106.034705,118.226054 C106.040796,118.100579 106.052406,117.977176 106.069256,117.856008 L106.107,117.63 L106.014904,117.644945 L105.836493,117.664289 L105.654827,117.67604 L105.47,117.68 L79.49,117.68 C79.2988658,117.68 79.1117414,117.671514 78.928909,117.654965 L78.6579144,117.624149 L78.539,117.606 Z M174.837,129.4 L174.783028,129.379174 L174.519886,129.286598 C173.967104,129.102746 173.816038,129.152697 173.503993,129.619194 L173.358763,129.845156 C173.304246,129.932087 173.246405,130.016889 173.185368,130.099372 C169.870573,134.578824 165.449574,138.333341 159.96305,141.361902 L159.861523,141.416054 L159.758481,141.467264 C159.453641,141.613333 159.185763,141.75462 158.955558,141.888577 L158.789979,141.98763 L158.702,142.042 L158.784184,142.149411 L159.036305,142.463054 L159.130434,142.569789 L159.187721,142.625321 C159.194757,142.631221 159.200678,142.63567 159.205693,142.639012 L159.226581,142.648493 L159.399405,142.608326 C159.617858,142.552787 159.892641,142.447805 160.217543,142.287626 L160.363,142.212 L160.913596,141.885723 C163.471974,140.349848 165.700328,138.790765 167.604464,137.20844 L168.073747,136.812374 L168.529542,136.41534 C170.748421,134.465416 172.7156,132.317595 174.434911,129.968386 L174.81,129.444 L174.837,129.4 Z M132.18,136.08 L131.666644,136.617961 C131.099206,137.20131 130.513695,137.772899 129.910174,138.332687 L129.795766,138.434795 L129.677529,138.532443 C129.492314,138.679526 129.331988,138.817294 129.196349,138.943789 L129.068931,139.066454 L128.999,139.137 L129.135842,139.362825 L129.21,139.477 L129.248,139.441 L129.718792,138.928611 C130.257675,138.334696 130.775497,137.747032 131.271652,137.166491 L131.760562,136.588357 L132.18,136.08 Z M50.422,123.236 L50.5202504,123.362628 C51.692511,124.939976 52.23,126.890074 52.23,129.1 C52.23,132.00817 51.0066009,134.494432 48.7354547,136.10562 C46.7749385,137.543332 44.2975086,138.2 41.39,138.2 C38.7673403,138.2 36.2481654,137.515442 33.8939624,136.177826 C33.7877406,136.117473 33.6843675,136.052301 33.5841633,135.982522 L33.4362738,135.874425 C33.2228639,135.710811 33.0516182,135.60912 32.9264392,135.555725 L32.897,135.544 L32.8124339,135.636852 L32.7128881,135.757456 L32.5304295,136.001872 L32.488,136.064 L32.5847877,136.135267 C34.8877695,137.784611 37.8381916,138.693637 41.5312175,138.823727 L41.9967204,138.835929 L42.47,138.84 C46.2694821,138.84 49.3126988,137.956994 51.6625427,136.270631 C53.9343848,134.580602 54.97,132.54726 54.97,129.82 C54.97,127.990306 54.4741289,126.575259 53.4485517,125.3744 C52.7947737,124.596934 51.936648,123.946831 50.8600277,123.432185 L50.5304726,123.281863 L50.422,123.236 Z M96.897,125.78 L94.599,125.78 L94.5887342,125.820098 C93.6845836,129.027374 92.564342,131.99357 91.2273902,134.713956 L90.8886371,135.388929 L90.82,135.519 L90.9345908,135.497308 C91.5335671,135.393095 92.1703955,135.345815 92.8421635,135.346934 L93.2493937,135.353344 L94.1824485,135.392067 C94.2921432,135.395768 94.4048243,135.399106 94.520477,135.402078 L95.2499343,135.415497 L95.656,135.418 L95.7384089,135.100476 L95.845464,134.629806 L95.9520041,134.100983 L96.0574819,133.514996 L96.1613501,132.872832 L96.2150868,132.513426 L96.3199801,131.75442 C96.3371742,131.623459 96.3542237,131.490269 96.3711278,131.354854 L96.4708032,130.51568 C96.4871231,130.371375 96.5032963,130.224849 96.5193219,130.076107 L96.6136989,129.157073 L96.7044991,128.184967 L96.7916867,127.159928 L96.897,125.78 Z M157.885,127.858 L157.730283,128.077701 L157.540192,128.322827 L157.33823,128.560897 L157.124409,128.791686 C156.845092,129.080313 156.547027,129.339421 156.232304,129.569274 L155.993171,129.736182 L155.929,129.776 L156.013995,129.843143 C157.12864,130.749265 157.961433,131.784165 158.412383,132.979954 C160.786997,131.456951 162.848807,129.765553 164.603874,127.906884 C163.025905,128.60386 161.348441,128.804725 159.674183,128.455922 C159.247992,128.367132 158.836234,128.246615 158.440585,128.095579 L158.146894,127.976599 L157.885,127.858 Z M171.68618,112.804736 C171.463037,112.759415 171.356249,112.835511 171.1627,113.061442 L171.073847,113.167526 C170.997895,113.259467 170.91787,113.347966 170.83401,113.432758 C168.335357,115.959174 165.452766,118.147881 162.188174,120.002451 L161.530163,120.368911 L161.253,120.517 L161.33,120.615 L161.42218,120.566292 C165.366662,118.367156 168.778803,115.805199 171.670206,112.879731 L171.732,112.815 L171.68618,112.804736 Z M46.52,117.439 L46.3176651,117.560845 C45.5749136,117.992709 44.7498646,118.352942 43.8493064,118.635975 C43.6874552,118.686842 43.522614,118.727335 43.3557881,118.757241 L43.1041864,118.794131 C42.8108791,118.827652 42.5313126,118.883192 42.2643233,118.960549 L42.0014833,119.04517 L41.836,119.109 L41.9209011,119.146942 C42.2659128,119.289419 42.6163057,119.393347 42.9757554,119.460485 L43.2470982,119.503967 L43.5221819,119.533817 C43.7111209,119.549562 43.8987014,119.57872 44.0835046,119.621071 C44.7071403,119.763987 45.2992053,119.932209 45.8580649,120.127566 L46.270958,120.279201 L46.604,120.412 L46.5825125,120.359408 C46.4700716,120.058519 46.393103,119.741814 46.3558291,119.415061 L46.3353824,119.168203 L46.33,118.96 L46.33,118.66 C46.33,118.393323 46.3564716,118.131027 46.4073649,117.876139 L46.4663228,117.623832 L46.52,117.439 Z M78.991,103.136 L78.814548,103.084993 L78.336684,102.968599 L78.1717894,102.938604 C77.8487151,102.894677 77.7341525,102.997226 77.559571,103.432795 L77.3735496,103.934878 C77.3420809,104.022291 77.3075763,104.108581 77.2700985,104.193592 C75.472262,108.271611 73.1807816,111.929167 70.3982246,115.153399 C70.3093838,115.256342 70.2153515,115.354687 70.1164941,115.448053 C69.8782794,115.673033 69.6795209,115.87979 69.5195132,116.064597 L69.4067623,116.199029 L69.317,116.313 L69.4008696,116.413265 C69.4659655,116.487958 69.5409722,116.568628 69.6265522,116.655184 L69.7629348,116.789423 L69.9156741,116.932424 C69.9885455,117.00027 70.0560626,117.059221 70.1178328,117.109873 L70.259,117.218 L70.3416503,117.161158 C70.4741645,117.063788 70.6261357,116.935664 70.8012006,116.769725 L70.9368862,116.63807 L71.0954177,116.476634 L71.3833704,116.13398 L71.5156153,115.969899 C72.3194701,114.972523 73.3973188,114.506638 74.470533,114.473937 L74.6850315,114.473144 L74.736,114.475 L74.7191959,114.420412 C74.4014547,113.331788 74.4982601,112.075355 75.1230965,110.821785 L75.2551379,110.571159 L75.3653165,110.380445 C76.5783284,108.413399 77.6459219,106.35836 78.5685999,104.213855 L78.885,103.458 L78.9483323,103.27873 L78.991,103.136 Z M100.7,95.6 L86.97,95.6 L86.97,95.64 L97.43,95.64 C99.0828624,95.64 100.565502,96.6566159 101.161193,98.1984029 C102.86277,102.602486 105.032893,106.53577 107.655119,109.988694 L108.122554,110.593045 L108.592486,111.179984 C109.317285,112.085248 109.568744,113.141363 109.448927,114.135864 L109.417607,114.347951 L109.393,114.467 L109.422875,114.462988 C110.065772,114.362515 110.743871,114.418393 111.403349,114.66211 L111.649675,114.762371 L111.818854,114.842291 C112.255856,115.060792 112.595301,115.307661 112.963165,115.622974 L113.164888,115.79918 L113.255,115.882 L113.284205,115.903978 C113.566705,116.108424 113.819165,116.268265 114.037175,116.38534 L114.194153,116.465156 L114.239,116.485 L114.278608,116.445884 C114.328617,116.393023 114.383089,116.331472 114.441747,116.260676 L114.532839,116.147479 L114.63,116.02 C114.857682,115.716424 115.003248,115.467727 115.082684,115.28102 L115.127,115.158 L115.099036,115.118397 L115.052642,115.060896 L114.927252,114.924477 L114.757139,114.761262 L114.540799,114.573357 C114.380828,114.440326 114.189038,114.29224 113.963421,114.131909 L113.599377,113.882582 L113.397858,113.751689 C113.255488,113.660814 113.119016,113.561013 112.989262,113.452885 C107.617978,108.976815 103.685335,103.144884 101.212013,96.0340825 C101.148468,95.8513905 101.076528,95.7514735 100.943307,95.649805 C100.907251,95.6222884 100.887801,95.6116106 100.841421,95.6058941 L100.7,95.6 Z M42.23,100.52 C39.5150589,100.52 36.9191093,101.218836 34.3838186,102.648595 L34.18,102.766 L34.4307336,103.060523 C34.4320659,103.062973 34.4322052,103.064429 34.4313161,103.06521 L34.4564509,103.062632 L34.5301651,103.042874 C34.6524868,103.003173 34.8085847,102.925982 34.9968016,102.80207 L35.1439608,102.700232 C35.2815853,102.600572 35.4254203,102.509784 35.5745915,102.428418 C37.4838253,101.387017 39.5626164,100.86 41.75,100.86 C47.2963693,100.86 50.85,104.162786 50.85,109.6 C50.85,111.382749 50.4280037,112.971477 49.6359385,114.323584 L49.4605648,114.609684 L49.391,114.713 L49.4285895,114.697941 C52.1479678,113.469758 53.3687447,111.815248 53.5149453,109.343242 L53.5262537,109.084585 L53.53,108.82 C53.53,106.104617 52.6739734,104.245816 50.8483877,102.837133 C48.9448864,101.331378 46.1127189,100.52 42.23,100.52 Z M162.167516,110.439607 L161.930359,110.464659 C161.604815,110.492831 161.278361,110.500298 160.951061,110.486234 L160.623482,110.464962 C160.575786,110.460815 160.528223,110.456204 160.480793,110.451133 C160.437512,110.926104 160.339911,111.395897 160.18403,111.856564 C160.698592,111.516888 161.199348,111.16628 161.685821,110.804762 L162.167516,110.439607 Z M87.014,103.639 L87.0064246,103.71388 C86.9227296,104.43294 86.752127,105.178906 86.4912765,105.94508 L86.3533151,106.32982 L86.3121878,106.434531 C86.0796406,107.00298 85.8384266,107.566367 85.5887538,108.124344 L85.2079265,108.957207 L84.862,109.68 L97.838,109.68 L97.7143596,109.470696 C96.9025707,108.078497 96.1448538,106.637978 95.441213,105.149472 L95.0255176,104.250613 L94.754,103.64 L87.014,103.639 Z M169.768296,96.1727179 C169.510388,96.1250076 169.369935,96.2046101 169.158767,96.4284289 L169.063388,96.5332301 C168.98911,96.6170306 168.911346,96.697675 168.830301,96.7749502 C167.024549,98.4967142 164.818532,100.163181 162.211859,101.786852 L161.603207,102.160791 L161.451258,102.248385 L161.286,102.34 L161.350106,102.399214 L161.412,102.451 L161.523442,102.400181 L161.695395,102.311365 L161.916792,102.183774 C163.592705,101.140984 165.213186,100.004784 166.717049,98.8241708 L167.31944,98.3281499 L168.139013,97.6412214 L168.856601,97.0241509 L169.277685,96.6523218 L169.796,96.179 L169.768296,96.1727179 Z M132.339,99.323 L132.217669,99.9231138 L132.065,100.627 L132.105862,100.565273 C132.332067,100.233879 132.606183,99.9395272 132.917753,99.6913014 L133.109107,99.5479737 L133.204,99.484 L132.339,99.323 Z M74.06,65.78 C73.8803982,65.78 73.7270171,65.7886734 73.5997,65.8033102 L73.472,65.821 L73.4567707,65.9420269 L73.4509084,66.0055845 L73.4433403,66.1418785 L73.44,66.34 L73.44,68.26 C73.44,70.4021954 71.7560315,72.1510789 69.6396403,72.2551047 L69.44,72.26 L51.0090518,72.2605515 L50.885,72.265 L50.88215,72.3223572 L50.880532,72.5294773 L50.885,72.656 L51.08,72.66 L69.44,72.66 C71.5821954,72.66 73.3310789,74.3439685 73.4351047,76.4603597 L73.44,76.66 L73.44,83.14 C73.44,83.255734 73.443816,83.3592552 73.4505383,83.4506851 L73.4626875,83.5787767 L73.474,83.658 L73.5919222,83.6758614 L73.7795026,83.6921412 L73.8855537,83.6970973 L74.06,83.7 C74.1748644,83.7 74.2781938,83.6963024 74.3700573,83.689723 L74.4992617,83.6777946 L74.586,83.665 L74.6030931,83.5438251 L74.6090393,83.4786175 L74.6166976,83.3388841 L74.62,83.14 L74.62,76.66 C74.62,74.5178046 76.3039685,72.7689211 78.4203597,72.6648953 L78.62,72.66 L97.2909482,72.6594485 L97.414,72.654 L97.42,72.46 L97.414,72.263 L97.22,72.26 L78.62,72.26 C76.4778046,72.26 74.7289211,70.5760315 74.6248953,68.4596403 L74.62,68.26 L74.62,66.34 C74.62,66.2225626 74.6161506,66.1173254 74.6093482,66.0241937 L74.5970417,65.8935635 L74.585,65.814 L74.5064365,65.8029583 L74.3282312,65.7875008 L74.2270178,65.782775 L74.06,65.78 Z M152.299,83.356 L152.053356,83.3842415 C151.884966,83.4005687 151.714194,83.411019 151.541181,83.4161717 L150.926221,83.4243194 L150.632448,83.4365355 L150.401726,83.4555349 C150.279608,83.4691036 150.156962,83.4770347 150.034179,83.4793121 L149.699,83.476 L149.843195,83.4921915 L150.114768,83.5125083 L150.336869,83.52098 L150.551533,83.5243967 L150.736,83.522 L150.974314,83.503567 C151.311772,83.4751151 151.631337,83.4420513 151.932674,83.4049317 L152.299,83.356 Z M156.191,80.574 L156.130185,80.7018695 C155.936901,81.0794209 155.689766,81.4396849 155.37976,81.7806912 C154.632079,82.6031404 153.760059,83.0575723 152.794542,83.2691437 L152.551233,83.3170494 L152.321,83.352 L152.510948,83.3254498 C153.517811,83.1717048 154.280725,82.9692357 154.783695,82.744796 L154.926772,82.6768317 L155.205428,82.5255174 C155.588187,82.3279646 155.767371,82.1321126 155.906093,81.7744373 C155.999157,81.5417791 156.081772,81.2292349 156.149266,80.8422014 L156.191,80.574 Z M115.794,69.549 L115.635,69.448 L115.530905,69.7539635 C115.053069,71.1297531 114.529741,72.5613091 113.959086,74.0530054 L113.372587,75.5649104 C112.870578,76.8418069 112.335278,78.1614798 111.765624,79.5264605 L111.144,80.999 L111.344324,81.1243705 L111.658771,81.3051875 L111.758,81.357 L112.336626,79.78908 L112.876743,78.2964315 L113.390358,76.8501481 L113.877445,75.4503557 C113.956414,75.2209382 114.034276,74.9934631 114.111032,74.7679331 L114.558275,73.4381138 L114.978923,72.1551009 C115.046813,71.9451729 115.113593,71.7372005 115.179264,71.5311862 L115.559967,70.3186194 L115.794,69.549 Z M140.489356,72.3552529 L140.48,72.321 L140.470644,72.3552529 C140.218207,73.1934459 139.698184,73.9156947 139.009864,74.4227095 L138.818042,74.5555753 L138.679,74.64 L142.28,74.64 L142.141958,74.5555753 C141.423859,74.0885145 140.86503,73.3971934 140.564762,72.5809017 L140.489356,72.3552529 Z M104.445031,56.2852669 L104.382323,56.6244645 C104.349795,56.7871037 104.307183,56.9475624 104.254733,57.1049111 C103.391977,59.6931797 101.903131,61.7105904 99.7877527,62.9652396 L99.4954085,63.1315823 L99.2786521,63.2515283 C98.4488339,63.693424 97.5337548,64.0270778 96.5326167,64.2621024 L97.2815312,64.2604733 L97.5956277,64.2658084 C102.414344,64.4163933 105.42,67.6099028 105.42,72.46 C105.42,73.1045664 105.367166,73.7190257 105.264421,74.3004533 C106.399006,71.4949506 107.375654,68.8896722 108.196216,66.4827027 C108.993665,64.1568105 110.370333,62.3947883 112.409648,61.5143827 L112.50289,61.4764057 C111.266704,61.2542325 110.015681,60.717346 108.795899,59.855849 L108.627,59.733 L107.719,59.164 L107.63886,59.121827 C106.292879,58.3809404 105.204171,57.4353353 104.445031,56.2852669 Z M140.489356,59.1552529 L140.48,59.121 L140.470644,59.1552529 C140.162212,60.1793723 139.454317,61.0304057 138.528059,61.5272504 L138.326299,61.6282299 C139.282827,62.0768564 140.033929,62.8895236 140.398503,63.8880072 L140.48,64.138 L140.489356,64.1047471 C140.797788,63.0806277 141.505683,62.2295943 142.431941,61.7327496 L142.633701,61.6317701 C141.677173,61.1831436 140.926071,60.3704764 140.561497,59.3719928 L140.489356,59.1552529 Z M68.2793889,55.5487057 L68.2795545,57.6996948 L68.2744796,58.0080596 C68.2552733,58.6418662 68.1839615,59.2445393 68.0636149,59.8134253 C69.0983372,58.8969013 70.4118194,58.268589 71.9490254,57.9730815 C71.743443,57.4247677 71.570606,56.8408888 71.4282673,56.2220118 L71.3271965,55.7513008 L71.307,55.644 L71.2319634,55.6558037 C70.1960694,55.7940361 69.2048808,55.7562512 68.2793889,55.5487057 Z M63.449,35.452 L63.4109957,35.4394113 C63.1649006,35.3559394 63.1009925,35.363238 62.9919624,35.5163448 L62.8382806,35.7530051 C62.7854658,35.834628 62.7296928,35.9142983 62.6710727,35.9918572 C59.8316102,39.7486845 56.3908985,43.1022895 52.3609368,46.0489282 L52.2608628,46.1197726 L52.1586645,46.1875166 C52.0436719,46.2612297 51.9385437,46.3323676 51.8431753,46.4004314 L51.7074293,46.5001591 L51.632,46.558 L51.8044251,46.7644107 L52.0014618,46.9833574 L52.043,47.026 L52.1361021,46.970039 L52.2498134,46.895227 L52.3720283,46.8096919 L52.6007482,46.6410015 L52.7046897,46.5670548 L52.8992624,46.4071149 L53.0668236,46.2748937 L53.169,46.201 L53.3107404,46.0904109 C55.7927905,44.2192875 59.4115028,45.8297816 59.6836866,48.9252484 L59.695966,49.1127424 L59.7,49.3 L59.7005688,57.7120527 L59.707,57.887 L59.8698568,57.8976093 L60.02,57.9 L60.272,57.892 L60.2767603,57.8272083 L60.28,57.64 L60.28,40.84 C60.28,39.8851549 60.6215686,38.9618069 61.2429736,38.2368345 C61.9801264,37.3768228 62.6635676,36.5200191 63.2729272,35.6959524 L63.449,35.452 Z M79.3674344,35.7223583 L79.22,35.72 L79.0309426,35.7239853 L78.909,35.731 L78.9032916,35.8493142 L78.9,36.04 L78.9,42.46 C78.9,44.1273782 77.8657087,45.6198611 76.3044938,46.2053167 L75.7974,46.392049 L75.411,46.53 L75.4315947,46.5321952 C77.2098815,46.7716126 78.6986326,48.208088 78.8811961,50.1061513 L78.895712,50.311248 L78.9,50.5 L78.9,50.8 C78.9,51.3494142 78.9156862,51.8544908 78.9443247,52.3153671 L78.9847331,52.8472112 C79.1312722,54.4642556 79.449051,55.4438411 79.7880526,55.7935059 C80.0475685,56.0682874 80.7428363,56.3438778 81.884146,56.5177492 L82.1355433,56.553413 L82.281,56.571 L82.2641954,56.5629409 C82.0539959,56.4451364 81.8502168,56.3104924 81.6515676,56.1569854 L81.4545807,55.9971158 L81.260727,55.8242211 C79.9888348,54.6371217 79.6179725,53.251147 79.5504104,51.3144834 L79.5424762,51.0198097 L79.54,50.74 L79.54,47.68 C79.54,46.024913 80.5593155,44.5407592 82.1040837,43.9466176 C84.8254338,42.8999445 87.388037,41.8547854 89.7915709,40.8114805 L90.631,40.443 L91.1940332,40.1733839 L93.4890826,39.0426659 L94.047,38.764 L93.6788231,38.3386787 C93.5151695,38.1585424 93.4615524,38.1581871 93.2698925,38.2818192 L93.0230304,38.4447139 L92.8930143,38.5248299 C90.9760569,39.656149 89.0563598,40.6946512 87.1186151,41.6472818 L86.1481679,42.1164733 L85.2331679,42.5439733 C82.6387467,43.7561209 79.6720376,41.9299215 79.5442763,39.10948 L79.54,38.92 L79.54,36.04 L79.5310149,35.7625271 L79.528,35.731 L79.3674344,35.7223583 Z M96.626,52.997 L96.62,52.996 L96.5960532,53.0287272 C96.5660759,53.0706813 96.5331892,53.1209763 96.4978338,53.1799667 L96.384802,53.3833781 C96.2453195,53.6519522 96.0809943,54.0313859 95.9107241,54.5368755 C95.6629217,55.2725387 95.2104364,55.9098934 94.6194871,56.3829292 L94.416,56.535 L94.5431316,56.5111004 C94.850081,56.4481206 95.1078693,56.3716939 95.3162001,56.285391 L95.4631703,56.2188678 L95.6645915,56.1084177 C95.945539,55.9551736 96.2060759,55.6646072 96.4459793,55.1398743 L96.5251826,54.9561576 L96.583,54.805 L96.5909278,54.7651577 C96.6852775,54.1973787 96.7073295,53.7072269 96.6680743,53.2905101 L96.6433886,53.0882519 L96.626,52.997 Z M113.551146,52.9977088 L111.586,52.014 L111.506,52.118 L111.690939,52.2169337 L111.788511,52.2725164 L112.887693,52.9614833 L113.118801,53.1117988 L113.214562,53.177669 L113.308369,53.2462937 C113.3863,53.3050614 113.458516,53.3560662 113.524716,53.3998497 L113.619466,53.4601768 L113.681,53.496 L113.720629,53.4579934 L113.800214,53.370775 L113.885101,53.2703694 L113.955,53.18 L113.904,53.152 L113.744129,53.0878599 L113.551146,52.9977088 Z M142.18,49.46 L138.779,49.46 L138.818042,49.4844247 C139.536141,49.9514855 140.09497,50.6428066 140.395238,51.4590983 L140.48,51.718 L140.489356,51.6847471 C140.741793,50.8465541 141.261816,50.1243053 141.950136,49.6172905 L142.141958,49.4844247 L142.18,49.46 Z M156.34,37.1 L139.86,37.1 L139.86,37.14 L151.28,37.14 C153.540316,37.14 155.395533,38.3094482 156.235432,40.1949878 L156.324545,40.4074161 L156.34,40.45 L156.34,37.1 Z M70.9009485,38.6175447 C70.743396,38.9134808 70.5679771,39.2103872 70.3744736,39.5076263 L70.1291071,39.8689984 L70.9,39.616 L70.9009485,38.6175447 Z M113.773644,36.3663817 L113.282,36.122 L113.205,36.214 L113.464153,36.3676812 L113.844679,36.6047444 L114.134,36.791 L114.281796,36.8681196 L114.467599,36.9760503 L114.648801,37.0917988 L114.846832,37.2303373 L115.039436,37.379049 L115.084,37.418 L115.133923,37.4542346 C115.217596,37.5141826 115.295559,37.5661548 115.367489,37.6106103 L115.470818,37.6717133 L115.564,37.721 L115.634128,37.6511215 L115.76449,37.5033208 L115.78,37.482 L115.628191,37.3890359 C115.234891,37.1542611 114.829059,36.9244727 114.410663,36.6997223 L113.773644,36.3663817 Z" id="华润3分彩" fill="#FFFFFF" fill-rule="nonzero"></path>
        <g id="华润3分彩" fill-rule="nonzero">
            <use fill="#FFFFFF" xlink:href="#path-1"></use>
            <use fill="#A1153E" xlink:href="#path-1"></use>
        </g>
    </g>
</svg>